<svg width="1148" height="820" viewBox="0 0 1148 820" fill="none" xmlns="http://www.w3.org/2000/svg">
<path d="M733.953 476.5C732.573 476.526 731.475 477.666 731.5 479.047L731.92 501.543C731.945 502.923 733.085 504.021 734.466 503.996C735.846 503.97 736.944 502.83 736.919 501.45L736.546 481.453L756.543 481.08C757.923 481.055 759.021 479.915 758.996 478.534C758.97 477.154 757.83 476.056 756.45 476.081L733.953 476.5ZM774.92 514.952L735.735 477.2L732.265 480.8L771.451 518.552L774.92 514.952Z" fill="black"/>
<text fill="black" xml:space="preserve" style="white-space: pre" font-family="Atlas Grotesk" font-style="Regular" font-size="60" letter-spacing="0em"><tspan x="775" y="557.72">Dashboard</tspan></text>
<path d="M326.564 273.572C327.934 273.747 329.186 272.779 329.361 271.409L332.211 249.09C332.385 247.721 331.417 246.469 330.047 246.294C328.678 246.119 327.426 247.087 327.251 248.457L324.718 268.296L304.879 265.763C303.509 265.588 302.257 266.556 302.082 267.926C301.907 269.296 302.876 270.548 304.246 270.722L326.564 273.572ZM290.023 227.53L324.904 272.622L328.858 269.563L293.977 224.47L290.023 227.53Z" fill="black"/>
<text fill="black" xml:space="preserve" style="white-space: pre" font-family="Atlas Grotesk" font-style="Regular" font-size="60" letter-spacing="0em"><tspan x="42" y="196.72">Juice Wrld</tspan></text>
<text fill="black" xml:space="preserve" style="white-space: pre" font-family="Atlas Grotesk" font-style="Bold" font-size="48" font-weight="bold" letter-spacing="0em"><tspan x="457.258" y="62.976">Most Emo</tspan></text>
<path d="M586.406 76H561.406V726H586.406V76Z" fill="#E5E5E5"/>
<path d="M856.609 432.929H596.406V451.929H856.609V432.929Z" fill="#28115A" fill-opacity="0.7"/>
<path d="M551.406 288.484H307.281V307.484H551.406V288.484Z" fill="#18604F" fill-opacity="0.7"/>
<text fill="black" xml:space="preserve" style="white-space: pre" font-family="Atlas Grotesk" font-style="Bold" font-size="48" font-weight="bold" letter-spacing="0em"><tspan x="446.453" y="785.976">Least Emo</tspan></text>
</svg>
