<?xml version="1.0" standalone="no"?>
<!DOCTYPE svg PUBLIC "-//W3C//DTD SVG 1.1//EN" "http://www.w3.org/Graphics/SVG/1.1/DTD/svg11.dtd" >
<svg>
<metadata>
Created by FontForge 20120731 at Thu Aug 23 12:56:55 2018
 By www-data
Copyright \(c\) 2006 by Joseph Miceli. All rights reserved.
</metadata>
<defs>
<font id="FuturaPassata-DISPLAY" horiz-adv-x="578" >
  <font-face 
    font-family="Futura Passata DISPLAY"
    font-weight="700"
    font-stretch="normal"
    units-per-em="1000"
    panose-1="2 11 7 2 2 2 4 2 2 3"
    ascent="825"
    descent="-175"
    x-height="753"
    cap-height="753"
    bbox="-404.154 -342.028 1224.61 1051.45"
    underline-thickness="50"
    underline-position="-50"
    stemh="124"
    stemv="140"
    unicode-range="U+0020-2212"
  />
<missing-glyph horiz-adv-x="500" 
d="M0 700h500v-700h-500v700zM420 650h-340l170 -255zM50 95l170 255l-170 255v-510zM450 95v510l-170 -255zM420 50l-170 255l-170 -255h340z" />
    <glyph glyph-name=".notdef" horiz-adv-x="500" 
d="M0 700h500v-700h-500v700zM420 650h-340l170 -255zM50 95l170 255l-170 255v-510zM450 95v510l-170 -255zM420 50l-170 255l-170 -255h340z" />
    <glyph glyph-name=".null" horiz-adv-x="0" 
 />
    <glyph glyph-name="CR" horiz-adv-x="289" 
 />
    <glyph glyph-name="space" unicode=" " horiz-adv-x="289" 
 />
    <glyph glyph-name="numbersign" unicode="#" 
d="M233 725c20 3 69 6 77 -9c5 -10 -1 -34 -3 -46c-6 -31 -12 -57 -18 -88c-3 -14 -8 -35 -4 -47c6 -17 67 -17 84 -8c14 7 14 25 18 45l21 104c4 22 5 40 20 47s80 8 88 -7c6 -10 0 -33 -3 -46c-6 -31 -12 -56 -18 -88c-3 -13 -9 -35 -4 -47c8 -21 52 -5 66 -19
c12 -12 12 -88 0 -100c-19 -19 -74 3 -90 -18c-7 -10 -9 -32 -12 -48c-3 -18 -12 -35 -6 -52c8 -22 66 -5 80 -19c10 -10 13 -87 0 -100c-19 -19 -93 6 -110 -18c-6 -8 -7 -25 -10 -38c-2 -12 -6 -27 -8 -40c-5 -28 -8 -70 -24 -79s-83 -7 -91 6c-6 11 -1 27 1 38
c5 27 10 48 15 75c2 12 6 29 2 38c-7 15 -63 15 -81 8c-21 -9 -23 -54 -29 -87c-5 -27 -8 -66 -23 -77c-9 -6 -29 -5 -49 -5c-22 0 -37 0 -43 10c-9 16 6 58 9 76c2 12 4 24 7 38c2 13 6 29 1 38c-12 21 -63 -1 -77 18c-10 14 -11 87 1 99c17 17 80 -4 101 14
c15 13 17 55 21 78c1 7 5 19 1 27c-10 22 -66 2 -82 18c-12 12 -12 88 0 100c9 9 36 7 49 7c19 0 41 -2 52 4c17 9 23 68 28 92l9 51c5 25 6 51 34 55zM246 349c-3 -15 -12 -39 -6 -52c7 -16 76 -15 89 -5c11 8 13 30 17 51c3 14 15 44 5 58c-8 12 -49 10 -72 7
c-30 -4 -27 -28 -33 -59z" />
    <glyph glyph-name="dollar" unicode="$" 
d="M292 847c18 2 37 0 43 -7c13 -15 -2 -62 12 -79c8 -10 24 -11 43 -17c32 -10 53 -22 76 -42c10 -8 25 -16 26 -33c2 -20 -16 -34 -25 -47c-8 -11 -17 -36 -35 -37c-9 -1 -19 7 -28 15c-22 18 -47 37 -94 32c-32 -3 -58 -26 -67 -49c-27 -67 44 -102 84 -120
c96 -45 196 -87 196 -228c0 -116 -61 -191 -145 -224c-9 -4 -28 -10 -33 -19c-11 -21 6 -68 -11 -85c-9 -9 -49 -11 -60 0c-14 14 0 61 -12 79c-9 14 -45 17 -65 24c-57 20 -92 51 -124 99c-6 9 -14 20 -13 31c1 18 23 33 34 44c7 7 11 10 20 19c5 5 15 14 24 14
c14 0 24 -20 31 -29c24 -32 56 -65 112 -65c34 0 62 16 78 38c17 24 28 69 7 105c-27 47 -96 65 -145 90c-51 25 -97 59 -116 119c-22 67 -4 147 24 191c24 38 54 61 99 78c14 5 31 10 36 22c15 33 -15 75 28 81z" />
    <glyph glyph-name="percent" unicode="%" horiz-adv-x="843" 
d="M720 790c17 -1 30 -17 44 -28c12 -10 24 -20 23 -31c-1 -17 -24 -37 -39 -54c-99 -118 -192 -224 -293 -342c-100 -115 -193 -226 -294 -342c-11 -12 -32 -41 -46 -40c-18 1 -29 17 -41 27c-12 9 -28 19 -27 33c1 15 26 38 38 53c195 229 390 455 588 684
c11 13 32 42 47 40zM207 773c60 4 103 -16 134 -43c32 -28 54 -66 58 -121c9 -111 -64 -184 -164 -191c-56 -4 -104 14 -135 42s-55 69 -58 121c-3 59 16 104 44 135c28 32 65 53 121 57zM142 596c0 -48 31 -102 87 -96c100 11 89 204 -17 190c-42 -6 -70 -46 -70 -94z
M610 336c60 4 103 -16 134 -43c32 -28 54 -66 58 -121c9 -111 -64 -184 -164 -191c-56 -4 -104 14 -135 42s-55 69 -58 121c-3 59 16 104 44 135c28 32 65 53 121 57zM545 159c0 -48 31 -102 87 -96c100 11 89 204 -17 190c-42 -6 -70 -46 -70 -94z" />
    <glyph glyph-name="ampersand" unicode="&#x26;" horiz-adv-x="702" 
d="M303 773c107 7 185 -52 204 -141c18 -90 -23 -145 -65 -185c-13 -12 -41 -26 -43 -43c-2 -15 11 -26 18 -35l46 -60c7 -10 17 -23 28 -24c16 -1 31 25 40 36c10 13 22 36 38 37s34 -22 47 -34c12 -12 36 -26 37 -44c1 -19 -23 -42 -32 -54s-32 -33 -32 -53
c-1 -17 15 -32 24 -44c24 -32 48 -61 72 -96c3 -5 11 -14 9 -22c-5 -17 -55 -11 -76 -11c-29 0 -64 -5 -85 4c-13 5 -21 20 -31 32c-8 9 -19 28 -33 29c-17 1 -35 -20 -44 -26c-41 -29 -90 -53 -151 -58c-131 -10 -220 69 -238 178c-20 114 41 191 105 237c12 9 33 18 35 34
c1 16 -16 37 -22 49c-24 45 -39 113 -17 174c12 34 31 60 60 82c28 21 62 35 106 38zM274 561c5 -12 12 -21 20 -32s16 -24 28 -25c15 -1 33 19 44 33c33 44 20 136 -46 129c-45 -5 -67 -58 -46 -105zM213 286c-18 -21 -34 -45 -30 -84c3 -36 28 -71 60 -83
c37 -15 76 5 99 22c9 7 30 20 31 37c0 9 -5 16 -9 23c-20 29 -49 65 -69 92c-9 12 -18 32 -37 29c-17 -3 -35 -24 -45 -36z" />
    <glyph glyph-name="quoteright" unicode="&#x2019;" horiz-adv-x="296" 
d="M106 460c-18 -2 -62 1 -68 17c-4 11 3 26 8 40c22 61 43 122 66 184c8 22 14 60 33 67c13 6 39 -1 60 -3s46 -1 51 -16c3 -10 -7 -28 -12 -40c-28 -60 -59 -121 -87 -180c-12 -24 -22 -66 -51 -69z" />
    <glyph glyph-name="parenleft" unicode="(" horiz-adv-x="271" 
d="M178 821c13 3 33 -12 45 -20s30 -19 32 -32c2 -14 -10 -35 -15 -50c-40 -113 -60 -242 -60 -395c0 -150 19 -283 60 -395c6 -16 15 -35 14 -48c-3 -17 -19 -25 -31 -33s-27 -23 -42 -22c-16 1 -23 25 -31 45c-50 125 -76 276 -76 450c0 181 25 321 75 451
c6 17 13 45 29 49z" />
    <glyph glyph-name="parenright" unicode=")" horiz-adv-x="271" 
d="M84 821c20 3 28 -21 36 -41c49 -123 78 -285 78 -453c0 -175 -26 -326 -76 -455c-7 -17 -16 -44 -29 -46c-17 -3 -35 14 -44 21c-11 7 -30 18 -32 32c-2 13 8 35 14 51c41 112 61 243 61 394c0 158 -21 277 -61 394c-6 15 -18 36 -14 53c2 11 16 19 29 28s26 20 38 22z
" />
    <glyph glyph-name="asterisk" unicode="*" horiz-adv-x="417" 
d="M191 753c16 2 47 4 56 -7c14 -18 -7 -69 15 -76c21 -7 39 29 62 25c13 -2 34 -34 32 -52c-2 -15 -18 -21 -28 -27s-28 -15 -28 -27c-1 -26 53 -30 56 -56c1 -11 -7 -23 -11 -31c-4 -7 -10 -19 -20 -21c-13 -3 -23 6 -31 12c-9 6 -21 16 -31 14c-22 -4 -3 -59 -16 -75
c-10 -11 -63 -13 -74 -1c-8 8 -7 28 -6 41c0 12 1 32 -10 35c-22 5 -40 -30 -62 -26c-12 2 -17 12 -21 21c-4 8 -12 20 -11 30c1 16 16 21 27 28c9 6 26 14 27 27c1 26 -51 29 -55 55c-2 12 6 24 11 32c3 5 8 21 21 22c23 3 39 -31 62 -27c24 4 2 59 16 77c5 6 13 6 19 7z
" />
    <glyph glyph-name="plus" unicode="+" 
d="M254 511c19 3 76 5 87 -6c13 -13 7 -68 7 -92c0 -23 -6 -78 7 -91c13 -14 60 -7 92 -7c24 0 77 6 91 -7c11 -11 12 -93 0 -105c-14 -13 -64 -7 -92 -7s-78 6 -91 -7s-7 -60 -7 -91c0 -26 6 -78 -7 -91c-10 -10 -33 -7 -52 -7c-18 0 -46 -2 -54 8c-11 14 -6 58 -6 89
c0 36 4 81 -7 92c-14 13 -67 7 -92 7c-27 0 -78 -6 -91 7c-10 10 -7 35 -7 53c0 19 -2 43 7 52c13 13 64 7 92 7c29 0 78 -6 91 7s7 63 7 90v48c0 31 -3 47 25 51z" />
    <glyph glyph-name="comma" unicode="," horiz-adv-x="289" 
d="M151 153c16 2 95 -3 101 -19c4 -12 -7 -28 -12 -40c-35 -72 -69 -146 -105 -219c-6 -12 -12 -26 -23 -30c-17 -6 -73 2 -78 15c-4 10 3 28 8 41c21 59 46 126 68 187c8 24 14 62 41 65z" />
    <glyph glyph-name="hyphen" unicode="-" horiz-adv-x="330" 
d="M68 377c47 6 111 1 166 1c17 0 38 2 47 -7s7 -32 7 -51c0 -18 2 -41 -7 -50s-35 -7 -55 -7h-122c-17 0 -45 -2 -54 7c-10 10 -13 85 -2 99c5 7 13 7 20 8z" />
    <glyph glyph-name="period" unicode="." horiz-adv-x="289" 
d="M145 158c49 0 89 -39 89 -88s-40 -90 -89 -90s-89 41 -89 90s40 88 89 88z" />
    <glyph glyph-name="slash" unicode="/" horiz-adv-x="539" 
d="M412 840c16 4 34 -6 51 -12c14 -5 29 -10 32 -21c5 -16 -10 -43 -18 -64c-53 -145 -104 -276 -159 -422c-54 -142 -104 -278 -159 -422c-6 -15 -16 -49 -30 -53c-17 -5 -33 6 -47 11c-15 5 -33 9 -37 22c-4 15 11 45 18 63c105 282 210 561 318 844c6 16 16 50 31 54z
" />
    <glyph glyph-name="zero" unicode="0" 
d="M273 773c109 8 175 -52 216 -118s66 -160 71 -262c3 -56 -5 -107 -15 -152c-28 -127 -101 -252 -239 -261c-107 -7 -174 51 -215 117c-43 68 -68 155 -72 261c-4 104 21 207 58 276c38 70 94 131 196 139zM236 624c-27 -22 -44 -65 -54 -105s-18 -89 -18 -141
c0 -92 22 -204 71 -247c21 -18 58 -29 89 -14s52 52 66 95c39 118 32 319 -35 399c-16 19 -43 37 -77 32c-19 -3 -32 -10 -42 -19z" />
    <glyph glyph-name="one" unicode="1" 
d="M167 753c41 6 116 1 170 1c19 0 41 1 49 -7c12 -13 6 -64 6 -89v-566c0 -25 4 -77 -7 -87c-9 -8 -42 -6 -67 -6c-24 0 -56 -4 -67 6c-10 10 -7 48 -7 71v468c0 22 4 62 -5 73c-15 19 -74 -1 -88 15c-8 8 -6 36 -6 57c0 34 -6 60 22 64z" />
    <glyph glyph-name="two" unicode="2" 
d="M42 7c-1 14 10 25 18 35l164 206c48 60 95 114 131 186c15 31 30 60 27 103c-4 52 -41 114 -106 107c-48 -5 -71 -49 -79 -93c-2 -13 -4 -26 -12 -31c-13 -9 -48 -4 -72 -4c-23 0 -60 -4 -69 7s-2 35 1 51c24 111 99 193 223 200c93 5 157 -30 201 -80
c43 -49 73 -121 57 -214c-13 -77 -53 -134 -95 -186c-30 -37 -63 -75 -97 -114c-8 -10 -30 -30 -28 -42c2 -11 28 -10 50 -10h118c21 0 48 2 56 -7c9 -10 6 -39 6 -59c0 -19 3 -47 -7 -57c-9 -8 -36 -6 -57 -6h-376c-19 0 -40 -4 -54 8z" />
    <glyph glyph-name="three" unicode="3" 
d="M272 773c108 8 183 -41 216 -114c34 -75 21 -173 -22 -227c-8 -10 -15 -17 -15 -26c0 -11 10 -17 16 -22c36 -33 59 -79 65 -143c10 -112 -43 -186 -113 -227c-34 -20 -80 -35 -136 -35c-78 0 -136 31 -174 68c-32 31 -54 62 -68 113c-4 14 -12 39 -4 50c8 12 45 8 65 8
c21 0 54 3 68 -4c13 -7 15 -29 23 -46c17 -36 71 -79 132 -51c59 27 82 122 41 187c-13 20 -35 38 -62 43c-14 2 -33 -2 -42 6c-10 8 -7 25 -7 45c0 16 -2 38 5 46c8 11 29 9 43 13c43 13 69 53 63 112c-3 30 -21 57 -40 69c-20 13 -55 16 -77 5c-17 -8 -30 -24 -37 -39
c-6 -11 -8 -40 -22 -45c-15 -5 -38 -3 -64 -3c-24 0 -52 -4 -60 7c-7 9 -2 32 2 45c19 68 57 117 117 145c25 12 56 18 87 20z" />
    <glyph glyph-name="four" unicode="4" 
d="M355 767c18 2 100 7 112 -6c9 -9 6 -37 6 -59v-386c0 -26 -3 -51 8 -60c13 -11 52 1 65 -11c10 -9 7 -34 7 -53s2 -44 -6 -53c-14 -15 -56 -1 -68 -14c-19 -21 6 -100 -12 -119c-9 -10 -41 -7 -64 -7s-53 -4 -63 7c-17 19 6 105 -14 121c-13 10 -52 5 -78 5h-165
c-25 0 -65 -4 -75 7c-8 9 -8 48 -3 63c7 22 29 51 41 71c91 154 178 306 270 458c10 17 16 33 39 36zM255 251c20 0 61 -4 72 6c10 9 7 41 7 62v140c0 15 3 71 -14 58c-14 -11 -27 -42 -37 -61c-30 -55 -57 -107 -85 -159c-6 -11 -13 -23 -12 -37c13 -14 43 -9 69 -9z" />
    <glyph glyph-name="five" unicode="5" 
d="M191 753c37 5 105 1 156 1h77c25 0 61 3 70 -7s6 -40 6 -59c0 -20 3 -48 -7 -57c-14 -13 -78 -6 -105 -6h-56c-19 0 -40 1 -50 -5c-11 -7 -14 -30 -18 -47c-3 -11 -14 -40 -5 -53c6 -8 19 -6 38 -7c97 -4 156 -52 194 -114c22 -37 38 -83 40 -136
c3 -56 -11 -105 -31 -145c-39 -77 -108 -128 -215 -137c-85 -7 -155 18 -205 55c-15 11 -40 27 -43 45c-3 20 10 44 16 60c4 10 12 48 26 50c13 2 29 -21 38 -29c32 -28 80 -59 144 -52c67 8 120 66 120 145c0 72 -43 122 -97 142c-51 19 -105 3 -142 -19
c-13 -8 -51 -36 -46 7c3 24 10 53 14 74c16 82 33 161 50 244c6 27 6 46 31 50z" />
    <glyph glyph-name="six" unicode="6" 
d="M311 775c19 6 45 -20 57 -29c14 -10 43 -25 44 -41c2 -19 -21 -40 -30 -53c-30 -44 -54 -76 -86 -122c-4 -7 -15 -19 -12 -29c4 -9 22 -5 31 -5c89 4 145 -36 181 -82c42 -53 70 -144 47 -238c-18 -77 -66 -135 -133 -168c-69 -34 -169 -38 -245 -3
c-69 33 -117 87 -137 164c-22 90 7 179 40 244c34 65 77 123 117 184c29 44 61 88 91 134c9 13 20 39 35 44zM200 340c-19 -22 -36 -60 -36 -100c0 -50 21 -86 45 -109c20 -19 51 -32 82 -30c65 5 103 63 109 120c10 81 -39 161 -120 158c-37 -1 -63 -20 -80 -39z" />
    <glyph glyph-name="seven" unicode="7" 
d="M65 753c32 5 87 1 130 1h321c21 0 50 3 55 -9c5 -13 -15 -41 -20 -51c-118 -221 -238 -442 -355 -665c-8 -14 -16 -39 -31 -41c-12 -2 -23 7 -32 12c-20 11 -35 19 -56 31c-10 5 -20 13 -21 22c-2 12 9 28 15 39c87 161 173 320 261 485c6 11 17 26 14 37
c-5 15 -46 11 -68 11h-197c-12 0 -25 0 -32 7c-11 12 -6 34 -6 56c0 34 -6 61 22 65z" />
    <glyph glyph-name="eight" unicode="8" 
d="M273 773c68 5 132 -19 171 -55s67 -88 67 -158c0 -60 -23 -102 -52 -133c-9 -10 -29 -20 -29 -32c0 -11 14 -17 23 -23c29 -20 45 -40 61 -75c18 -40 26 -102 12 -154c-24 -90 -100 -148 -203 -161c-112 -14 -206 40 -248 110c-23 39 -35 93 -27 149c10 65 42 105 84 134
c6 4 17 10 17 19c1 12 -32 35 -39 44c-36 45 -55 122 -30 195c13 38 38 73 69 97c31 23 76 40 124 43zM248 650c-23 -15 -41 -43 -44 -78c-5 -57 29 -119 86 -118c29 0 54 20 66 38c41 62 12 180 -77 169c-12 -2 -23 -6 -31 -11zM247 320c-29 -17 -47 -45 -52 -88
c-5 -51 17 -99 56 -120c25 -13 61 -11 84 4c82 52 58 229 -58 214c-14 -2 -22 -5 -30 -10z" />
    <glyph glyph-name="nine" unicode="9" 
d="M273 773c108 7 190 -40 238 -106c24 -34 40 -76 45 -127c4 -48 -7 -104 -23 -147c-32 -83 -79 -145 -127 -217c-34 -50 -69 -101 -104 -154c-10 -14 -26 -44 -40 -46c-12 -1 -22 9 -29 14l-25 18c-12 9 -43 24 -44 41c-2 16 22 42 30 53c30 43 56 77 87 121
c4 7 14 21 12 29c-3 8 -19 5 -26 5c-78 -4 -129 24 -166 60c-43 41 -73 103 -75 184c-3 87 28 146 68 191c19 21 44 40 74 55c28 14 68 24 105 26zM224 627c-29 -24 -50 -70 -49 -115c0 -57 28 -102 64 -124c31 -19 77 -20 111 1c38 24 67 74 62 139c-6 67 -53 126 -122 124
c-27 -1 -51 -12 -66 -25z" />
    <glyph glyph-name="colon" unicode=":" horiz-adv-x="289" 
d="M132 517c34 4 60 -6 77 -24c10 -10 23 -31 25 -52c3 -35 -11 -62 -31 -79c-61 -52 -154 -4 -146 79c3 27 12 38 24 51c12 12 29 22 51 25zM132 157c34 4 60 -6 77 -24c10 -10 23 -31 25 -52c3 -35 -11 -62 -31 -79c-61 -52 -154 -4 -146 79c3 27 12 38 24 51
c12 12 29 22 51 25z" />
    <glyph glyph-name="semicolon" unicode=";" horiz-adv-x="289" 
d="M172 517c34 4 59 -6 77 -24c14 -14 27 -40 25 -70c-2 -25 -13 -45 -31 -61c-59 -49 -154 -7 -146 79c2 27 11 38 24 51c12 12 29 22 51 25zM140 154c12 2 33 -2 57 -5c20 -2 43 -2 47 -14s-7 -26 -13 -40c-34 -73 -68 -146 -105 -219c-6 -12 -13 -28 -23 -31
c-12 -4 -30 0 -45 2s-31 5 -34 14c-4 10 5 28 9 40c21 59 45 124 66 185c7 21 17 66 39 68h2z" />
    <glyph glyph-name="less" unicode="&#x3c;" 
d="M523 489c27 3 23 -27 23 -56c0 -23 3 -42 -4 -55c-9 -17 -49 -25 -71 -33l-192 -68c-13 -5 -31 -11 -32 -20c-1 -12 23 -19 31 -22c65 -24 129 -45 194 -68c20 -7 61 -16 70 -34c6 -12 4 -34 4 -57c0 -21 4 -45 -9 -52c-14 -8 -49 10 -66 16l-377 134
c-18 6 -49 14 -57 28c-6 11 -4 34 -4 54s-1 44 4 54c7 14 36 20 56 27c124 44 242 87 367 131c20 7 42 19 63 21z" />
    <glyph glyph-name="equal" unicode="=" 
d="M55 433c36 5 85 1 124 1h246h61c21 0 47 1 54 -7c8 -9 6 -33 6 -53c0 -21 4 -42 -6 -52c-8 -9 -36 -7 -58 -7h-384c-20 0 -49 -2 -58 6c-8 8 -7 29 -7 51c0 33 -5 57 22 61zM55 197c36 5 85 1 124 1h246h61c21 0 47 1 54 -7c8 -9 6 -33 6 -53c0 -21 4 -42 -6 -52
c-8 -9 -36 -7 -58 -7h-384c-20 0 -49 -2 -58 6c-8 8 -7 29 -7 51c0 33 -5 57 22 61z" />
    <glyph glyph-name="greater" unicode="&#x3e;" 
d="M46 489c0 0 1 1 2 1c23 -1 46 -13 65 -20c125 -45 245 -87 372 -132c19 -7 49 -16 56 -28c7 -13 8 -93 0 -108c-7 -14 -38 -21 -58 -28c-125 -44 -249 -89 -377 -134c-16 -6 -50 -25 -65 -16c-12 7 -9 32 -9 53c0 22 -2 45 4 57c9 17 48 25 71 33c63 23 127 44 192 68
c10 4 31 9 32 20s-20 18 -31 22c-77 28 -155 54 -232 82c-12 4 -26 8 -32 20s-4 33 -4 59s-3 47 14 51z" />
    <glyph glyph-name="question" unicode="?" horiz-adv-x="487" 
d="M227 774c67 5 121 -18 156 -49c39 -34 63 -73 72 -133c14 -98 -34 -172 -91 -210c-9 -6 -22 -12 -34 -17c-11 -5 -36 -11 -41 -20c-12 -22 -9 -107 -26 -122c-11 -9 -23 -6 -44 -6s-35 -3 -44 6c-14 13 -17 104 -17 134c0 25 -7 82 8 93c9 7 18 3 31 4
c63 4 109 46 114 98c4 40 -13 79 -41 93c-40 20 -75 -10 -86 -37c-5 -13 -4 -38 -16 -46c-11 -7 -43 -4 -68 -4s-54 -4 -64 7c-15 17 2 65 9 83c10 25 25 45 41 61c36 36 80 61 141 65zM207 157c59 7 107 -33 102 -94c-4 -48 -43 -80 -84 -82c-47 -2 -99 36 -93 100
c2 27 11 38 24 51c12 12 29 22 51 25z" />
    <glyph glyph-name="at" unicode="@" horiz-adv-x="975" 
d="M483 774c100 6 181 -24 238 -70c55 -44 105 -103 124 -183c20 -86 -2 -191 -37 -254c-18 -32 -42 -58 -73 -81c-34 -25 -109 -54 -140 -8c-6 8 -9 20 -19 21c-16 2 -32 -17 -44 -24c-28 -15 -67 -28 -111 -20c-56 10 -91 43 -116 86c-17 28 -29 61 -27 107
c3 80 35 145 83 186c23 20 52 38 91 44c56 9 101 -9 133 -37c6 -5 15 -15 25 -14c16 2 11 32 26 40c10 6 47 10 57 -3c6 -9 0 -31 -2 -44c-14 -75 -26 -139 -41 -215c-5 -25 -15 -72 13 -77c20 -3 36 14 46 25c32 37 54 93 57 156c4 91 -31 164 -76 208
c-49 47 -123 77 -212 70c-82 -7 -146 -45 -190 -94c-46 -50 -76 -118 -78 -206c-3 -89 30 -162 73 -211c64 -74 171 -124 312 -104c19 3 40 7 58 13c15 5 34 20 52 19c15 -1 24 -13 36 -22c8 -6 27 -17 27 -30s-22 -21 -33 -26c-65 -30 -148 -51 -245 -45
c-113 7 -186 48 -246 105c-77 73 -136 193 -118 343c15 137 84 229 178 289c22 14 48 28 79 38c29 10 68 16 100 18zM427 476c-35 -22 -62 -70 -62 -129c0 -57 30 -103 83 -107c91 -7 145 69 143 158c-2 62 -43 99 -109 94c-23 -2 -41 -7 -55 -16z" />
    <glyph glyph-name="A" unicode="A" horiz-adv-x="687" 
d="M311 773c19 2 74 5 89 -5c11 -7 16 -25 23 -43c44 -119 77 -210 123 -333c43 -113 80 -218 123 -333c6 -15 17 -37 11 -50c-8 -16 -41 -10 -67 -10c-28 0 -62 -3 -75 5c-15 9 -27 55 -35 76l-15 41c-5 12 -9 29 -21 34c-13 5 -39 3 -60 3h-125c-19 0 -44 3 -59 -3
c-13 -5 -18 -21 -23 -34c-11 -28 -20 -53 -32 -82c-6 -16 -12 -32 -26 -37c-16 -6 -44 -3 -72 -3c-24 0 -58 -5 -64 10c-5 13 7 36 13 51c84 223 169 445 253 667c9 23 12 42 39 46zM314 468c-12 -39 -24 -75 -36 -116c-5 -17 -19 -47 -13 -62c7 -17 52 -11 77 -11
c22 0 73 -6 81 8c9 15 -9 47 -14 63c-14 42 -26 79 -41 121c-4 12 -15 57 -30 53c-14 -3 -20 -43 -24 -56z" />
    <glyph glyph-name="B" unicode="B" horiz-adv-x="479" 
d="M78 750c29 4 68 1 99 1c35 0 67 1 94 -3c55 -10 95 -38 121 -75c27 -39 46 -89 40 -155c-5 -45 -20 -76 -44 -103c-7 -7 -20 -17 -20 -28c-1 -12 10 -17 16 -23c38 -36 64 -102 60 -171c-7 -116 -84 -178 -197 -192c-25 -3 -57 -3 -94 -3c-24 0 -77 -6 -91 6
c-13 11 -8 59 -8 87v469v141c0 28 -2 46 24 49zM203 573v-45c0 -26 -5 -71 10 -79c19 -10 44 11 54 23c36 39 28 118 -13 142c-7 5 -25 11 -36 8c-18 -5 -15 -29 -15 -49zM203 270v-51c0 -28 -6 -83 12 -90c19 -8 44 10 53 19c51 50 31 161 -36 175c-5 1 -10 0 -12 0
c-21 -4 -17 -31 -17 -53z" />
    <glyph glyph-name="C" unicode="C" horiz-adv-x="601" 
d="M369 773c33 2 72 -1 107 -10c26 -7 68 -17 78 -39c8 -17 4 -53 4 -78c0 -17 5 -68 -9 -72c-10 -3 -22 10 -29 15c-26 19 -55 33 -90 40c-55 10 -105 -3 -141 -24c-69 -40 -116 -117 -119 -228c-2 -57 13 -100 35 -139c21 -38 48 -69 83 -90c36 -21 91 -34 143 -23
c34 7 63 22 89 41c8 6 19 17 29 14c14 -4 9 -54 9 -73c0 -30 3 -62 -5 -77c-11 -20 -50 -29 -73 -36c-27 -8 -61 -15 -93 -15c-70 0 -125 19 -172 44c-90 48 -157 137 -185 248c-33 131 5 264 62 345c44 63 100 112 184 140c29 10 60 15 93 17z" />
    <glyph glyph-name="D" unicode="D" horiz-adv-x="530" 
d="M168 751c137 7 217 -41 269 -115s73 -186 65 -316c-11 -178 -89 -296 -259 -318c-41 -5 -92 -4 -140 -4c-19 0 -36 -1 -44 8c-11 13 -6 61 -6 89v563c0 30 -5 75 7 87c13 13 85 5 108 6zM203 584c-3 -76 0 -137 0 -211v-121c0 -32 -7 -102 8 -113c19 -12 56 9 67 17
c86 64 96 277 41 383c-18 35 -46 68 -90 74c-3 1 -6 1 -7 0c-16 -1 -19 -12 -19 -29z" />
    <glyph glyph-name="E" unicode="E" horiz-adv-x="488" 
d="M79 753c22 3 60 1 92 1h227c17 0 34 1 41 -8c9 -10 6 -37 6 -57c0 -19 3 -50 -8 -58c-10 -8 -34 -6 -55 -6h-120c-23 0 -44 2 -53 -7c-12 -12 -7 -47 -7 -74c0 -23 -5 -65 7 -77c9 -9 35 -7 52 -7h117c23 0 42 2 51 -7c12 -11 12 -103 0 -115c-8 -8 -31 -7 -51 -7h-115
c-22 0 -45 2 -54 -7c-13 -13 -7 -63 -7 -93c0 -26 -6 -83 7 -96c10 -9 33 -7 54 -7h122c21 0 45 1 53 -7c11 -11 7 -36 7 -57c0 -23 3 -51 -8 -59c-16 -12 -64 -6 -91 -6h-194c-24 0 -79 -5 -91 7s-7 57 -7 88v564c0 34 -10 94 23 95h2z" />
    <glyph glyph-name="F" unicode="F" horiz-adv-x="463" 
d="M79 753c46 6 123 1 176 1h87c26 0 69 4 80 -7c10 -10 7 -37 7 -58c0 -19 3 -47 -7 -57c-14 -14 -81 -7 -107 -7h-57c-17 0 -41 1 -49 -7c-11 -12 -7 -52 -7 -76c0 -30 -5 -63 7 -75s74 -7 100 -7c33 0 85 7 99 -7c10 -10 7 -36 7 -58s3 -48 -7 -57c-12 -12 -73 -7 -99 -7
c-25 0 -84 7 -99 -6c-13 -11 -8 -51 -8 -76v-167c0 -25 4 -65 -7 -76c-13 -13 -43 -7 -67 -7c-23 0 -56 -4 -67 7s-7 58 -7 87v564c0 39 -10 95 23 96h2z" />
    <glyph glyph-name="G" unicode="G" horiz-adv-x="563" 
d="M287 763c108 5 177 -57 213 -133c5 -11 13 -26 11 -38c-4 -19 -43 -26 -60 -33l-34 -14c-9 -3 -24 -11 -36 -7c-17 4 -19 34 -27 49c-14 26 -50 50 -90 31c-16 -7 -26 -17 -37 -34c-38 -58 -46 -167 -39 -270c4 -49 12 -94 28 -128c20 -40 64 -77 115 -52
c25 12 43 46 50 77c3 17 10 45 1 59c-16 20 -63 -4 -82 15c-12 12 -7 41 -7 64s-3 53 7 63c9 9 36 7 54 7h123c20 0 45 2 53 -7c10 -9 7 -34 7 -55c0 -141 -30 -263 -107 -326c-22 -17 -52 -33 -84 -39c-122 -25 -207 37 -252 108c-31 49 -54 117 -62 186
c-20 155 11 316 84 399c37 42 93 74 171 78z" />
    <glyph glyph-name="H" unicode="H" horiz-adv-x="555" 
d="M77 750c17 3 107 6 119 -5c9 -10 6 -48 6 -67v-147c0 -20 -4 -55 7 -66c12 -12 46 -7 68 -7s59 -2 68 7c10 9 7 48 7 66v146c0 22 -3 56 6 67c10 11 39 7 67 7c26 0 61 4 71 -7c11 -13 6 -67 6 -89v-563c0 -27 4 -75 -7 -87c-10 -10 -47 -7 -68 -7c-22 0 -57 -4 -68 7
c-12 12 -7 44 -7 73v159c0 25 4 63 -7 73c-11 11 -43 7 -68 7c-26 0 -56 5 -68 -7c-10 -10 -7 -52 -7 -73v-159c0 -21 6 -60 -6 -73c-10 -10 -46 -7 -68 -7c-21 0 -57 -4 -68 7s-7 61 -7 88v608c0 29 -2 46 24 49z" />
    <glyph glyph-name="I" unicode="I" horiz-adv-x="254" 
d="M79 753c19 2 103 7 116 -6c11 -11 7 -59 7 -88v-564c0 -28 5 -79 -8 -90c-12 -11 -42 -6 -67 -6c-24 0 -56 -3 -66 7c-11 11 -7 59 -7 87v470v141c0 29 -1 46 25 49z" />
    <glyph glyph-name="J" unicode="J" horiz-adv-x="389" 
d="M217 753c19 3 105 6 117 -7c9 -10 6 -45 6 -69v-374c0 -52 1 -101 -6 -143c-15 -83 -61 -141 -132 -167c-32 -12 -84 -18 -128 -4c-19 6 -34 13 -51 24c-11 7 -35 21 -36 38c-1 13 9 21 16 28c14 16 25 31 40 48c6 7 16 18 26 18c11 0 21 -13 26 -17
c12 -11 23 -17 42 -15c45 6 54 65 55 118c1 147 0 284 0 433c0 35 -9 88 23 89h2z" />
    <glyph glyph-name="K" unicode="K" horiz-adv-x="513" 
d="M210 461c12 4 16 19 21 30c25 62 45 124 69 189c7 20 17 59 34 68c15 7 43 3 71 3c22 0 58 6 64 -9c5 -12 -6 -31 -12 -45c-34 -85 -64 -163 -99 -249c-5 -13 -13 -30 -13 -43c-1 -16 10 -37 16 -52c38 -100 73 -192 113 -293c5 -13 19 -39 13 -52
c-6 -14 -46 -10 -69 -10s-59 -4 -73 5c-10 6 -16 24 -21 38c-30 87 -58 173 -91 259c-5 13 -10 28 -22 36c-13 -20 -9 -50 -9 -78v-173c0 -24 4 -69 -7 -80c-10 -10 -42 -7 -67 -7c-26 0 -60 -3 -70 8c-11 13 -6 62 -6 89v559c0 27 -5 76 5 89c12 15 50 8 81 8
c21 0 48 3 57 -6c10 -11 7 -45 7 -68v-150c0 -23 -3 -48 8 -66z" />
    <glyph glyph-name="L" unicode="L" horiz-adv-x="410" 
d="M79 753c11 1 37 1 62 1c19 0 45 2 54 -7c10 -10 7 -46 7 -72v-469c0 -23 -4 -60 7 -71c14 -14 67 -7 97 -7h52c17 0 37 1 45 -7c9 -9 7 -38 7 -58c0 -23 3 -46 -7 -57c-13 -12 -58 -7 -83 -7h-179c-26 0 -70 -5 -81 8c-11 12 -6 61 -6 88v611c0 30 -1 44 25 47z" />
    <glyph glyph-name="M" unicode="M" horiz-adv-x="836" 
d="M614 431c-19 -8 -22 -32 -28 -49c-41 -112 -80 -224 -121 -338c-6 -17 -14 -43 -26 -50c-8 -5 -28 -7 -39 -1c-12 7 -20 32 -26 50c-38 114 -77 223 -117 339c-5 14 -14 50 -26 49c-11 -1 -14 -33 -16 -47c-17 -112 -31 -217 -47 -331c-3 -18 -6 -41 -14 -48
c-12 -10 -45 -6 -69 -6c-20 0 -57 -5 -66 8c-6 9 -2 30 1 47c37 224 74 443 110 669c4 28 5 48 32 51c17 2 60 4 75 -4c13 -7 21 -36 28 -54c46 -123 88 -236 134 -358c6 -16 15 -53 29 -53s23 36 29 52c44 122 85 238 128 358c7 19 13 46 27 54c17 10 83 9 96 -2
c12 -12 15 -63 19 -91c31 -208 60 -414 91 -623c3 -18 7 -37 0 -46c-11 -13 -44 -8 -68 -8c-25 0 -57 -4 -68 7c-9 8 -10 31 -12 50c-14 109 -27 216 -42 328c-2 18 -4 36 -14 47z" />
    <glyph glyph-name="N" unicode="N" horiz-adv-x="759" 
d="M80 773c11 1 58 4 75 -2c19 -6 41 -40 54 -58c104 -140 205 -277 312 -416c14 -18 36 -43 39 -2c2 29 0 64 0 91v304c0 20 -2 48 7 57c12 11 45 7 67 7c24 0 60 4 69 -9c11 -16 5 -64 5 -91v-573c0 -28 4 -77 -6 -89c-11 -12 -73 -12 -94 -5c-22 8 -39 40 -53 59
c-105 139 -205 275 -313 415c-7 10 -20 28 -30 25c-11 -3 -9 -34 -9 -53v-371c0 -23 2 -48 -8 -57c-11 -10 -46 -6 -66 -6c-21 0 -54 -4 -66 6c-12 11 -8 59 -8 89v578c0 31 -5 76 5 91c4 6 7 8 20 10z" />
    <glyph glyph-name="O" unicode="O" horiz-adv-x="782" 
d="M367 773c125 7 221 -39 284 -101s106 -155 112 -273c6 -125 -32 -224 -90 -293c-57 -68 -142 -121 -259 -126c-124 -6 -220 39 -283 100c-66 64 -105 152 -113 272c-8 125 35 227 89 294c41 51 100 93 175 114c26 7 57 11 85 13zM286 600c-70 -41 -123 -124 -115 -236
c10 -139 82 -243 233 -238c69 2 121 36 154 81c33 44 56 108 53 182c-3 71 -30 131 -65 170c-37 41 -96 73 -168 68c-35 -2 -66 -12 -92 -27z" />
    <glyph glyph-name="P" unicode="P" horiz-adv-x="487" 
d="M215 753c75 3 144 -16 185 -54c39 -36 67 -87 64 -174c-4 -130 -77 -205 -202 -215c-17 -2 -44 0 -52 -7c-11 -10 -7 -47 -7 -71v-154c0 -31 4 -63 -8 -73c-15 -11 -42 -5 -69 -5c-20 0 -57 -4 -67 7c-10 12 -6 61 -6 89v468v93c0 31 -4 80 8 90s50 6 73 6
c30 0 60 -1 81 0zM203 579v-99c0 -18 0 -36 8 -42c15 -12 46 -1 58 5c31 14 46 50 46 89c0 50 -23 92 -72 96c-7 1 -19 0 -22 -1c-21 -4 -18 -27 -18 -48z" />
    <glyph glyph-name="Q" unicode="Q" horiz-adv-x="782" 
d="M370 773c180 10 301 -96 355 -216c15 -32 27 -68 33 -110c18 -114 -8 -218 -51 -294c-8 -14 -23 -34 -23 -48c1 -20 27 -42 40 -57c7 -7 14 -17 22 -27c6 -7 20 -20 16 -32c-4 -13 -43 -12 -59 -14c-27 -3 -42 -8 -66 -4c-28 5 -34 46 -61 50c-14 2 -28 -9 -41 -14
c-38 -16 -86 -26 -136 -28c-69 -3 -128 15 -177 41c-93 50 -160 130 -191 245c-16 60 -19 131 -6 197c24 117 87 206 176 260c22 13 47 24 75 34c28 9 60 15 94 17zM287 604c-26 -16 -44 -35 -61 -57c-33 -44 -57 -107 -56 -180c2 -79 26 -133 62 -174
c35 -40 91 -75 166 -70c22 2 56 10 58 27c2 15 -13 26 -21 35l-52 61c-6 8 -24 22 -22 35c3 17 46 14 62 15c24 2 52 8 71 2c16 -5 25 -20 34 -30c8 -9 19 -29 36 -28s27 32 33 51c8 23 11 47 13 71c5 59 -11 107 -27 139c-34 68 -102 138 -205 131c-36 -3 -66 -13 -91 -28z
" />
    <glyph glyph-name="R" unicode="R" horiz-adv-x="530" 
d="M481 8c-12 -12 -42 -8 -69 -8c-26 0 -56 -4 -72 5c-18 10 -26 48 -35 71c-24 66 -46 129 -72 194c-5 11 -11 25 -22 31c-12 -16 -9 -43 -9 -69v-154c0 -23 4 -64 -7 -73c-14 -10 -45 -5 -68 -5c-21 0 -56 -5 -67 6c-12 12 -7 59 -7 87v560c0 26 -5 73 4 89
c10 17 51 11 78 11c56 0 116 1 163 -7c66 -12 112 -42 140 -87c27 -45 38 -120 21 -187c-12 -47 -33 -79 -64 -106c-9 -8 -26 -19 -27 -29c-3 -14 7 -31 12 -44c31 -81 61 -161 92 -241c4 -13 13 -26 9 -44zM202 576v-50c0 -25 -5 -80 8 -91c15 -13 50 -3 63 4
c26 12 45 45 48 82c4 66 -29 114 -94 107c-27 -3 -25 -24 -25 -52z" />
    <glyph glyph-name="S" unicode="S" horiz-adv-x="526" 
d="M258 773c63 4 131 -20 175 -47c14 -8 36 -20 37 -37c2 -19 -16 -35 -26 -49c-7 -11 -18 -38 -35 -40s-29 20 -47 31c-17 10 -48 20 -80 16c-34 -5 -57 -24 -69 -48c-6 -13 -10 -38 -4 -56c15 -43 66 -60 107 -78c88 -38 168 -77 184 -185c17 -118 -31 -215 -102 -261
c-39 -26 -85 -40 -144 -40c-86 0 -145 40 -189 88c-11 12 -36 38 -35 57s23 34 36 47c6 6 14 12 22 20c6 5 13 17 25 16s20 -18 26 -28c20 -30 53 -59 93 -66c68 -13 112 36 117 92c7 82 -55 106 -110 128c-83 33 -166 72 -184 173c-13 76 12 143 45 185c17 21 36 39 64 55
c26 15 56 25 94 27z" />
    <glyph glyph-name="T" unicode="T" horiz-adv-x="414" 
d="M39 752c22 3 60 1 91 1h178c25 0 76 4 85 -8s6 -38 6 -63c0 -24 3 -52 -7 -62c-20 -21 -81 6 -103 -13c-12 -10 -8 -47 -8 -70v-461c0 -28 4 -59 -7 -70s-42 -6 -68 -6c-22 0 -57 -5 -68 6c-10 11 -6 45 -6 70v461c0 22 4 57 -7 69c-20 20 -84 -6 -103 14
c-10 9 -7 37 -7 61c0 38 -7 67 24 71z" />
    <glyph glyph-name="U" unicode="U" horiz-adv-x="660" 
d="M75 753c12 2 39 1 62 1c20 0 45 2 54 -7c13 -13 7 -67 7 -91v-291c0 -67 1 -129 19 -176c17 -45 48 -80 114 -80c127 1 132 129 132 257v340c0 16 -1 33 7 41c10 10 39 7 65 7c23 0 57 4 69 -7c9 -10 7 -39 7 -59v-198c0 -88 6 -177 -4 -259
c-20 -157 -111 -250 -275 -252c-174 -2 -256 100 -277 250c-11 79 -5 168 -5 258v198c0 34 -7 64 25 68z" />
    <glyph glyph-name="V" unicode="V" horiz-adv-x="639" 
d="M15 753c14 2 40 1 65 1c19 0 45 2 58 -5c14 -8 21 -34 29 -55c45 -125 84 -241 130 -368c5 -14 15 -54 29 -54c13 0 24 43 28 54c39 126 79 244 121 368c7 22 11 46 26 55c17 10 49 5 74 5c28 0 63 5 69 -10c5 -13 -8 -38 -13 -51c-82 -223 -168 -444 -252 -667
c-7 -18 -14 -36 -23 -42c-14 -9 -64 -8 -77 0c-10 6 -17 26 -23 43c-85 225 -165 439 -247 665c-8 22 -30 56 6 61z" />
    <glyph glyph-name="W" unicode="W" horiz-adv-x="793" 
d="M242 316c11 13 13 33 17 51c21 110 44 218 68 330c4 19 7 44 18 51c11 6 33 5 53 5c21 0 41 2 52 -5c11 -8 14 -33 18 -52c22 -117 40 -231 64 -348c3 -17 5 -37 17 -50c13 12 11 34 14 53c14 115 37 229 55 343c4 22 5 45 17 54c13 9 46 5 72 5c25 0 60 5 69 -8
c6 -9 0 -32 -3 -48c-41 -204 -82 -402 -126 -606c-5 -26 -10 -78 -27 -87c-15 -9 -98 -8 -112 1c-14 8 -15 29 -20 54c-24 124 -50 241 -70 368c-3 19 -3 42 -17 56c-14 -15 -15 -37 -19 -57c-24 -123 -51 -242 -78 -368c-5 -20 -9 -46 -21 -53c-11 -8 -36 -5 -57 -5
c-24 0 -44 -4 -58 5c-17 10 -22 59 -27 84c-41 204 -80 402 -121 605c-6 28 -17 55 15 59c19 2 40 0 63 0c19 0 46 1 56 -5c10 -7 13 -31 16 -49c20 -112 42 -220 59 -332c2 -18 3 -37 13 -51z" />
    <glyph glyph-name="X" unicode="X" horiz-adv-x="623" 
d="M619 9c-15 -15 -45 -10 -73 -10c-29 0 -65 -4 -81 4c-18 9 -30 41 -41 62c-32 58 -59 105 -91 164c-6 11 -13 27 -24 27s-18 -16 -24 -27c-30 -56 -56 -108 -86 -165c-10 -20 -24 -55 -41 -62c-18 -7 -49 -3 -80 -3c-25 0 -66 -6 -72 10s14 38 23 52
c60 97 113 188 173 287c8 13 25 34 25 51c0 14 -13 33 -20 46c-49 85 -96 165 -145 251c-11 20 -36 54 1 58c24 3 43 0 71 0c22 0 52 3 66 -4c13 -6 23 -32 33 -51c24 -45 45 -90 71 -137c4 -7 11 -21 20 -21c16 0 26 36 32 49c19 40 33 69 52 110c9 19 18 43 33 50
c21 10 89 5 122 4c14 0 28 -1 32 -9c6 -14 -12 -35 -19 -47l-149 -253c-7 -13 -21 -31 -21 -46s15 -37 24 -52c56 -96 111 -190 166 -286c9 -15 23 -30 23 -52z" />
    <glyph glyph-name="Y" unicode="Y" horiz-adv-x="514" 
d="M30 752c18 2 42 1 66 1c19 0 48 2 62 -4c14 -7 20 -30 28 -49c15 -39 26 -70 42 -111c4 -13 14 -48 26 -49c13 -1 22 39 26 49c14 40 25 70 40 111c5 15 10 41 26 49c17 8 50 4 78 4c18 0 65 6 72 -10c5 -13 -11 -40 -16 -51c-43 -93 -83 -186 -126 -281
c-7 -16 -16 -32 -21 -48c-6 -25 -2 -57 -2 -89v-185c0 -25 4 -73 -8 -84c-11 -9 -42 -5 -67 -5c-24 0 -57 -3 -66 5c-13 12 -8 65 -8 86v186c0 33 2 67 -4 88c-5 15 -13 32 -20 48c-43 94 -86 182 -130 278c-8 18 -31 55 0 61h2z" />
    <glyph glyph-name="Z" unicode="Z" horiz-adv-x="508" 
d="M74 752c27 3 68 1 105 1h207c27 0 87 6 95 -9c5 -10 -4 -28 -9 -40c-74 -174 -143 -340 -216 -514c-5 -12 -14 -28 -10 -39c4 -12 24 -10 48 -10h119c20 0 43 1 51 -7c10 -10 7 -41 7 -63c0 -26 3 -56 -8 -66c-14 -12 -81 -5 -107 -5h-281c-19 0 -42 -2 -47 8s4 28 9 40
c71 174 138 340 209 513c5 12 15 27 11 40c-5 18 -71 12 -97 12h-54c-19 0 -42 -3 -51 7c-8 10 -6 46 -6 62c0 15 -4 50 5 62c4 6 11 6 20 8z" />
    <glyph glyph-name="bracketleft" unicode="[" horiz-adv-x="288" 
d="M69 844c21 3 57 1 89 1c29 0 68 5 79 -8c10 -12 11 -65 -1 -77c-14 -14 -65 0 -78 -14c-12 -13 -7 -58 -7 -87v-564c0 -28 -4 -75 6 -87c15 -17 60 2 78 -14c12 -10 12 -68 0 -79c-13 -12 -63 -6 -92 -6h-49c-18 0 -37 -1 -44 8c-12 16 -6 77 -6 111v755
c0 37 -4 57 25 61z" />
    <glyph glyph-name="backslash" unicode="\" horiz-adv-x="539" 
d="M60 847c14 2 60 5 76 -2c15 -6 21 -28 29 -47c104 -243 211 -487 318 -732c7 -15 23 -42 17 -56c-5 -14 -79 -14 -96 -6c-11 6 -19 27 -28 47c-108 243 -209 485 -317 731c-10 23 -35 60 1 65z" />
    <glyph glyph-name="bracketright" unicode="]" horiz-adv-x="288" 
d="M69 844c21 3 57 1 87 1c25 0 67 5 79 -7c14 -13 7 -85 7 -110v-702c0 -32 6 -97 -7 -110s-66 -7 -92 -7c-23 0 -78 -7 -92 7c-11 12 -10 65 -1 76c13 15 64 -1 79 15c12 12 7 59 7 87v564c0 27 4 75 -6 87c-16 19 -60 -1 -78 14c-12 11 -11 62 -3 75c5 7 8 8 20 10z" />
    <glyph glyph-name="asciicircum" unicode="^" 
d="M246 753c16 2 78 5 97 -3c13 -6 23 -26 31 -45c49 -107 92 -202 141 -310c8 -16 23 -40 19 -54c-5 -16 -32 -12 -52 -12c-19 0 -45 -2 -59 4c-18 8 -27 40 -37 61c-26 57 -47 110 -75 169c-4 8 -12 26 -22 26c-9 0 -17 -17 -22 -27c-25 -57 -50 -111 -75 -167
c-9 -20 -18 -54 -35 -62c-12 -6 -34 -4 -60 -4c-18 0 -47 -4 -53 10c-5 14 12 41 18 55c46 102 93 206 140 309c11 23 16 46 44 50z" />
    <glyph glyph-name="underscore" unicode="_" horiz-adv-x="500" 
d="M-7 -71c25 3 61 1 91 1h353c24 0 76 4 85 -8c11 -15 9 -76 -1 -86c-12 -11 -59 -7 -86 -7h-377c-26 0 -73 -5 -84 8c-9 10 -12 70 -1 84c4 5 11 7 20 8z" />
    <glyph glyph-name="quoteleft" unicode="&#x2018;" horiz-adv-x="296" 
d="M190 771c18 2 62 -1 68 -17c3 -11 -3 -26 -8 -40l-66 -184c-8 -22 -15 -60 -33 -67c-14 -6 -39 1 -60 3s-47 1 -51 16c-3 10 6 28 12 40c28 60 59 121 87 180c11 24 22 66 51 69z" />
    <glyph glyph-name="a" unicode="a" horiz-adv-x="528" 
d="M203 750c15 2 43 1 68 1c21 0 49 4 61 -4c17 -11 23 -60 30 -88c48 -202 96 -402 145 -606c5 -17 10 -38 3 -47c-9 -13 -45 -8 -68 -8c-30 0 -62 -4 -76 5c-12 9 -14 36 -19 58c-4 20 -9 50 -20 59c-13 9 -44 6 -65 6c-29 0 -53 4 -70 -4c-15 -8 -18 -39 -23 -58
c-5 -24 -8 -52 -20 -61c-15 -9 -45 -5 -68 -5s-57 -3 -65 8c-7 9 0 31 4 48c51 214 102 433 150 647c7 28 6 46 33 49zM237 439c-6 -41 -12 -81 -19 -124c-3 -17 -12 -50 -4 -62s27 -9 44 -9s38 -1 44 9c8 12 -2 48 -5 65c-8 38 -17 84 -25 124c-3 20 -6 56 -18 58
c-10 -13 -13 -40 -17 -61z" />
    <glyph glyph-name="b" unicode="b" horiz-adv-x="553" 
d="M79 753c24 3 60 1 90 1s61 1 88 0c114 -5 185 -50 202 -150c11 -59 1 -129 -30 -172c-4 -6 -12 -14 -12 -23c1 -14 25 -21 35 -28c57 -39 91 -132 68 -228c-23 -99 -101 -146 -219 -153c-54 -3 -122 -1 -185 -1c-20 0 -46 -2 -55 7c-11 11 -7 59 -7 87v470v141
c0 32 1 46 25 49zM202 544c0 -27 -6 -86 8 -98c18 -15 67 1 79 8c37 21 50 95 24 141c-13 24 -51 46 -92 38c-27 -6 -19 -52 -19 -89zM202 272v-51c0 -26 -5 -83 7 -96c13 -13 47 -7 68 -5c23 2 46 8 60 17c47 28 56 120 17 159c-20 20 -74 38 -128 30
c-27 -4 -24 -27 -24 -54z" />
    <glyph glyph-name="c" unicode="c" horiz-adv-x="452" 
d="M345 760c19 1 66 -1 77 -17c8 -13 6 -40 6 -63c0 -22 4 -53 -8 -62c-8 -6 -25 -3 -41 -2c-104 7 -162 -66 -183 -149c-30 -116 5 -239 73 -295c30 -25 58 -39 107 -37c12 1 32 8 43 1c12 -6 9 -36 9 -61c0 -24 3 -56 -6 -68c-12 -16 -50 -17 -77 -15
c-90 4 -151 38 -199 82c-59 55 -106 144 -118 257c-13 123 23 224 74 296c48 69 128 131 243 133z" />
    <glyph glyph-name="d" unicode="d" horiz-adv-x="646" 
d="M79 753c35 4 82 1 119 1c41 0 80 1 114 -3c71 -8 127 -33 170 -65c83 -60 154 -169 147 -323c-6 -145 -70 -246 -164 -306c-45 -29 -103 -53 -178 -57c-55 -3 -112 -1 -175 -1c-20 0 -42 -1 -51 7c-11 11 -7 59 -7 87v608c0 29 -2 48 25 52zM202 560v-62v-248
c0 -27 -7 -103 8 -116c10 -8 37 -6 55 -4c137 14 205 92 211 234c6 128 -46 211 -137 244c-28 10 -75 21 -112 16c-31 -4 -25 -30 -25 -64z" />
    <glyph glyph-name="e" unicode="e" horiz-adv-x="392" 
d="M77 750c30 4 91 1 138 1h69c22 0 53 3 62 -6c10 -11 6 -42 6 -64c0 -20 4 -52 -6 -63c-11 -11 -44 -6 -68 -6c-23 0 -61 3 -70 -8c-11 -15 -6 -45 -6 -75c0 -23 -4 -63 7 -74c17 -17 103 5 120 -14c10 -12 6 -48 6 -64c0 -20 3 -52 -7 -62c-18 -18 -98 5 -118 -12
c-14 -12 -8 -56 -8 -78c0 -21 -5 -71 9 -81c23 -15 119 9 138 -12c10 -12 5 -44 5 -65s4 -52 -6 -62s-47 -7 -69 -7h-150c-21 0 -59 -2 -69 6c-12 11 -8 59 -8 87v282v281c0 24 -5 76 5 89c5 6 13 7 20 7z" />
    <glyph glyph-name="f" unicode="f" horiz-adv-x="394" 
d="M77 750c39 5 90 1 139 1h69c22 0 53 3 62 -6c10 -10 7 -38 7 -64c0 -23 4 -52 -7 -63c-10 -10 -50 -6 -68 -6c-21 0 -62 4 -71 -8c-12 -16 -5 -49 -5 -73c0 -25 -5 -60 5 -72c11 -12 46 -8 63 -8s51 4 62 -8c9 -10 6 -44 6 -64c0 -24 2 -53 -8 -62c-11 -10 -41 -6 -60 -6
c-20 0 -54 4 -63 -7c-9 -13 -5 -45 -5 -73v-157c0 -27 2 -61 -8 -70c-12 -10 -41 -6 -66 -6c-24 0 -59 -3 -69 7c-12 12 -7 58 -7 88v280v328c0 30 -2 46 24 49z" />
    <glyph glyph-name="g" unicode="g" horiz-adv-x="739" 
d="M364 773c136 7 234 -52 292 -132c7 -11 20 -27 19 -41c-2 -20 -33 -29 -52 -39l-30 -16c-10 -5 -21 -14 -32 -13c-13 1 -20 14 -26 24c-30 44 -83 90 -159 87c-88 -3 -142 -59 -173 -122c-21 -43 -36 -99 -32 -162c3 -62 19 -111 45 -152c34 -53 99 -113 197 -93
c52 10 88 41 114 82c9 14 33 57 20 75c-10 13 -48 9 -73 9c-28 0 -64 -4 -74 8c-8 9 -6 32 -6 54c0 16 -3 43 7 52c11 11 50 7 74 7h162c29 0 67 3 77 -8c10 -12 5 -45 4 -63c-14 -148 -77 -260 -181 -314c-46 -24 -106 -40 -175 -36c-111 6 -184 49 -241 111
c-47 51 -78 115 -94 189c-18 82 -9 178 16 247c41 115 126 208 257 238c21 5 43 7 64 8z" />
    <glyph glyph-name="h" unicode="h" horiz-adv-x="674" 
d="M79 753c18 2 38 1 62 1c18 0 45 3 54 -7c11 -11 7 -49 7 -67v-148c0 -22 -3 -60 8 -69c12 -9 40 -6 61 -6h132c27 0 54 -2 63 7c11 10 7 45 7 68v148c0 20 -3 56 7 67c11 11 43 7 67 7c22 0 56 4 67 -7c14 -14 7 -66 7 -88v-566c0 -28 6 -80 -9 -89c-12 -8 -41 -5 -66 -5
c-27 0 -57 -4 -67 8s-6 54 -6 78v168c0 25 5 65 -7 76c-9 10 -40 7 -61 7h-134c-17 0 -50 3 -61 -6c-12 -11 -8 -50 -8 -77v-170c0 -24 6 -65 -7 -77c-11 -11 -42 -7 -68 -7c-24 0 -55 -5 -67 8c-10 12 -6 64 -6 88v609c0 30 -1 45 25 49z" />
    <glyph glyph-name="i" unicode="i" horiz-adv-x="255" 
d="M77 750c10 2 39 1 63 1c20 0 46 3 56 -6c11 -12 6 -61 6 -88v-282v-281c0 -27 5 -76 -5 -88c-12 -13 -41 -8 -68 -8c-23 0 -59 -3 -69 7c-11 11 -7 61 -7 88v469v141c0 28 -1 44 24 47z" />
    <glyph glyph-name="j" unicode="j" horiz-adv-x="352" 
d="M20 138c16 3 31 -11 43 -15c33 -11 65 0 78 21c18 29 14 89 14 140v387c0 39 -8 77 26 80c16 2 39 0 62 0c20 0 46 3 55 -6c13 -13 7 -65 7 -95v-302c0 -69 4 -138 -5 -196c-14 -99 -65 -163 -175 -165c-21 -1 -44 2 -63 6c-18 3 -39 10 -45 23c-7 14 -4 41 -4 63
c0 23 -4 46 7 59z" />
    <glyph glyph-name="k" unicode="k" horiz-adv-x="620" 
d="M79 753c11 1 37 1 61 1c20 0 48 3 56 -8s6 -41 6 -69v-150c0 -21 -4 -62 9 -65c11 -3 26 21 34 31c57 76 109 148 165 225c10 14 19 29 33 33c19 5 56 3 83 3c25 0 71 5 75 -10c4 -16 -23 -38 -29 -46c-72 -86 -133 -163 -203 -247c-11 -12 -29 -31 -29 -45
c-1 -18 22 -40 32 -53c78 -106 155 -207 234 -315c6 -9 14 -18 12 -28c-5 -17 -51 -11 -79 -11c-32 0 -68 -4 -89 4c-14 5 -24 21 -34 35c-58 80 -112 159 -170 240c-9 12 -24 36 -34 34c-14 -2 -10 -50 -10 -71v-162c0 -24 4 -62 -7 -73c-13 -12 -41 -7 -67 -7
c-23 0 -56 -4 -67 7s-7 59 -7 87v564c0 26 -5 75 5 88c5 7 15 7 20 8z" />
    <glyph glyph-name="l" unicode="l" horiz-adv-x="373" 
d="M77 750c9 2 39 1 63 1c20 0 46 3 55 -6c10 -10 7 -44 7 -70v-456c0 -28 -3 -63 7 -73s37 -7 71 -7c26 0 59 5 71 -6c10 -11 7 -41 7 -66c0 -26 3 -53 -8 -63c-12 -10 -48 -6 -70 -6h-152c-23 0 -62 -3 -71 9c-9 14 -5 62 -5 89v559c0 37 -9 95 23 95h2z" />
    <glyph glyph-name="m" unicode="m" horiz-adv-x="722" 
d="M358 364c11 9 12 26 15 42c15 96 25 196 39 295c3 17 4 36 12 44c14 13 69 6 95 6c23 0 82 7 95 -6c14 -13 12 -65 15 -89c22 -203 43 -400 64 -605c2 -15 4 -37 -2 -45c-10 -12 -42 -8 -66 -8c-26 0 -59 -4 -72 5c-9 7 -11 29 -12 51c-6 99 -13 193 -19 293
c-2 39 -4 80 -15 109c-12 -13 -14 -34 -17 -52c-18 -119 -39 -231 -60 -349c-4 -20 -6 -44 -17 -52c-13 -9 -91 -7 -103 2c-10 9 -13 30 -17 50c-23 113 -45 221 -66 336c-3 18 -6 38 -17 50c-10 -12 -8 -32 -9 -49c-8 -108 -11 -223 -15 -335c-1 -20 0 -45 -10 -53
c-12 -10 -49 -6 -74 -6c-22 0 -60 -5 -71 7c-12 13 -2 67 1 92c17 203 33 399 52 604c3 30 3 47 29 50c25 3 51 0 83 0c24 0 69 5 82 -4c16 -11 20 -70 24 -93c12 -81 26 -167 40 -248c3 -15 4 -32 16 -42z" />
    <glyph glyph-name="n" unicode="n" horiz-adv-x="573" 
d="M365 366c8 11 6 27 6 43v245c0 26 -6 77 6 91c10 11 45 8 68 8c22 0 58 4 69 -7c12 -12 7 -62 7 -88v-565c0 -27 5 -75 -7 -87c-11 -11 -39 -6 -62 -6s-50 -4 -65 3c-13 5 -20 26 -27 44c-41 104 -81 204 -125 307c-6 16 -11 36 -27 45c-9 -11 -6 -29 -6 -45v-303
c0 -17 2 -39 -7 -46c-13 -9 -43 -5 -68 -5c-24 0 -57 -4 -68 6c-11 12 -6 60 -6 88v561c0 27 -6 75 5 89c11 15 51 9 78 9c19 0 43 2 55 -4c12 -7 18 -28 25 -45c40 -100 80 -197 121 -296c7 -16 13 -35 28 -42z" />
    <glyph glyph-name="o" unicode="o" horiz-adv-x="582" 
d="M288 764c101 2 167 -54 207 -119c40 -67 61 -162 61 -265c0 -111 -18 -199 -58 -269c-40 -69 -106 -119 -202 -123c-97 -4 -170 53 -208 119c-59 98 -80 269 -48 414c19 89 56 161 122 205c32 22 74 38 126 38zM221 577c-50 -89 -48 -321 4 -406c6 -11 17 -24 26 -30
c20 -15 50 -16 70 -6c43 21 59 81 68 139c16 108 9 258 -38 319c-13 18 -38 35 -67 31c-32 -3 -50 -23 -63 -47z" />
    <glyph glyph-name="p" unicode="p" horiz-adv-x="528" 
d="M80 753c22 3 54 1 78 1c74 0 156 2 213 -15c79 -24 127 -76 142 -163c17 -104 -12 -188 -61 -236c-42 -40 -92 -56 -169 -59c-22 -1 -61 6 -73 -7c-10 -10 -7 -42 -7 -64v-141c0 -22 2 -53 -7 -63c-12 -12 -42 -7 -67 -7c-22 0 -57 -4 -67 7c-11 11 -7 59 -7 88v282v329
c0 30 0 45 25 48zM208 622c-8 -10 -5 -38 -5 -50v-56c0 -27 -7 -92 7 -105c10 -10 39 -7 59 -5c18 2 40 7 54 15c41 25 57 107 31 161c-18 35 -70 55 -126 48c-9 -1 -16 -2 -20 -8z" />
    <glyph glyph-name="q" unicode="q" horiz-adv-x="582" 
d="M289 764c147 1 224 -111 251 -231c26 -113 21 -276 -16 -374c-6 -15 -17 -32 -16 -45c1 -15 16 -27 23 -35c11 -10 24 -19 25 -33c0 -16 -20 -29 -30 -38c-10 -10 -22 -28 -38 -28c-13 0 -24 16 -31 23c-8 8 -17 21 -30 22c-10 1 -24 -9 -33 -14
c-30 -15 -66 -26 -114 -23c-52 3 -98 21 -134 51c-97 79 -135 248 -114 428c13 109 48 197 118 251c35 26 82 46 139 46zM203 531c-28 -101 -24 -281 20 -358c11 -18 26 -35 47 -42c19 -6 42 -3 44 11c1 10 -9 18 -15 25c-6 6 -11 13 -18 20c-10 10 -34 27 -33 45
c0 16 17 27 28 38c9 9 23 28 40 27c13 -1 22 -14 31 -23c8 -9 17 -26 31 -24c17 3 17 59 18 85c5 103 -4 209 -47 261c-14 17 -39 32 -65 28c-47 -6 -70 -53 -81 -93z" />
    <glyph glyph-name="r" unicode="r" horiz-adv-x="558" 
d="M79 753c38 5 86 1 128 1c43 0 85 0 120 -6c105 -19 169 -83 178 -202c7 -99 -38 -177 -102 -211c-12 -6 -36 -13 -38 -25c-3 -14 13 -30 20 -41c49 -75 95 -142 147 -219c7 -11 21 -28 18 -40c-5 -17 -50 -11 -75 -11c-33 0 -68 -2 -83 4c-19 8 -37 45 -48 65l-106 176
c-6 9 -17 31 -27 29c-13 -3 -9 -44 -9 -62v-142c0 -23 2 -53 -7 -63c-12 -12 -43 -7 -67 -7c-25 0 -57 -3 -67 7c-11 11 -7 63 -7 87v282v329c0 33 0 46 25 49zM202 573v-56c0 -27 -7 -92 8 -104c13 -11 41 -4 59 -1c19 4 37 10 50 19c43 31 53 128 13 170
c-19 19 -67 36 -105 31c-30 -4 -25 -29 -25 -59z" />
    <glyph glyph-name="s" unicode="s" horiz-adv-x="440" 
d="M231 764c19 0 51 -3 75 -10c21 -7 47 -15 54 -31c7 -14 4 -39 4 -65c0 -17 5 -53 -8 -59c-14 -6 -38 16 -50 21c-19 7 -58 14 -83 3c-15 -6 -30 -21 -35 -34c-18 -49 14 -95 40 -118c60 -54 142 -89 170 -180c11 -36 13 -83 5 -125c-14 -76 -58 -135 -119 -161
c-31 -12 -70 -21 -121 -15c-30 4 -86 15 -97 42c-6 14 -3 40 -3 64c0 19 -4 53 9 58c12 5 34 -10 46 -14c14 -5 32 -11 53 -11c40 -1 68 17 82 44c9 20 10 53 0 74c-12 25 -36 43 -59 59c-69 47 -139 93 -155 192c-12 73 7 145 37 188c32 46 82 78 155 78z" />
    <glyph glyph-name="t" unicode="t" horiz-adv-x="451" 
d="M24 753c29 4 72 1 108 1h213c28 0 86 6 99 -7c10 -10 7 -36 7 -58c0 -20 3 -47 -7 -57c-12 -12 -47 -7 -69 -7s-57 5 -69 -7c-11 -11 -7 -47 -7 -72v-469c0 -25 3 -61 -7 -71s-38 -7 -67 -7c-25 0 -56 -4 -67 7c-10 10 -7 46 -7 71v468c0 24 3 65 -8 74
c-13 10 -42 6 -69 6c-25 0 -57 -4 -68 7c-10 10 -13 94 -3 111c4 7 10 9 21 10z" />
    <glyph glyph-name="u" unicode="u" horiz-adv-x="544" 
d="M73 752c13 1 39 1 62 1c20 0 50 2 58 -8c9 -13 5 -49 5 -70v-376c0 -71 -6 -153 49 -171c40 -13 75 4 87 30c16 31 11 94 11 141v379c0 23 -4 57 7 68s45 7 68 7c24 0 57 4 68 -7c9 -10 7 -39 7 -56v-431c0 -92 0 -156 -41 -206c-37 -44 -100 -65 -181 -65
c-124 0 -199 49 -218 152c-7 33 -6 71 -6 116v432c0 32 -6 60 24 64z" />
    <glyph glyph-name="v" unicode="v" horiz-adv-x="565" 
d="M286 312c13 13 13 34 17 52c20 95 47 185 70 279c4 15 8 35 14 56c4 19 9 42 20 49c13 8 47 5 75 5c24 0 62 4 68 -11c5 -12 -5 -35 -9 -49c-59 -214 -119 -431 -179 -646c-5 -18 -9 -36 -19 -42c-11 -7 -36 -5 -54 -5c-19 0 -45 -2 -56 4c-17 9 -27 64 -33 86
c-60 205 -114 397 -174 603c-7 25 -22 56 11 60c22 2 45 0 66 0c20 0 49 2 60 -5s15 -33 20 -51c28 -113 56 -224 84 -335c5 -18 5 -39 19 -50z" />
    <glyph glyph-name="w" unicode="w" horiz-adv-x="977" 
d="M465 763c13 2 46 4 59 -3c14 -7 18 -33 25 -57c38 -126 73 -247 112 -376c5 -18 12 -54 25 -56s22 40 26 52c37 127 70 246 107 372c6 20 12 48 24 55c18 10 48 4 73 4c32 0 60 5 66 -11c5 -11 -6 -36 -11 -51c-73 -220 -145 -441 -220 -663c-5 -16 -12 -35 -22 -41
c-14 -8 -80 -8 -95 0c-12 7 -18 33 -24 53c-38 123 -69 229 -108 354c-3 10 -11 51 -24 52c-15 1 -20 -34 -25 -51l-102 -354c-6 -19 -13 -46 -23 -53c-11 -7 -81 -9 -96 -1c-11 6 -15 25 -21 42c-70 222 -139 443 -208 665c-4 14 -14 38 -8 50c8 14 39 9 66 9s60 3 73 -5
c14 -8 19 -37 24 -56c37 -124 71 -243 109 -368c4 -13 12 -54 25 -54s21 38 26 55c38 127 71 247 107 374c7 25 9 59 40 63z" />
    <glyph glyph-name="x" unicode="x" horiz-adv-x="545" 
d="M52 752c14 1 42 1 69 1c23 0 51 2 64 -4c12 -6 19 -27 25 -42c14 -33 24 -59 37 -95c5 -13 11 -44 22 -44s20 35 24 45c12 37 22 61 38 96c7 17 13 35 26 41c15 6 47 3 75 3c18 0 61 5 68 -9c6 -14 -8 -34 -14 -48c-40 -89 -75 -172 -115 -261c-6 -14 -17 -32 -16 -48
c1 -17 11 -33 18 -49c42 -93 82 -184 124 -279c6 -14 20 -37 15 -50c-6 -16 -55 -9 -75 -9c-32 0 -67 -4 -81 4c-12 6 -19 27 -26 45c-18 45 -31 81 -48 130c-4 12 -8 21 -14 22c-11 0 -19 -35 -23 -47c-11 -39 -21 -66 -35 -103c-7 -18 -13 -41 -26 -47
c-17 -9 -51 -4 -79 -4c-21 0 -66 -7 -73 9c-5 12 9 38 14 51c38 93 76 184 115 279c6 15 17 32 16 50s-10 32 -16 46c-39 88 -77 172 -114 259c-11 26 -28 53 5 58z" />
    <glyph glyph-name="y" unicode="y" horiz-adv-x="587" 
d="M15 753c19 2 43 1 69 1c23 0 52 3 66 -4c15 -7 27 -40 36 -58c22 -44 41 -79 63 -124c8 -15 21 -55 37 -56c12 -1 19 16 24 25c31 54 57 102 86 156c11 19 25 51 41 58c19 8 54 3 80 3c21 0 66 6 72 -10c6 -17 -16 -41 -23 -53c-58 -99 -115 -198 -172 -296
c-10 -17 -23 -35 -27 -51c-5 -22 -2 -57 -2 -85v-174c0 -22 4 -68 -7 -79c-10 -11 -40 -7 -66 -7c-25 0 -60 -4 -69 8c-8 11 -6 50 -6 77v82c0 59 4 115 0 164c-2 24 -17 46 -28 65c-56 101 -112 195 -169 294c-10 17 -42 58 -7 64h2z" />
    <glyph glyph-name="z" unicode="z" horiz-adv-x="575" 
d="M17 8c-4 16 7 29 14 42c92 173 184 348 277 523c6 12 18 30 14 41c-5 14 -40 11 -59 11h-139c-24 0 -53 -2 -62 7s-7 35 -7 55c0 36 -6 63 26 67c36 4 80 0 122 0h303c20 0 46 1 51 -9c5 -11 -8 -30 -14 -42c-94 -177 -182 -346 -277 -523c-6 -11 -17 -31 -14 -41
c5 -14 41 -11 66 -11h154c24 0 62 4 73 -7c10 -10 7 -34 7 -57c0 -22 3 -51 -8 -59s-39 -6 -62 -6h-407c-21 0 -44 -5 -58 9z" />
    <glyph glyph-name="braceleft" unicode="{" horiz-adv-x="389" 
d="M233 837c15 1 71 5 81 -7c10 -14 10 -66 -1 -77c-10 -9 -35 -6 -45 -12c-25 -13 -19 -61 -19 -103c0 -81 5 -171 -17 -226c-6 -14 -13 -26 -22 -39c-6 -8 -24 -23 -24 -36c-1 -13 16 -27 24 -37c25 -36 39 -76 39 -141v-120c0 -36 -6 -89 15 -105c10 -8 40 -5 50 -16
c9 -11 9 -65 0 -75c-13 -14 -90 -10 -108 -1c-26 13 -46 43 -56 76s-8 76 -8 123c0 89 8 175 -35 228c-12 15 -32 24 -37 39c-5 13 -5 45 -1 56c6 18 30 29 40 42c18 24 29 55 32 100c2 40 1 87 1 130c0 46 -2 89 9 122c12 37 37 75 82 79z" />
    <glyph glyph-name="bar" unicode="|" horiz-adv-x="538" 
d="M235 785c16 2 75 5 87 -6c8 -8 7 -34 7 -56v-873c0 -22 0 -48 -6 -56c-9 -11 -95 -14 -107 0c-13 15 -6 90 -6 118v806c0 34 -6 63 25 67z" />
    <glyph glyph-name="braceright" unicode="}" horiz-adv-x="389" 
d="M94 837c15 2 68 3 85 -4c35 -14 60 -58 66 -106c12 -90 -12 -199 13 -278c6 -19 15 -34 26 -47c13 -14 30 -23 35 -37c5 -13 6 -43 1 -56c-5 -17 -25 -26 -37 -40c-10 -12 -20 -28 -27 -49c-22 -74 5 -209 -14 -291c-9 -40 -35 -84 -73 -92c-18 -4 -81 -6 -93 5
c-10 10 -11 69 1 78c13 9 36 6 47 14c24 17 16 65 16 105v120c0 63 13 104 39 141c8 10 24 24 24 36c1 14 -17 29 -23 37c-24 34 -40 78 -40 138v119c0 45 5 98 -18 111c-12 7 -33 1 -45 11c-12 11 -12 65 -3 77c5 7 13 7 20 8z" />
    <glyph glyph-name="asciitilde" unicode="~" 
d="M170 381c72 10 117 -48 163 -75c14 -8 37 -22 57 -17c14 3 24 17 31 28c6 11 12 32 26 33c10 1 21 -10 27 -15c8 -7 11 -10 22 -19c13 -12 36 -28 38 -45c1 -15 -10 -31 -18 -43c-23 -35 -53 -76 -91 -91c-12 -5 -32 -8 -50 -6c-36 3 -69 26 -98 45c-12 8 -27 20 -42 29
s-35 21 -53 18c-14 -2 -24 -17 -31 -29c-8 -12 -15 -31 -27 -32c-10 -1 -21 9 -27 14c-15 13 -28 25 -43 39c-8 7 -15 12 -16 24c-2 15 11 28 19 40c24 36 51 77 88 95c8 4 17 6 25 7z" />
    <glyph glyph-name="exclamdown" unicode="&#xa1;" horiz-adv-x="325" 
d="M149 513c58 8 108 -33 102 -96c-5 -52 -63 -100 -125 -72c-29 13 -51 43 -52 80c-1 47 32 82 75 88zM116 273c12 2 37 1 59 1c17 0 45 2 53 -8c8 -11 6 -43 6 -61v-400c0 -27 2 -53 -8 -62c-14 -12 -43 -6 -64 -6c-22 0 -57 -3 -65 8c-7 10 -6 38 -6 61v332v66
c0 37 -7 65 25 69z" />
    <glyph glyph-name="cent" unicode="&#xa2;" 
d="M341 723c14 2 35 2 43 -7c13 -15 0 -49 10 -69c7 -14 25 -15 38 -19c14 -4 29 -8 36 -20c8 -13 5 -37 5 -61c0 -19 4 -53 -9 -57c-14 -4 -32 15 -40 19c-53 25 -111 3 -141 -32c-20 -24 -34 -56 -35 -97c-2 -73 43 -142 123 -142c17 0 37 5 50 11c13 5 30 22 42 19
s10 -36 10 -56c0 -23 3 -48 -4 -61c-6 -12 -22 -17 -37 -22c-10 -3 -32 -6 -39 -19c-10 -19 4 -61 -10 -75c-11 -11 -51 -9 -60 0c-14 14 -1 58 -12 75c-7 11 -30 14 -42 18c-95 30 -164 125 -164 250c0 129 66 218 163 251c14 5 36 8 43 19c15 22 -9 74 28 75h2z" />
    <glyph glyph-name="sterling" unicode="&#xa3;" 
d="M299 773c33 2 83 -2 115 -13c77 -27 121 -91 136 -183c3 -15 10 -40 1 -54c-10 -15 -42 -13 -63 -15c-16 -2 -59 -12 -71 -1c-11 11 -6 36 -9 52c-10 54 -60 108 -124 86c-50 -17 -81 -78 -71 -150c3 -24 11 -44 19 -65c8 -19 16 -44 32 -52c21 -10 103 6 122 -10
c11 -9 12 -43 1 -54c-19 -19 -77 5 -96 -14c-11 -11 -4 -43 -5 -69c-1 -14 -1 -26 -2 -36s-2 -25 2 -34c8 -18 45 -26 63 -33c20 -8 51 -22 77 -12c11 4 20 14 26 23c8 11 12 23 23 26c15 4 33 -4 49 -7c18 -4 34 -5 39 -18s-3 -28 -6 -37c-21 -56 -57 -104 -129 -110
c-88 -7 -163 57 -239 56c-27 0 -44 -11 -57 -26c-9 -10 -12 -16 -21 -18c-17 -4 -32 2 -52 5c-17 3 -37 5 -41 17c-6 19 14 51 23 64c14 22 42 53 71 65c17 7 35 7 44 20c22 31 6 117 -19 128c-17 7 -41 3 -60 3s-45 -3 -56 6s-12 44 0 55c18 15 64 -5 73 16
c3 7 -2 23 -6 33c-11 29 -21 65 -23 99c-3 54 11 97 30 133c27 51 73 91 134 111c21 7 45 11 70 13z" />
    <glyph glyph-name="fraction" unicode="&#x2044;" horiz-adv-x="179" 
d="M325 746l-404 -777l-69 35l405 776z" />
    <glyph glyph-name="yen" unicode="&#xa5;" 
d="M11 753c18 2 44 1 70 1c22 0 51 3 65 -4c15 -8 26 -38 37 -58c24 -45 42 -78 66 -124c9 -16 22 -55 38 -56c10 -1 19 16 24 24l83 156c10 19 20 50 37 58c16 7 51 4 81 4c20 0 67 7 73 -11c3 -11 -8 -28 -14 -38c-40 -69 -77 -135 -118 -206c-6 -10 -18 -26 -15 -39
s35 -11 54 -11c21 0 48 2 58 -6c10 -9 13 -42 1 -54s-52 -7 -77 -7c-27 0 -60 5 -82 -2c-18 -6 -38 -39 -25 -60c10 -16 56 -10 91 -10c25 0 79 7 93 -7c12 -12 9 -45 -1 -54c-7 -6 -29 -6 -42 -6h-48c-31 0 -82 5 -92 -8c-7 -10 -6 -34 -6 -55v-120c0 -21 1 -45 -7 -53
c-11 -11 -41 -7 -66 -7c-24 0 -60 -4 -69 8c-13 18 -6 84 -6 114v60c0 23 2 47 -8 55c-16 12 -57 6 -91 6c-29 0 -78 -5 -90 7c-11 11 -9 45 1 54c14 12 68 6 95 6c37 0 80 -5 89 11c13 23 -11 52 -25 58c-19 8 -55 3 -81 3c-27 0 -65 -5 -78 6c-10 9 -12 43 -1 54
c9 9 35 7 58 7c20 0 51 -2 55 10s-7 28 -14 39c-34 58 -65 114 -98 172c-6 11 -11 17 -20 34c-12 21 -27 45 5 49z" />
    <glyph glyph-name="florin" unicode="&#x192;" 
d="M445 830c26 2 89 0 100 -24c6 -15 -1 -40 -4 -58c-3 -16 -5 -42 -17 -48c-15 -7 -38 6 -59 4c-58 -7 -65 -86 -74 -142c-3 -14 -8 -39 -1 -49c13 -21 75 3 91 -17c11 -16 -2 -54 -11 -60c-21 -13 -73 5 -93 -11c-11 -8 -13 -30 -15 -47c-9 -52 -17 -107 -25 -158
c-34 -195 -50 -393 -285 -386c-16 0 -41 -1 -49 12c-9 14 1 42 4 61c3 21 3 46 18 53c9 5 23 3 38 4c92 7 101 84 117 172c14 79 26 166 40 250c4 28 5 40 -23 45c-9 1 -20 3 -23 10c-9 15 1 51 11 58c9 7 34 2 47 10c11 8 13 32 17 50c16 97 31 188 95 237
c24 18 58 31 101 34z" />
    <glyph glyph-name="section" unicode="&#xa7;" horiz-adv-x="577" 
d="M265 859c102 7 183 -43 208 -125c4 -14 8 -32 1 -41c-8 -11 -26 -9 -50 -9c-22 0 -46 -2 -58 4c-16 7 -18 27 -29 41c-16 19 -48 36 -80 21c-36 -17 -47 -75 -24 -109c22 -32 71 -54 106 -74c29 -16 62 -35 86 -49c60 -35 112 -73 112 -159c0 -56 -17 -93 -41 -127
c-8 -12 -19 -23 -20 -35c-1 -11 6 -20 10 -29c12 -25 21 -56 21 -93c0 -70 -29 -121 -68 -155c-42 -37 -100 -55 -171 -52c-96 4 -172 54 -202 132c-5 13 -27 72 -10 91c12 14 40 8 61 8c23 0 52 2 64 -7c10 -8 10 -21 14 -35c10 -33 34 -64 73 -72c68 -14 120 58 90 119
c-20 41 -83 66 -124 88c-42 23 -96 48 -133 78c-39 31 -68 76 -61 148c5 50 22 81 46 113c7 9 18 23 19 33c1 15 -11 34 -15 48c-36 117 31 210 120 238c16 5 35 8 55 9zM177 470c-15 -28 -14 -67 6 -90c19 -23 59 -41 91 -61c14 -8 28 -18 47 -29c15 -9 37 -26 53 -24
c13 2 21 16 27 29c17 39 6 75 -17 96s-52 34 -84 54l-43 26c-18 11 -35 28 -56 24c-12 -4 -19 -16 -24 -25z" />
    <glyph glyph-name="currency" unicode="&#xa4;" 
d="M289 550c64 0 110 -19 141 -44l62 57l74 -74l-60 -55c22 -33 38 -77 38 -134s-16 -101 -38 -134l60 -55l-74 -74l-62 57c-31 -25 -77 -44 -141 -44s-110 19 -141 44l-62 -57l-74 74l60 55c-22 33 -38 77 -38 134s16 101 38 134l-60 55l74 74l62 -57c31 25 77 44 141 44z
M289 146c89 0 159 68 159 154c0 91 -67 154 -159 154s-159 -63 -159 -154c0 -86 69 -154 159 -154z" />
    <glyph glyph-name="quotesingle" unicode="'" horiz-adv-x="296" 
d="M113 753c23 3 81 7 90 -9c10 -16 1 -58 0 -78c-2 -58 -5 -102 -8 -160c-1 -21 2 -61 -11 -73c-12 -11 -64 -10 -74 2c-10 13 -7 51 -9 75c-2 54 -5 104 -9 159c-1 20 -8 62 1 76c5 6 13 7 20 8z" />
    <glyph glyph-name="quotedblleft" unicode="&#x201c;" horiz-adv-x="488" 
d="M189 773c17 2 67 -3 72 -17c3 -10 -4 -26 -9 -39c-22 -62 -42 -121 -65 -185c-7 -20 -16 -60 -33 -67c-13 -6 -47 1 -62 3c-20 2 -49 1 -52 17c-2 10 9 28 14 39c33 72 68 140 101 211c8 18 14 35 34 38zM380 773c17 2 67 -3 72 -17c3 -10 -4 -26 -9 -39
c-22 -62 -42 -121 -65 -185c-7 -20 -16 -60 -33 -67c-13 -6 -47 1 -62 3c-20 2 -49 1 -52 17c-2 10 9 28 14 39c33 72 68 140 101 211c8 18 14 35 34 38z" />
    <glyph glyph-name="guilsinglleft" unicode="&#x2039;" horiz-adv-x="314" 
d="M178 553c16 4 32 -10 47 -20c12 -8 29 -17 30 -30c1 -15 -18 -36 -25 -48l-58 -88c-9 -13 -26 -29 -25 -47c0 -19 15 -33 25 -47c21 -31 36 -52 59 -85c8 -12 25 -31 24 -47c-2 -14 -20 -23 -32 -31c-13 -8 -26 -22 -42 -21c-19 2 -37 39 -45 52c-35 52 -62 95 -96 146
c-7 10 -16 21 -16 32c-1 19 25 49 34 63c31 48 62 95 95 145c6 10 13 23 25 26z" />
    <glyph glyph-name="guilsinglright" unicode="&#x203a;" horiz-adv-x="314" 
d="M125 553c26 5 42 -37 53 -53l96 -147c5 -8 15 -20 16 -32c0 -10 -10 -26 -15 -34c-40 -60 -75 -114 -116 -175c-7 -9 -16 -22 -25 -23c-17 -2 -31 12 -43 20s-31 18 -32 31c-3 19 15 36 24 48l59 85c8 12 25 30 25 47s-17 35 -25 48c-26 39 -48 70 -73 110
c-5 7 -12 17 -10 26c1 11 15 20 27 27c14 9 25 19 39 22z" />
    <glyph glyph-name="endash" unicode="&#x2013;" horiz-adv-x="500" 
d="M24 377c35 5 81 1 120 1h297c25 0 44 1 52 -7c11 -11 12 -89 0 -101c-9 -9 -34 -7 -56 -7h-376c-21 0 -47 -1 -55 7s-7 28 -7 49c0 32 -5 54 25 58z" />
    <glyph glyph-name="dagger" unicode="&#x2020;" horiz-adv-x="577" 
d="M248 847c16 2 88 6 100 -6c14 -14 7 -84 7 -113v-60c0 -21 -3 -47 9 -55c13 -9 45 -5 74 -5c25 0 61 4 72 -7c10 -10 12 -89 1 -102s-49 -8 -73 -8c-20 0 -62 5 -75 -6c-12 -10 -8 -41 -8 -66v-441c0 -27 2 -57 -6 -67c-8 -9 -33 -8 -58 -8c-23 0 -50 -3 -60 6
c-11 10 -8 37 -8 66v443c0 23 2 57 -7 66c-13 13 -48 7 -74 7c-24 0 -63 -4 -74 7s-12 91 0 103c11 11 50 7 73 7c25 0 62 -4 74 6c9 8 8 36 8 52v120c0 11 -2 45 6 54c4 5 10 6 19 7z" />
    <glyph glyph-name="daggerdbl" unicode="&#x2021;" horiz-adv-x="577" 
d="M247 847c16 2 88 6 100 -6c13 -13 7 -66 7 -99v-53c0 -18 -2 -40 9 -47c13 -9 46 -5 74 -5c21 0 65 5 74 -9s10 -89 -2 -101c-13 -12 -52 -7 -74 -7c-31 0 -63 4 -74 -7c-11 -10 -7 -37 -7 -58c0 -23 -3 -53 8 -61c14 -11 46 -6 73 -6c23 0 61 4 73 -6
c12 -11 13 -92 1 -104s-52 -7 -73 -7c-25 0 -61 5 -74 -6s-8 -58 -8 -85v-184c0 -25 5 -73 -7 -85c-10 -10 -105 -13 -118 0c-12 12 -7 58 -7 85v184c0 24 5 72 -7 84s-49 7 -74 7c-23 0 -62 -5 -74 7c-11 11 -12 91 0 103s48 7 72 7c25 0 64 -5 76 7c9 9 7 36 7 59
c0 19 3 49 -7 59c-12 12 -48 7 -75 7c-19 0 -63 -5 -74 8c-11 12 -11 90 1 102s55 7 74 7c24 0 62 -5 74 7c14 14 7 66 7 97v52c0 29 -4 50 25 54z" />
    <glyph glyph-name="periodcentered" unicode="&#xb7;" horiz-adv-x="289" 
d="M145 345c49 0 89 -39 89 -88s-40 -90 -89 -90s-89 41 -89 90s40 88 89 88z" />
    <glyph glyph-name="paragraph" unicode="&#xb6;" horiz-adv-x="577" 
d="M558 660h-61v-813h-104v813h-62v-813h-104v436c-113 0 -196 79 -206 214c-9 121 83 257 215 257h322v-94z" />
    <glyph glyph-name="bullet" unicode="&#x2022;" horiz-adv-x="577" 
d="M288 189c-103 0 -188 83 -188 188c-1 105 83 189 188 189s189 -84 189 -189s-86 -188 -189 -188z" />
    <glyph glyph-name="quotesinglbase" unicode="&#x201a;" horiz-adv-x="296" 
d="M156 153c16 2 95 -3 101 -19c4 -12 -6 -28 -12 -40c-35 -72 -69 -146 -105 -219c-6 -12 -12 -26 -23 -30c-18 -6 -73 2 -78 16c-4 10 4 28 9 40c21 60 45 126 67 188c8 23 15 61 41 64z" />
    <glyph glyph-name="quotedblbase" unicode="&#x201e;" horiz-adv-x="488" 
d="M155 153c11 1 35 -2 56 -4c19 -2 41 -4 45 -15c5 -12 -6 -28 -12 -40c-34 -73 -69 -146 -105 -219c-6 -12 -12 -26 -23 -30c-18 -7 -73 2 -78 16c-3 10 4 27 8 39c25 70 53 145 77 214c7 20 10 36 32 39zM346 153c11 1 35 -2 56 -4c19 -2 41 -4 45 -15
c5 -12 -6 -28 -12 -40c-34 -73 -69 -146 -105 -219c-6 -12 -12 -26 -23 -30c-18 -7 -73 2 -78 16c-3 10 4 27 8 39c25 70 53 145 77 214c7 20 10 36 32 39z" />
    <glyph glyph-name="quotedblright" unicode="&#x201d;" horiz-adv-x="488" 
d="M155 773c11 1 34 -2 57 -5c18 -2 42 -3 46 -16c3 -12 -8 -27 -13 -39c-34 -73 -69 -145 -105 -219c-6 -11 -14 -27 -23 -30c-12 -4 -30 0 -45 2c-16 2 -31 5 -34 14c-4 10 4 27 9 39c20 59 45 125 66 184c8 25 15 67 42 70zM346 773c11 1 34 -2 57 -5c18 -2 42 -3 46 -16
c3 -12 -8 -27 -13 -39c-34 -73 -69 -145 -105 -219c-6 -11 -14 -27 -23 -30c-12 -4 -30 0 -45 2c-16 2 -31 5 -34 14c-4 10 4 27 9 39c20 59 45 125 66 184c8 25 15 67 42 70z" />
    <glyph glyph-name="ellipsis" unicode="&#x2026;" horiz-adv-x="1000" 
d="M166 158c49 0 89 -39 89 -88s-40 -90 -89 -90s-89 41 -89 90s40 88 89 88zM500 158c49 0 89 -39 89 -88s-40 -90 -89 -90s-89 41 -89 90s40 88 89 88zM833 158c49 0 89 -39 89 -88s-40 -90 -89 -90s-89 41 -89 90s40 88 89 88z" />
    <glyph glyph-name="perthousand" unicode="&#x2030;" horiz-adv-x="1267" 
d="M720 790c17 -1 30 -17 44 -28c12 -10 24 -20 23 -31c-1 -17 -24 -37 -39 -54c-99 -118 -192 -224 -293 -342c-100 -115 -193 -226 -294 -342c-11 -12 -32 -41 -46 -40c-18 1 -29 17 -41 27c-12 9 -28 19 -27 33c1 15 26 38 38 53c195 229 390 455 588 684
c11 13 32 42 47 40zM207 773c60 4 103 -16 134 -43c32 -28 54 -66 58 -121c9 -111 -64 -184 -164 -191c-56 -4 -104 14 -135 42s-55 69 -58 121c-3 59 16 104 44 135c28 32 65 53 121 57zM142 596c0 -48 31 -102 87 -96c100 11 89 204 -17 190c-42 -6 -70 -46 -70 -94z
M610 336c60 4 103 -16 134 -43c32 -28 54 -66 58 -121c9 -111 -64 -184 -164 -191c-56 -4 -104 14 -135 42s-55 69 -58 121c-3 59 16 104 44 135c28 32 65 53 121 57zM1032 336c60 4 103 -16 134 -43c32 -28 54 -66 58 -121c8 -111 -64 -184 -164 -191
c-56 -4 -104 14 -135 42s-55 69 -58 121c-3 59 16 104 44 135c29 32 65 53 121 57zM967 159c0 -48 31 -102 87 -96c100 11 89 205 -17 190c-42 -6 -70 -46 -70 -94zM545 159c0 -48 31 -102 87 -96c100 11 89 204 -17 190c-42 -6 -70 -46 -70 -94z" />
    <glyph glyph-name="questiondown" unicode="&#xbf;" horiz-adv-x="487" 
d="M254 512c33 4 59 -6 77 -24c11 -11 26 -37 25 -67c-3 -46 -41 -90 -100 -84c-41 4 -73 39 -77 78c-5 45 18 72 41 86c8 5 18 9 34 11zM223 252c15 2 38 1 59 1c19 0 42 2 51 -7c11 -12 7 -67 7 -92c0 -24 7 -78 -7 -91c-11 -11 -36 -5 -57 -8c-58 -10 -106 -53 -99 -122
c4 -39 36 -87 86 -70c16 5 31 19 39 36c3 8 4 38 18 48s43 5 67 5c28 0 56 1 64 -7c12 -12 3 -46 -2 -63c-17 -57 -60 -101 -107 -124c-36 -17 -82 -26 -130 -20c-84 11 -144 65 -169 138c-14 40 -16 89 -5 132c15 57 51 104 101 130c17 9 40 12 49 27c16 27 -8 82 35 87z
" />
    <glyph glyph-name="grave" unicode="`" horiz-adv-x="380" 
d="M174 768c16 1 28 -20 37 -33c20 -27 34 -50 56 -80c7 -10 26 -28 25 -43c-1 -12 -14 -19 -25 -26c-9 -6 -23 -16 -35 -16c-16 1 -29 21 -40 31c-26 24 -46 44 -72 70c-9 9 -31 25 -31 40c0 14 24 25 37 33c15 9 31 23 48 24z" />
    <glyph glyph-name="acute" unicode="&#xb4;" horiz-adv-x="380" 
d="M203 728c17 2 33 -14 49 -24c10 -6 38 -16 39 -32c1 -15 -21 -30 -31 -40l-71 -71c-10 -10 -26 -30 -40 -31c-12 -1 -25 10 -35 16c-11 7 -25 12 -26 25c-1 15 16 33 24 44c21 29 36 51 56 78c8 11 19 33 35 35z" />
    <glyph glyph-name="circumflex" unicode="&#x2c6;" horiz-adv-x="400" 
d="M195 767c19 4 37 -20 49 -30l82 -74c14 -13 35 -25 36 -42c0 -15 -14 -23 -22 -33c-9 -9 -16 -24 -30 -24c-17 0 -40 28 -55 43c-13 12 -37 43 -54 43c-12 0 -22 -11 -30 -19c-20 -18 -32 -31 -50 -48c-9 -8 -21 -19 -30 -19c-14 0 -24 16 -31 24c-8 8 -22 17 -21 33
c0 14 21 30 34 41c27 25 52 46 79 70c11 10 26 31 43 35z" />
    <glyph glyph-name="tilde" unicode="&#x2dc;" horiz-adv-x="400" 
d="M107 743c35 5 69 -10 95 -20c18 -7 47 -24 70 -18c22 5 23 28 43 36c13 6 64 7 71 -7c7 -16 -9 -48 -14 -59c-19 -41 -63 -86 -128 -68c-18 5 -35 15 -51 22c-18 8 -38 17 -57 16c-27 -2 -31 -29 -50 -37c-12 -5 -59 -8 -68 5c-10 14 4 47 11 62c14 31 39 63 78 68z" />
    <glyph glyph-name="macron" unicode="&#xaf;" horiz-adv-x="400" 
d="M34 644c0 0 0 1 1 1c57 4 111 0 179 0h134c18 0 31 -1 37 -7c11 -11 11 -63 0 -74c-13 -12 -61 -7 -89 -7h-192c-27 0 -76 -6 -88 7c-10 9 -13 58 -2 72c5 6 12 7 20 8z" />
    <glyph glyph-name="breve" unicode="&#x2d8;" horiz-adv-x="400" 
d="M51 675c20 3 57 3 69 -3c13 -8 16 -28 24 -38c10 -15 28 -27 55 -28c28 -1 48 14 59 30c8 13 10 31 25 37c15 7 78 6 85 -7c9 -18 -10 -49 -16 -60c-28 -50 -77 -86 -151 -86c-87 0 -144 48 -165 112c-7 21 -10 39 15 43z" />
    <glyph glyph-name="dotaccent" unicode="&#x2d9;" horiz-adv-x="380" 
d="M178 692c40 6 71 -16 84 -42c28 -60 -18 -115 -70 -116c-43 -1 -87 36 -81 91c4 36 32 62 67 67z" />
    <glyph glyph-name="dieresis" unicode="&#xa8;" horiz-adv-x="400" 
d="M83 762c23 3 45 -3 58 -12c11 -8 17 -13 25 -28c18 -34 7 -73 -14 -95c-48 -48 -144 -16 -136 66c3 37 31 64 67 69zM294 762c23 3 45 -3 58 -12c11 -8 17 -13 25 -28c18 -34 7 -73 -14 -95c-48 -48 -144 -16 -136 66c3 37 31 64 67 69z" />
    <glyph glyph-name="ring" unicode="&#x2da;" horiz-adv-x="380" 
d="M190 774c55 0 100 -45 100 -100c0 -56 -45 -101 -100 -101s-100 45 -100 101c0 55 45 100 100 100zM190 715c-23 0 -41 -19 -41 -41c0 -23 18 -42 41 -42s41 19 41 42c0 22 -18 41 -41 41z" />
    <glyph glyph-name="cedilla" unicode="&#xb8;" horiz-adv-x="380" 
d="M196 -26c13 3 31 -7 46 -15c12 -6 32 -15 34 -26c2 -15 -14 -29 -22 -38c-19 -23 -36 -42 -55 -65c-9 -10 -18 -26 -31 -28c-14 -2 -26 7 -37 13s-25 11 -26 23c-1 11 11 28 17 37c15 23 28 41 43 64c9 14 16 29 31 35z" />
    <glyph glyph-name="hungarumlaut" unicode="&#x2dd;" horiz-adv-x="420" 
d="M132 768c16 1 35 -15 49 -24c11 -7 37 -16 38 -32s-22 -31 -31 -40l-71 -71c-10 -10 -25 -30 -40 -31c-12 -1 -25 10 -35 16c-12 7 -25 13 -26 25c-2 16 16 33 24 44c22 31 35 50 56 79c7 10 20 33 36 34zM321 768c16 1 35 -15 49 -24c11 -7 37 -16 38 -32
s-22 -31 -31 -40l-71 -71c-10 -10 -25 -30 -40 -31c-12 -1 -25 10 -35 16c-12 7 -25 13 -26 25c-2 16 16 33 24 44c22 31 35 50 56 79c7 10 20 33 36 34z" />
    <glyph glyph-name="ogonek" unicode="&#x2db;" horiz-adv-x="380" 
d="M224 3c-10 -30 -44 -49 -30 -89c6 -14 18 -26 33 -28c18 -3 36 9 45 0c12 -10 -1 -51 -8 -60c-13 -17 -47 -21 -76 -19c-46 3 -83 35 -88 75c-3 34 10 64 24 84c15 21 34 43 63 46c15 1 29 1 37 -9z" />
    <glyph glyph-name="caron" unicode="&#x2c7;" horiz-adv-x="400" 
d="M81 737c12 1 23 -10 33 -19c19 -17 34 -31 54 -48c10 -9 21 -19 31 -19c13 0 21 11 32 20l55 47c8 7 21 20 31 20c14 0 23 -14 31 -23c7 -8 22 -21 22 -32c0 -17 -27 -34 -37 -43c-31 -27 -55 -48 -86 -74c-13 -11 -31 -33 -47 -33c-18 0 -36 23 -47 33
c-28 25 -56 48 -85 74c-9 8 -37 24 -38 41c-1 12 10 21 20 32s19 23 31 24z" />
    <glyph glyph-name="emdash" unicode="&#x2014;" horiz-adv-x="1000" 
d="M156 377c25 3 61 1 91 1h534c24 0 76 4 85 -8c11 -15 9 -90 -1 -100c-12 -11 -59 -7 -86 -7h-558c-26 0 -73 -5 -84 8c-9 10 -12 84 -1 98c4 5 11 7 20 8z" />
    <glyph glyph-name="AE" unicode="&#xc6;" horiz-adv-x="921" 
d="M306 753c41 5 115 1 175 1h87c25 0 67 4 83 -4c15 -8 20 -34 27 -54c3 -10 7 -20 11 -30c3 -9 9 -22 4 -32c-9 -16 -90 -9 -115 -9h-62c-18 0 -47 2 -52 -10c-6 -14 5 -33 9 -43l29 -78c5 -13 10 -27 21 -32c13 -6 36 -3 57 -3h119c21 0 43 2 55 -4c15 -8 19 -34 27 -54
c3 -10 7 -19 11 -30c3 -9 8 -23 4 -32c-6 -11 -33 -9 -52 -9h-122c-22 0 -46 2 -51 -10c-4 -9 2 -22 4 -27c15 -44 28 -76 44 -120c6 -17 13 -36 24 -41c21 -10 88 -4 117 -4h61c21 0 43 2 56 -4c17 -8 20 -32 28 -53c4 -12 23 -47 15 -62c-9 -15 -69 -9 -92 -9h-200
c-30 0 -77 -5 -95 5c-20 11 -28 53 -36 75c-5 12 -10 26 -15 40c-6 14 -11 29 -21 34c-12 6 -38 4 -59 4h-126c-21 0 -51 2 -62 -4c-18 -9 -29 -54 -36 -74c-9 -23 -18 -65 -35 -75c-13 -8 -48 -5 -72 -5s-61 -5 -68 9c-7 12 5 36 11 50c84 218 166 431 251 647
c9 23 13 44 41 47zM308 455c-11 -34 -24 -71 -36 -108c-4 -12 -18 -44 -12 -58c6 -15 54 -10 78 -10c22 0 72 -6 79 10s-10 46 -15 59l-40 112c-4 11 -15 52 -31 47c-12 -4 -19 -38 -23 -52z" />
    <glyph glyph-name="ordfeminine" unicode="&#xaa;" horiz-adv-x="339" 
d="M144 773c24 2 45 -3 63 -11c7 -3 15 -8 23 -8c12 0 18 7 30 9c21 4 57 3 65 -6c12 -11 7 -44 7 -67v-147c0 -24 4 -55 -7 -66s-43 -9 -63 -6c-12 2 -21 10 -30 10c-15 0 -26 -11 -39 -15c-58 -18 -112 7 -143 39c-25 26 -40 60 -43 106c-2 44 15 85 37 112
c21 25 52 47 100 50zM101 626c-5 -54 46 -112 104 -84c22 10 46 38 45 77c-1 45 -35 84 -84 78c-36 -5 -61 -35 -65 -71z" />
    <glyph glyph-name="Oslash" unicode="&#xd8;" horiz-adv-x="782" 
d="M707 776c17 3 28 -12 42 -24c11 -10 29 -20 29 -35c0 -13 -11 -20 -17 -27l-21 -22c-12 -13 -36 -33 -37 -49c-1 -11 7 -21 12 -31c34 -64 57 -147 49 -247c-9 -108 -46 -185 -98 -245c-54 -61 -129 -104 -229 -114c-101 -10 -184 14 -245 52c-9 5 -19 13 -29 13
c-19 -1 -33 -24 -46 -38c-9 -9 -29 -38 -46 -38c-14 0 -28 17 -38 26c-9 9 -27 22 -27 36c-1 18 28 40 38 50c12 13 36 31 38 49c1 11 -6 23 -11 32c-35 64 -58 145 -51 248c7 108 44 184 99 245c53 59 124 104 229 115c103 10 182 -15 244 -53c8 -5 20 -13 30 -13
c17 0 32 22 43 33c12 12 25 34 42 37zM267 586c-31 -23 -51 -50 -67 -83c-15 -31 -29 -72 -28 -122c0 -23 2 -45 7 -68c4 -18 11 -49 26 -50c14 -1 32 24 43 35c14 14 26 28 38 40c64 69 126 133 189 201c9 10 34 29 33 45c-1 17 -34 30 -51 35c-25 8 -57 10 -79 8
c-45 -3 -80 -18 -111 -41zM534 448c-13 -14 -27 -27 -38 -39c-53 -57 -95 -98 -149 -157c-9 -10 -24 -23 -38 -39c-11 -12 -33 -30 -32 -45c1 -18 30 -27 47 -32c17 -6 46 -10 70 -10c51 0 92 16 122 37c71 52 115 167 90 281c-5 22 -11 48 -31 43c-16 -4 -30 -26 -41 -39z
" />
    <glyph glyph-name="OE" unicode="&#x152;" horiz-adv-x="1039" 
d="M358 773c95 6 163 -25 216 -68c7 -5 17 -16 26 -14c14 3 8 47 17 56c12 12 59 7 89 7h192c27 0 79 5 91 -8c9 -10 6 -39 6 -58c0 -18 4 -45 -7 -56c-8 -8 -33 -7 -53 -7h-119c-20 0 -44 1 -52 -7c-12 -11 -7 -44 -7 -74s-5 -67 7 -78c14 -14 77 -7 107 -7h57
c16 0 40 1 49 -7c10 -10 7 -37 7 -58c0 -24 3 -47 -7 -57c-9 -8 -34 -7 -50 -7h-114c-20 0 -41 2 -49 -7c-14 -14 -7 -66 -7 -93c0 -29 -6 -85 8 -96c17 -13 80 -6 111 -6h59c21 0 45 2 54 -8c11 -13 6 -38 6 -56c0 -19 3 -50 -8 -58c-15 -11 -64 -6 -91 -6h-192
c-29 0 -76 -6 -88 8c-8 9 -2 50 -15 54c-12 3 -28 -14 -36 -21c-53 -40 -126 -69 -219 -60c-31 3 -62 12 -89 23c-104 41 -177 126 -216 233c-21 56 -29 126 -20 197c8 66 33 121 60 165c41 66 100 123 183 154c29 11 61 18 94 20zM273 599c-26 -16 -44 -36 -60 -57
c-32 -42 -59 -106 -54 -179c4 -74 28 -127 67 -168c37 -40 90 -74 165 -68c68 5 115 39 150 84c33 44 60 101 55 178c-5 69 -31 126 -67 168c-36 41 -92 75 -165 70c-34 -2 -67 -13 -91 -28z" />
    <glyph glyph-name="ordmasculine" unicode="&#xba;" horiz-adv-x="339" 
d="M154 773c103 8 174 -50 182 -143c4 -52 -15 -93 -40 -120c-38 -40 -112 -64 -186 -42c-60 18 -102 64 -109 134c-5 54 15 95 39 121c24 27 64 46 114 50zM106 661c-3 -5 -10 -16 -11 -36c-4 -47 27 -86 67 -89c105 -9 105 175 -3 161c-26 -3 -43 -19 -53 -36z" />
    <glyph glyph-name="oe" unicode="&#x153;" horiz-adv-x="1039" 
d="M358 773c95 6 163 -25 216 -68c7 -5 17 -16 26 -14c14 3 8 47 17 56c12 12 59 7 89 7h192c27 0 79 5 91 -8c9 -10 6 -39 6 -58c0 -18 4 -45 -7 -56c-8 -8 -33 -7 -53 -7h-119c-20 0 -44 1 -52 -7c-12 -11 -7 -44 -7 -74s-5 -67 7 -78c14 -14 77 -7 107 -7h57
c16 0 40 1 49 -7c10 -10 7 -37 7 -58c0 -24 3 -47 -7 -57c-9 -8 -34 -7 -50 -7h-114c-20 0 -41 2 -49 -7c-14 -14 -7 -66 -7 -93c0 -29 -6 -85 8 -96c17 -13 80 -6 111 -6h59c21 0 45 2 54 -8c11 -13 6 -38 6 -56c0 -19 3 -50 -8 -58c-15 -11 -64 -6 -91 -6h-192
c-29 0 -76 -6 -88 8c-8 9 -2 50 -15 54c-12 3 -28 -14 -36 -21c-53 -40 -126 -69 -219 -60c-31 3 -62 12 -89 23c-104 41 -177 126 -216 233c-21 56 -29 126 -20 197c8 66 33 121 60 165c41 66 100 123 183 154c29 11 61 18 94 20zM273 599c-26 -16 -44 -36 -60 -57
c-32 -42 -59 -106 -54 -179c4 -74 28 -127 67 -168c37 -40 90 -74 165 -68c68 5 115 39 150 84c33 44 60 101 55 178c-5 69 -31 126 -67 168c-36 41 -92 75 -165 70c-34 -2 -67 -13 -91 -28z" />
    <glyph glyph-name="trademark" unicode="&#x2122;" horiz-adv-x="1000" 
d="M66 753c0 0 0 1 1 1c56 4 104 0 158 0h79c23 0 60 3 71 -7c11 -12 10 -52 0 -62c-17 -17 -95 4 -113 -14c-12 -12 -7 -59 -7 -80v-173c0 -26 4 -68 -7 -79c-12 -12 -64 -9 -73 0c-12 12 -7 53 -7 79v172c0 21 5 67 -6 80c-10 11 -37 8 -57 8c-19 0 -46 -5 -57 7
c-10 10 -11 48 -2 60c5 7 13 7 20 8zM863 618c-13 -4 -17 -19 -21 -30c-25 -61 -44 -119 -68 -184c-9 -22 -15 -59 -33 -68c-16 -8 -58 -8 -72 1c-15 9 -24 47 -31 68c-22 62 -39 119 -64 183c-4 9 -12 30 -20 29c-10 -2 -9 -48 -9 -65v-147c0 -25 2 -56 -7 -66
c-12 -12 -62 -11 -73 0c-13 13 -7 69 -7 98v209c0 31 -7 84 5 99c12 16 51 9 83 9c20 0 46 2 57 -5c15 -9 21 -40 28 -60c16 -46 30 -84 46 -129c6 -16 16 -57 30 -57s26 46 31 58c17 48 28 79 47 129c6 18 15 51 29 59c14 9 45 5 70 5c18 0 56 4 67 -7c13 -13 7 -69 7 -98
v-210c0 -28 6 -85 -6 -99c-8 -9 -59 -14 -73 -2c-12 10 -8 39 -8 66v148c0 24 2 48 -8 66z" />
    <glyph glyph-name="divide" unicode="&#xf7;" 
d="M289 532c46 0 83 -38 83 -83c0 -46 -37 -83 -83 -83s-83 37 -83 83c0 45 37 83 83 83zM57 312c47 7 379 1 434 1c17 0 38 2 47 -7s7 -32 7 -51c0 -18 2 -41 -7 -50s-35 -7 -55 -7h-390c-17 0 -45 -2 -54 7c-10 10 -13 85 -2 99c5 7 13 7 20 8zM289 146
c46 0 83 -38 83 -83c0 -46 -37 -83 -83 -83s-83 37 -83 83c0 45 37 83 83 83z" />
    <glyph glyph-name="degree" unicode="&#xb0;" horiz-adv-x="400" 
d="M187 780c103 7 171 -50 179 -143c4 -52 -15 -93 -40 -120c-38 -40 -109 -64 -183 -42c-60 18 -99 64 -106 134c-5 53 13 95 37 121c24 27 63 46 113 50zM139 668c-3 -5 -10 -16 -11 -36c-4 -47 27 -86 67 -89c105 -9 105 175 -3 161c-27 -3 -43 -19 -53 -36z" />
    <glyph glyph-name="registered" unicode="&#xae;" horiz-adv-x="800" 
d="M374 773c129 8 225 -42 292 -103s119 -149 126 -269c7 -132 -40 -223 -101 -292c-62 -70 -146 -120 -267 -128c-128 -8 -225 42 -291 102c-70 63 -119 145 -127 268c-9 129 40 227 100 293c45 51 104 93 182 115c26 8 57 12 86 14zM171 586c-47 -53 -85 -128 -79 -229
c5 -94 46 -161 99 -209s128 -87 228 -81c91 5 161 47 208 100c48 54 84 126 79 229c-5 92 -47 163 -98 210c-52 48 -129 86 -229 80c-96 -6 -161 -47 -208 -100zM258 585c0 0 0 1 1 1c53 4 102 0 153 0c73 0 136 -5 164 -49c34 -53 22 -150 -30 -182c-10 -6 -47 -13 -50 -27
c-3 -15 11 -31 16 -39c15 -25 24 -41 41 -68c7 -12 18 -25 15 -37c-5 -16 -59 -14 -74 -8c-16 6 -23 25 -30 37c-18 30 -32 53 -50 84c-9 14 -16 32 -29 37c-16 6 -48 5 -57 -3c-12 -11 -8 -48 -8 -75c0 -28 4 -65 -7 -76s-62 -11 -73 0c-13 12 -7 70 -7 96v204
c0 28 -6 83 5 97c5 6 13 7 20 8zM325 502c-11 -14 -7 -74 2 -83c11 -11 44 -7 69 -7c28 0 55 -2 74 3c23 6 40 27 38 53c-4 38 -46 41 -88 43c-25 1 -58 2 -76 -1c-7 -1 -14 -2 -19 -8z" />
    <glyph glyph-name="minus" unicode="&#x2212;" horiz-adv-x="579" 
d="M63 314c35 5 81 1 120 1h297c25 0 44 1 52 -7c11 -11 12 -89 0 -101c-9 -9 -34 -7 -56 -7h-376c-21 0 -47 -1 -55 7s-7 28 -7 49c0 32 -5 54 25 58z" />
    <glyph glyph-name="multiply" unicode="&#xd7;" horiz-adv-x="496" 
d="M424 149c18 -17 32 -30 32 -41c0 -16 -54 -72 -71 -72c-13 0 -29 19 -45 35l-91 91c-31 -31 -63 -62 -95 -94c-17 -18 -30 -32 -41 -32c-16 0 -72 54 -72 71c0 13 19 29 35 45l92 92c-31 30 -62 61 -94 93c-15 15 -34 32 -34 44c0 11 15 24 30 39c23 23 35 42 59 23
c28 -21 58 -56 85 -84c12 -11 23 -23 35 -34l93 93c15 15 32 34 44 34c11 0 24 -15 39 -30c23 -23 42 -35 23 -59c-21 -28 -56 -58 -84 -85c-11 -11 -23 -23 -34 -35z" />
    <glyph glyph-name="copyright" unicode="&#xa9;" horiz-adv-x="800" 
d="M375 773c127 8 228 -42 293 -103c66 -63 118 -149 126 -269c8 -128 -41 -226 -101 -292c-64 -69 -146 -120 -267 -128c-128 -9 -226 42 -292 102c-70 63 -119 146 -127 268c-9 127 41 228 100 293c46 51 104 92 182 115c26 8 58 12 86 14zM172 586
c-46 -53 -85 -129 -78 -229c7 -96 44 -159 98 -210c52 -49 131 -85 228 -79c94 6 159 45 208 100c47 53 86 128 79 228c-7 93 -45 162 -98 210c-53 47 -128 87 -229 80c-96 -6 -161 -46 -208 -100zM385 621c84 6 151 -31 187 -86c8 -13 31 -45 23 -65c-6 -15 -56 -15 -72 -8
c-18 7 -22 29 -36 42c-20 19 -49 31 -87 31c-43 0 -78 -23 -98 -48c-21 -25 -38 -64 -38 -107c0 -66 32 -111 72 -136c22 -14 48 -23 84 -18c28 4 53 16 70 33c11 12 17 33 33 40c19 8 64 6 71 -6c10 -19 -11 -48 -17 -59c-29 -48 -76 -86 -143 -94
c-107 -13 -176 37 -215 97c-24 36 -37 74 -41 117c-10 102 36 180 91 223c29 23 68 40 116 44z" />
    <glyph glyph-name="Scaron" unicode="&#x160;" horiz-adv-x="526" 
d="M144 981c12 1 23 -10 33 -19c19 -17 34 -31 54 -48c10 -9 21 -19 31 -19c13 0 21 11 32 20l55 47c8 7 21 20 31 20c14 0 23 -14 31 -23c7 -8 22 -21 22 -32c0 -17 -27 -34 -37 -43c-31 -27 -55 -48 -86 -74c-13 -11 -31 -33 -47 -33c-18 0 -36 23 -47 33
c-28 25 -56 48 -85 74c-9 8 -37 24 -38 41c-1 12 10 21 20 32s19 23 31 24zM258 773c63 4 131 -20 175 -47c14 -8 36 -20 37 -37c2 -19 -16 -35 -26 -49c-7 -11 -18 -38 -35 -40s-29 20 -47 31c-17 10 -48 20 -80 16c-34 -5 -57 -24 -69 -48c-6 -13 -10 -38 -4 -56
c15 -43 66 -60 107 -78c88 -38 168 -77 184 -185c17 -118 -31 -215 -102 -261c-39 -26 -85 -40 -144 -40c-86 0 -145 40 -189 88c-11 12 -36 38 -35 57s23 34 36 47c6 6 14 12 22 20c6 5 13 17 25 16s20 -18 26 -28c20 -30 53 -59 93 -66c68 -13 112 36 117 92
c7 82 -55 106 -110 128c-83 33 -166 72 -184 173c-13 76 12 143 45 185c17 21 36 39 64 55c26 15 56 25 94 27z" />
    <glyph glyph-name="Zcaron" unicode="&#x17d;" horiz-adv-x="508" 
d="M135 981c12 1 23 -10 33 -19c19 -17 34 -31 54 -48c10 -9 21 -19 31 -19c13 0 21 11 32 20l55 47c8 7 21 20 31 20c14 0 23 -14 31 -23c7 -8 22 -21 22 -32c0 -17 -27 -34 -37 -43c-31 -27 -55 -48 -86 -74c-13 -11 -31 -33 -47 -33c-18 0 -36 23 -47 33
c-28 25 -56 48 -85 74c-9 8 -37 24 -38 41c-1 12 10 21 20 32s19 23 31 24zM74 752c27 3 68 1 105 1h207c27 0 87 6 95 -9c5 -10 -4 -28 -9 -40c-74 -174 -143 -340 -216 -514c-5 -12 -14 -28 -10 -39c4 -12 24 -10 48 -10h119c20 0 43 1 51 -7c10 -10 7 -41 7 -63
c0 -26 3 -56 -8 -66c-14 -12 -81 -5 -107 -5h-281c-19 0 -42 -2 -47 8s4 28 9 40c71 174 138 340 209 513c5 12 15 27 11 40c-5 18 -71 12 -97 12h-54c-19 0 -42 -3 -51 7c-8 10 -6 46 -6 62c0 15 -4 50 5 62c4 6 11 6 20 8z" />
    <glyph glyph-name="ae" unicode="&#xe6;" horiz-adv-x="921" 
d="M306 753c41 5 115 1 175 1h87c25 0 67 4 83 -4c15 -8 20 -34 27 -54c3 -10 7 -20 11 -30c3 -9 9 -22 4 -32c-9 -16 -90 -9 -115 -9h-62c-18 0 -47 2 -52 -10c-6 -14 5 -33 9 -43l29 -78c5 -13 10 -27 21 -32c13 -6 36 -3 57 -3h119c21 0 43 2 55 -4c15 -8 19 -34 27 -54
c3 -10 7 -19 11 -30c3 -9 8 -23 4 -32c-6 -11 -33 -9 -52 -9h-122c-22 0 -46 2 -51 -10c-4 -9 2 -22 4 -27c15 -44 28 -76 44 -120c6 -17 13 -36 24 -41c21 -10 88 -4 117 -4h61c21 0 43 2 56 -4c17 -8 20 -32 28 -53c4 -12 23 -47 15 -62c-9 -15 -69 -9 -92 -9h-200
c-30 0 -77 -5 -95 5c-20 11 -28 53 -36 75c-5 12 -10 26 -15 40c-6 14 -11 29 -21 34c-12 6 -38 4 -59 4h-126c-21 0 -51 2 -62 -4c-18 -9 -29 -54 -36 -74c-9 -23 -18 -65 -35 -75c-13 -8 -48 -5 -72 -5s-61 -5 -68 9c-7 12 5 36 11 50c84 218 166 431 251 647
c9 23 13 44 41 47zM308 455c-11 -34 -24 -71 -36 -108c-4 -12 -18 -44 -12 -58c6 -15 54 -10 78 -10c22 0 72 -6 79 10s-10 46 -15 59l-40 112c-4 11 -15 52 -31 47c-12 -4 -19 -38 -23 -52z" />
    <glyph glyph-name="oslash" unicode="&#xf8;" horiz-adv-x="782" 
d="M707 776c17 3 28 -12 42 -24c11 -10 29 -20 29 -35c0 -13 -11 -20 -17 -27l-21 -22c-12 -13 -36 -33 -37 -49c-1 -11 7 -21 12 -31c34 -64 57 -147 49 -247c-9 -108 -46 -185 -98 -245c-54 -61 -129 -104 -229 -114c-101 -10 -184 14 -245 52c-9 5 -19 13 -29 13
c-19 -1 -33 -24 -46 -38c-9 -9 -29 -38 -46 -38c-14 0 -28 17 -38 26c-9 9 -27 22 -27 36c-1 18 28 40 38 50c12 13 36 31 38 49c1 11 -6 23 -11 32c-35 64 -58 145 -51 248c7 108 44 184 99 245c53 59 124 104 229 115c103 10 182 -15 244 -53c8 -5 20 -13 30 -13
c17 0 32 22 43 33c12 12 25 34 42 37zM267 586c-31 -23 -51 -50 -67 -83c-15 -31 -29 -72 -28 -122c0 -23 2 -45 7 -68c4 -18 11 -49 26 -50c14 -1 32 24 43 35c14 14 26 28 38 40c64 69 126 133 189 201c9 10 34 29 33 45c-1 17 -34 30 -51 35c-25 8 -57 10 -79 8
c-45 -3 -80 -18 -111 -41zM534 448c-13 -14 -27 -27 -38 -39c-53 -57 -95 -98 -149 -157c-9 -10 -24 -23 -38 -39c-11 -12 -33 -30 -32 -45c1 -18 30 -27 47 -32c17 -6 46 -10 70 -10c51 0 92 16 122 37c71 52 115 167 90 281c-5 22 -11 48 -31 43c-16 -4 -30 -26 -41 -39z
" />
    <glyph glyph-name="scaron" unicode="&#x161;" horiz-adv-x="440" 
d="M101 981c12 1 23 -10 33 -19c19 -17 34 -31 54 -48c10 -9 21 -19 31 -19c13 0 21 11 32 20l55 47c8 7 21 20 31 20c14 0 23 -14 31 -23c7 -8 22 -21 22 -32c0 -17 -27 -34 -37 -43c-31 -27 -55 -48 -86 -74c-13 -11 -31 -33 -47 -33c-18 0 -36 23 -47 33
c-28 25 -56 48 -85 74c-9 8 -37 24 -38 41c-1 12 10 21 20 32s19 23 31 24zM231 764c19 0 51 -3 75 -10c21 -7 47 -15 54 -31c7 -14 4 -39 4 -65c0 -17 5 -53 -8 -59c-14 -6 -38 16 -50 21c-19 7 -58 14 -83 3c-15 -6 -30 -21 -35 -34c-18 -49 14 -95 40 -118
c60 -54 142 -89 170 -180c11 -36 13 -83 5 -125c-14 -76 -58 -135 -119 -161c-31 -12 -70 -21 -121 -15c-30 4 -86 15 -97 42c-6 14 -3 40 -3 64c0 19 -4 53 9 58c12 5 34 -10 46 -14c14 -5 32 -11 53 -11c40 -1 68 17 82 44c9 20 10 53 0 74c-12 25 -36 43 -59 59
c-69 47 -139 93 -155 192c-12 73 7 145 37 188c32 46 82 78 155 78z" />
    <glyph glyph-name="zcaron" unicode="&#x17e;" horiz-adv-x="575" 
d="M185 981c12 1 23 -10 33 -19c19 -17 34 -31 54 -48c10 -9 21 -19 31 -19c13 0 21 11 32 20l55 47c8 7 21 20 31 20c14 0 23 -14 31 -23c7 -8 22 -21 22 -32c0 -17 -27 -34 -37 -43c-31 -27 -55 -48 -86 -74c-13 -11 -31 -33 -47 -33c-18 0 -36 23 -47 33
c-28 25 -56 48 -85 74c-9 8 -37 24 -38 41c-1 12 10 21 20 32s19 23 31 24zM17 8c-4 16 7 29 14 42c92 173 184 348 277 523c6 12 18 30 14 41c-5 14 -40 11 -59 11h-139c-24 0 -53 -2 -62 7s-7 35 -7 55c0 36 -6 63 26 67c36 4 80 0 122 0h303c20 0 46 1 51 -9
c5 -11 -8 -30 -14 -42c-94 -177 -182 -346 -277 -523c-6 -11 -17 -31 -14 -41c5 -14 41 -11 66 -11h154c24 0 62 4 73 -7c10 -10 7 -34 7 -57c0 -22 3 -51 -8 -59s-39 -6 -62 -6h-407c-21 0 -44 -5 -58 9z" />
    <glyph glyph-name="Ydieresis" unicode="&#x178;" horiz-adv-x="514" 
d="M139 956c23 3 45 -3 58 -12c11 -8 17 -13 25 -28c18 -34 7 -73 -14 -95c-48 -48 -144 -16 -136 66c3 37 31 64 67 69zM350 956c23 3 45 -3 58 -12c11 -8 17 -13 25 -28c18 -34 7 -73 -14 -95c-48 -48 -144 -16 -136 66c3 37 31 64 67 69zM30 752c18 2 42 1 66 1
c19 0 48 2 62 -4c14 -7 20 -30 28 -49c15 -39 26 -70 42 -111c4 -13 14 -48 26 -49c13 -1 22 39 26 49c14 40 25 70 40 111c5 15 10 41 26 49c17 8 50 4 78 4c18 0 65 6 72 -10c5 -13 -11 -40 -16 -51c-43 -93 -83 -186 -126 -281c-7 -16 -16 -32 -21 -48
c-6 -25 -2 -57 -2 -89v-185c0 -25 4 -73 -8 -84c-11 -9 -42 -5 -67 -5c-24 0 -57 -3 -66 5c-13 12 -8 65 -8 86v186c0 33 2 67 -4 88c-5 15 -13 32 -20 48c-43 94 -86 182 -130 278c-8 18 -31 55 0 61h2z" />
    <glyph glyph-name="quotedbl" unicode="&#x22;" horiz-adv-x="488" 
d="M113 753c20 3 76 7 88 -6c12 -12 4 -56 3 -78c-3 -50 -6 -119 -9 -165c-2 -28 0 -63 -13 -73c-14 -10 -61 -8 -71 3s-9 51 -10 75l-11 200c-1 26 -2 41 23 44zM305 753c20 3 76 7 88 -6c12 -12 4 -56 3 -78c-3 -50 -6 -119 -9 -165c-2 -28 0 -63 -13 -73
c-14 -10 -61 -8 -71 3s-9 51 -10 75l-11 200c-1 26 -2 41 23 44z" />
    <glyph glyph-name="exclam" unicode="!" horiz-adv-x="325" 
d="M113 754c11 2 38 1 62 1c20 0 45 2 53 -7c9 -9 6 -40 6 -61c0 -143 -20 -259 -20 -402c0 -22 2 -52 -6 -61c-11 -12 -20 -7 -44 -7c-22 0 -37 -3 -47 7c-8 9 -6 40 -6 61c0 111 -20 221 -20 332v67c0 35 -6 66 22 70zM149 157c59 7 107 -33 102 -94
c-3 -48 -43 -80 -84 -82c-47 -2 -99 36 -93 100c3 27 12 38 24 51c12 12 29 22 51 25z" />
    <glyph glyph-name="Agrave" unicode="&#xc0;" horiz-adv-x="687" 
d="M286 995c16 1 28 -20 37 -33c20 -27 34 -50 56 -80c7 -10 26 -28 25 -43c-1 -12 -14 -19 -25 -26c-9 -6 -23 -16 -35 -16c-16 1 -29 21 -40 31c-26 24 -46 44 -72 70c-9 9 -31 25 -31 40c0 14 24 25 37 33c15 9 31 23 48 24zM311 773c19 2 74 5 89 -5
c11 -7 16 -25 23 -43c44 -119 77 -210 123 -333c43 -113 80 -218 123 -333c6 -15 17 -37 11 -50c-8 -16 -41 -10 -67 -10c-28 0 -62 -3 -75 5c-15 9 -27 55 -35 76l-15 41c-5 12 -9 29 -21 34c-13 5 -39 3 -60 3h-125c-19 0 -44 3 -59 -3c-13 -5 -18 -21 -23 -34
c-11 -28 -20 -53 -32 -82c-6 -16 -12 -32 -26 -37c-16 -6 -44 -3 -72 -3c-24 0 -58 -5 -64 10c-5 13 7 36 13 51c84 223 169 445 253 667c9 23 12 42 39 46zM314 468c-12 -39 -24 -75 -36 -116c-5 -17 -19 -47 -13 -62c7 -17 52 -11 77 -11c22 0 73 -6 81 8
c9 15 -9 47 -14 63c-14 42 -26 79 -41 121c-4 12 -15 57 -30 53c-14 -3 -20 -43 -24 -56z" />
    <glyph glyph-name="Aacute" unicode="&#xc1;" horiz-adv-x="687" 
d="M397 995c17 2 33 -14 49 -24c10 -6 38 -16 39 -32c1 -15 -21 -30 -31 -40l-71 -71c-10 -10 -26 -30 -40 -31c-12 -1 -25 10 -35 16c-11 7 -25 12 -26 25c-1 15 16 33 24 44c21 29 36 51 56 78c8 11 19 33 35 35zM311 773c19 2 74 5 89 -5c11 -7 16 -25 23 -43
c44 -119 77 -210 123 -333c43 -113 80 -218 123 -333c6 -15 17 -37 11 -50c-8 -16 -41 -10 -67 -10c-28 0 -62 -3 -75 5c-15 9 -27 55 -35 76l-15 41c-5 12 -9 29 -21 34c-13 5 -39 3 -60 3h-125c-19 0 -44 3 -59 -3c-13 -5 -18 -21 -23 -34c-11 -28 -20 -53 -32 -82
c-6 -16 -12 -32 -26 -37c-16 -6 -44 -3 -72 -3c-24 0 -58 -5 -64 10c-5 13 7 36 13 51c84 223 169 445 253 667c9 23 12 42 39 46zM314 468c-12 -39 -24 -75 -36 -116c-5 -17 -19 -47 -13 -62c7 -17 52 -11 77 -11c22 0 73 -6 81 8c9 15 -9 47 -14 63c-14 42 -26 79 -41 121
c-4 12 -15 57 -30 53c-14 -3 -20 -43 -24 -56z" />
    <glyph glyph-name="Acircumflex" unicode="&#xc2;" horiz-adv-x="687" 
d="M338 994c19 4 37 -20 49 -30l82 -74c14 -13 35 -25 36 -42c0 -15 -14 -23 -22 -33c-9 -9 -16 -24 -30 -24c-17 0 -40 28 -55 43c-13 12 -37 43 -54 43c-12 0 -22 -11 -30 -19c-20 -18 -32 -31 -50 -48c-9 -8 -21 -19 -30 -19c-14 0 -24 16 -31 24c-8 8 -22 17 -21 33
c0 14 21 30 34 41c27 25 52 46 79 70c11 10 26 31 43 35zM311 773c19 2 74 5 89 -5c11 -7 16 -25 23 -43c44 -119 77 -210 123 -333c43 -113 80 -218 123 -333c6 -15 17 -37 11 -50c-8 -16 -41 -10 -67 -10c-28 0 -62 -3 -75 5c-15 9 -27 55 -35 76l-15 41
c-5 12 -9 29 -21 34c-13 5 -39 3 -60 3h-125c-19 0 -44 3 -59 -3c-13 -5 -18 -21 -23 -34c-11 -28 -20 -53 -32 -82c-6 -16 -12 -32 -26 -37c-16 -6 -44 -3 -72 -3c-24 0 -58 -5 -64 10c-5 13 7 36 13 51c84 223 169 445 253 667c9 23 12 42 39 46zM314 468
c-12 -39 -24 -75 -36 -116c-5 -17 -19 -47 -13 -62c7 -17 52 -11 77 -11c22 0 73 -6 81 8c9 15 -9 47 -14 63c-14 42 -26 79 -41 121c-4 12 -15 57 -30 53c-14 -3 -20 -43 -24 -56z" />
    <glyph glyph-name="Atilde" unicode="&#xc3;" horiz-adv-x="687" 
d="M249 960c35 5 69 -10 95 -20c18 -7 47 -24 70 -18c22 5 23 28 43 36c13 6 64 7 71 -7c7 -16 -9 -48 -14 -59c-19 -41 -63 -86 -128 -68c-18 5 -35 15 -51 22c-18 8 -38 17 -57 16c-27 -2 -31 -29 -50 -37c-12 -5 -59 -8 -68 5c-10 14 4 47 11 62c14 31 39 63 78 68z
M311 773c19 2 74 5 89 -5c11 -7 16 -25 23 -43c44 -119 77 -210 123 -333c43 -113 80 -218 123 -333c6 -15 17 -37 11 -50c-8 -16 -41 -10 -67 -10c-28 0 -62 -3 -75 5c-15 9 -27 55 -35 76l-15 41c-5 12 -9 29 -21 34c-13 5 -39 3 -60 3h-125c-19 0 -44 3 -59 -3
c-13 -5 -18 -21 -23 -34c-11 -28 -20 -53 -32 -82c-6 -16 -12 -32 -26 -37c-16 -6 -44 -3 -72 -3c-24 0 -58 -5 -64 10c-5 13 7 36 13 51c84 223 169 445 253 667c9 23 12 42 39 46zM314 468c-12 -39 -24 -75 -36 -116c-5 -17 -19 -47 -13 -62c7 -17 52 -11 77 -11
c22 0 73 -6 81 8c9 15 -9 47 -14 63c-14 42 -26 79 -41 121c-4 12 -15 57 -30 53c-14 -3 -20 -43 -24 -56z" />
    <glyph glyph-name="Adieresis" unicode="&#xc4;" horiz-adv-x="687" 
d="M225 979c23 3 45 -3 58 -12c11 -8 17 -13 25 -28c18 -34 7 -73 -14 -95c-48 -48 -144 -16 -136 66c3 37 31 64 67 69zM436 979c23 3 45 -3 58 -12c11 -8 17 -13 25 -28c18 -34 7 -73 -14 -95c-48 -48 -144 -16 -136 66c3 37 31 64 67 69zM311 773c19 2 74 5 89 -5
c11 -7 16 -25 23 -43c44 -119 77 -210 123 -333c43 -113 80 -218 123 -333c6 -15 17 -37 11 -50c-8 -16 -41 -10 -67 -10c-28 0 -62 -3 -75 5c-15 9 -27 55 -35 76l-15 41c-5 12 -9 29 -21 34c-13 5 -39 3 -60 3h-125c-19 0 -44 3 -59 -3c-13 -5 -18 -21 -23 -34
c-11 -28 -20 -53 -32 -82c-6 -16 -12 -32 -26 -37c-16 -6 -44 -3 -72 -3c-24 0 -58 -5 -64 10c-5 13 7 36 13 51c84 223 169 445 253 667c9 23 12 42 39 46zM314 468c-12 -39 -24 -75 -36 -116c-5 -17 -19 -47 -13 -62c7 -17 52 -11 77 -11c22 0 73 -6 81 8
c9 15 -9 47 -14 63c-14 42 -26 79 -41 121c-4 12 -15 57 -30 53c-14 -3 -20 -43 -24 -56z" />
    <glyph glyph-name="Aring" unicode="&#xc5;" horiz-adv-x="687" 
d="M669 59c6 -15 17 -37 11 -50c-8 -16 -41 -10 -67 -10c-28 0 -62 -3 -75 5c-15 9 -27 55 -35 76l-15 41c-5 12 -9 29 -21 34c-13 5 -39 3 -60 3h-125c-19 0 -44 3 -59 -3c-13 -5 -18 -21 -23 -34c-11 -28 -20 -53 -32 -82c-6 -16 -12 -32 -26 -37c-16 -6 -44 -3 -72 -3
c-24 0 -58 -5 -64 10c-5 13 7 36 13 51c84 223 169 445 253 667c2 5 4 11 6 15c-21 19 -35 46 -35 77c0 55 45 100 100 100s100 -45 100 -100c0 -28 -11 -53 -29 -71l9 -23c44 -119 77 -210 123 -333c43 -113 80 -218 123 -333zM343 860c-23 0 -41 -19 -41 -41
c0 -23 18 -42 41 -42s41 19 41 42c0 22 -18 41 -41 41zM423 287c9 15 -9 47 -14 63c-14 42 -26 79 -41 121c-4 12 -15 57 -30 53c-14 -3 -20 -43 -24 -56c-12 -39 -24 -75 -36 -116c-5 -17 -19 -47 -13 -62c7 -17 52 -11 77 -11c22 0 73 -6 81 8z" />
    <glyph glyph-name="Ccedilla" unicode="&#xc7;" horiz-adv-x="601" 
d="M369 773c33 2 72 -1 107 -10c26 -7 68 -17 78 -39c8 -17 4 -53 4 -78c0 -17 5 -68 -9 -72c-10 -3 -22 10 -29 15c-26 19 -55 33 -90 40c-55 10 -105 -3 -141 -24c-69 -40 -116 -117 -119 -228c-2 -57 13 -100 35 -139c21 -38 48 -69 83 -90c36 -21 91 -34 143 -23
c34 7 63 22 89 41c8 6 19 17 29 14c14 -4 9 -54 9 -73c0 -30 3 -62 -5 -77c-11 -20 -50 -29 -73 -36c-27 -8 -61 -15 -93 -15c-70 0 -125 19 -172 44c-90 48 -157 137 -185 248c-33 131 5 264 62 345c44 63 100 112 184 140c29 10 60 15 93 17zM306 -26c13 3 31 -7 46 -15
c12 -6 32 -15 34 -26c2 -15 -14 -29 -22 -38c-19 -23 -36 -42 -55 -65c-9 -10 -18 -26 -31 -28c-14 -2 -26 7 -37 13s-25 11 -26 23c-1 11 11 28 17 37c15 23 28 41 43 64c9 14 16 29 31 35z" />
    <glyph glyph-name="Egrave" unicode="&#xc8;" horiz-adv-x="488" 
d="M187 972c16 1 28 -20 37 -33c20 -27 34 -50 56 -80c7 -10 26 -28 25 -43c-1 -12 -14 -19 -25 -26c-9 -6 -23 -16 -35 -16c-16 1 -29 21 -40 31c-26 24 -46 44 -72 70c-9 9 -31 25 -31 40c0 14 24 25 37 33c15 9 31 23 48 24zM79 753c22 3 60 1 92 1h227c17 0 34 1 41 -8
c9 -10 6 -37 6 -57c0 -19 3 -50 -8 -58c-10 -8 -34 -6 -55 -6h-120c-23 0 -44 2 -53 -7c-12 -12 -7 -47 -7 -74c0 -23 -5 -65 7 -77c9 -9 35 -7 52 -7h117c23 0 42 2 51 -7c12 -11 12 -103 0 -115c-8 -8 -31 -7 -51 -7h-115c-22 0 -45 2 -54 -7c-13 -13 -7 -63 -7 -93
c0 -26 -6 -83 7 -96c10 -9 33 -7 54 -7h122c21 0 45 1 53 -7c11 -11 7 -36 7 -57c0 -23 3 -51 -8 -59c-16 -12 -64 -6 -91 -6h-194c-24 0 -79 -5 -91 7s-7 57 -7 88v564c0 34 -10 94 23 95h2z" />
    <glyph glyph-name="Eacute" unicode="&#xc9;" horiz-adv-x="488" 
d="M298 972c17 2 33 -14 49 -24c10 -6 38 -16 39 -32c1 -15 -21 -30 -31 -40l-71 -71c-10 -10 -26 -30 -40 -31c-12 -1 -25 10 -35 16c-11 7 -25 12 -26 25c-1 15 16 33 24 44c21 29 36 51 56 78c8 11 19 33 35 35zM79 753c22 3 60 1 92 1h227c17 0 34 1 41 -8
c9 -10 6 -37 6 -57c0 -19 3 -50 -8 -58c-10 -8 -34 -6 -55 -6h-120c-23 0 -44 2 -53 -7c-12 -12 -7 -47 -7 -74c0 -23 -5 -65 7 -77c9 -9 35 -7 52 -7h117c23 0 42 2 51 -7c12 -11 12 -103 0 -115c-8 -8 -31 -7 -51 -7h-115c-22 0 -45 2 -54 -7c-13 -13 -7 -63 -7 -93
c0 -26 -6 -83 7 -96c10 -9 33 -7 54 -7h122c21 0 45 1 53 -7c11 -11 7 -36 7 -57c0 -23 3 -51 -8 -59c-16 -12 -64 -6 -91 -6h-194c-24 0 -79 -5 -91 7s-7 57 -7 88v564c0 34 -10 94 23 95h2z" />
    <glyph glyph-name="Ecircumflex" unicode="&#xca;" horiz-adv-x="488" 
d="M239 971c19 4 37 -20 49 -30l82 -74c14 -13 35 -25 36 -42c0 -15 -14 -23 -22 -33c-9 -9 -16 -24 -30 -24c-17 0 -40 28 -55 43c-13 12 -37 43 -54 43c-12 0 -22 -11 -30 -19c-20 -18 -32 -31 -50 -48c-9 -8 -21 -19 -30 -19c-14 0 -24 16 -31 24c-8 8 -22 17 -21 33
c0 14 21 30 34 41c27 25 52 46 79 70c11 10 26 31 43 35zM79 753c22 3 60 1 92 1h227c17 0 34 1 41 -8c9 -10 6 -37 6 -57c0 -19 3 -50 -8 -58c-10 -8 -34 -6 -55 -6h-120c-23 0 -44 2 -53 -7c-12 -12 -7 -47 -7 -74c0 -23 -5 -65 7 -77c9 -9 35 -7 52 -7h117
c23 0 42 2 51 -7c12 -11 12 -103 0 -115c-8 -8 -31 -7 -51 -7h-115c-22 0 -45 2 -54 -7c-13 -13 -7 -63 -7 -93c0 -26 -6 -83 7 -96c10 -9 33 -7 54 -7h122c21 0 45 1 53 -7c11 -11 7 -36 7 -57c0 -23 3 -51 -8 -59c-16 -12 -64 -6 -91 -6h-194c-24 0 -79 -5 -91 7
s-7 57 -7 88v564c0 34 -10 94 23 95h2z" />
    <glyph glyph-name="Edieresis" unicode="&#xcb;" horiz-adv-x="488" 
d="M126 956c23 3 45 -3 58 -12c11 -8 17 -13 25 -28c18 -34 7 -73 -14 -95c-48 -48 -144 -16 -136 66c3 37 31 64 67 69zM337 956c23 3 45 -3 58 -12c11 -8 17 -13 25 -28c18 -34 7 -73 -14 -95c-48 -48 -144 -16 -136 66c3 37 31 64 67 69zM79 753c22 3 60 1 92 1h227
c17 0 34 1 41 -8c9 -10 6 -37 6 -57c0 -19 3 -50 -8 -58c-10 -8 -34 -6 -55 -6h-120c-23 0 -44 2 -53 -7c-12 -12 -7 -47 -7 -74c0 -23 -5 -65 7 -77c9 -9 35 -7 52 -7h117c23 0 42 2 51 -7c12 -11 12 -103 0 -115c-8 -8 -31 -7 -51 -7h-115c-22 0 -45 2 -54 -7
c-13 -13 -7 -63 -7 -93c0 -26 -6 -83 7 -96c10 -9 33 -7 54 -7h122c21 0 45 1 53 -7c11 -11 7 -36 7 -57c0 -23 3 -51 -8 -59c-16 -12 -64 -6 -91 -6h-194c-24 0 -79 -5 -91 7s-7 57 -7 88v564c0 34 -10 94 23 95h2z" />
    <glyph glyph-name="Igrave" unicode="&#xcc;" horiz-adv-x="254" 
d="M70 972c16 1 28 -20 37 -33c20 -27 34 -50 56 -80c7 -10 26 -28 25 -43c-1 -12 -14 -19 -25 -26c-9 -6 -23 -16 -35 -16c-16 1 -29 21 -40 31c-26 24 -46 44 -72 70c-9 9 -31 25 -31 40c0 14 24 25 37 33c15 9 31 23 48 24zM79 753c19 2 103 7 116 -6c11 -11 7 -59 7 -88
v-564c0 -28 5 -79 -8 -90c-12 -11 -42 -6 -67 -6c-24 0 -56 -3 -66 7c-11 11 -7 59 -7 87v470v141c0 29 -1 46 25 49z" />
    <glyph glyph-name="Iacute" unicode="&#xcd;" horiz-adv-x="254" 
d="M181 972c17 2 33 -14 49 -24c10 -6 38 -16 39 -32c1 -15 -21 -30 -31 -40l-71 -71c-10 -10 -26 -30 -40 -31c-12 -1 -25 10 -35 16c-11 7 -25 12 -26 25c-1 15 16 33 24 44c21 29 36 51 56 78c8 11 19 33 35 35zM79 753c19 2 103 7 116 -6c11 -11 7 -59 7 -88v-564
c0 -28 5 -79 -8 -90c-12 -11 -42 -6 -67 -6c-24 0 -56 -3 -66 7c-11 11 -7 59 -7 87v470v141c0 29 -1 46 25 49z" />
    <glyph glyph-name="Icircumflex" unicode="&#xce;" horiz-adv-x="254" 
d="M122 971c19 4 37 -20 49 -30l82 -74c14 -13 35 -25 36 -42c0 -15 -14 -23 -22 -33c-9 -9 -16 -24 -30 -24c-17 0 -40 28 -55 43c-13 12 -37 43 -54 43c-12 0 -22 -11 -30 -19c-20 -18 -32 -31 -50 -48c-9 -8 -21 -19 -30 -19c-14 0 -24 16 -31 24c-8 8 -22 17 -21 33
c0 14 21 30 34 41c27 25 52 46 79 70c11 10 26 31 43 35zM79 753c19 2 103 7 116 -6c11 -11 7 -59 7 -88v-564c0 -28 5 -79 -8 -90c-12 -11 -42 -6 -67 -6c-24 0 -56 -3 -66 7c-11 11 -7 59 -7 87v470v141c0 29 -1 46 25 49z" />
    <glyph glyph-name="Idieresis" unicode="&#xcf;" horiz-adv-x="254" 
d="M9 956c23 3 45 -3 58 -12c11 -8 17 -13 25 -28c18 -34 7 -73 -14 -95c-48 -48 -144 -16 -136 66c3 37 31 64 67 69zM220 956c23 3 45 -3 58 -12c11 -8 17 -13 25 -28c18 -34 7 -73 -14 -95c-48 -48 -144 -16 -136 66c3 37 31 64 67 69zM79 753c19 2 103 7 116 -6
c11 -11 7 -59 7 -88v-564c0 -28 5 -79 -8 -90c-12 -11 -42 -6 -67 -6c-24 0 -56 -3 -66 7c-11 11 -7 59 -7 87v470v141c0 29 -1 46 25 49z" />
    <glyph glyph-name="Ntilde" unicode="&#xd1;" horiz-adv-x="759" 
d="M286 937c35 5 69 -10 95 -20c18 -7 47 -24 70 -18c22 5 23 28 43 36c13 6 64 7 71 -7c7 -16 -9 -48 -14 -59c-19 -41 -63 -86 -128 -68c-18 5 -35 15 -51 22c-18 8 -38 17 -57 16c-27 -2 -31 -29 -50 -37c-12 -5 -59 -8 -68 5c-10 14 4 47 11 62c14 31 39 63 78 68z
M80 773c11 1 58 4 75 -2c19 -6 41 -40 54 -58c104 -140 205 -277 312 -416c14 -18 36 -43 39 -2c2 29 0 64 0 91v304c0 20 -2 48 7 57c12 11 45 7 67 7c24 0 60 4 69 -9c11 -16 5 -64 5 -91v-573c0 -28 4 -77 -6 -89c-11 -12 -73 -12 -94 -5c-22 8 -39 40 -53 59
c-105 139 -205 275 -313 415c-7 10 -20 28 -30 25c-11 -3 -9 -34 -9 -53v-371c0 -23 2 -48 -8 -57c-11 -10 -46 -6 -66 -6c-21 0 -54 -4 -66 6c-12 11 -8 59 -8 89v578c0 31 -5 76 5 91c4 6 7 8 20 10z" />
    <glyph glyph-name="Ograve" unicode="&#xd2;" horiz-adv-x="782" 
d="M334 989c16 1 28 -20 37 -33c20 -27 34 -50 56 -80c7 -10 26 -28 25 -43c-1 -12 -14 -19 -25 -26c-9 -6 -23 -16 -35 -16c-16 1 -29 21 -40 31c-26 24 -46 44 -72 70c-9 9 -31 25 -31 40c0 14 24 25 37 33c15 9 31 23 48 24zM367 773c125 7 221 -39 284 -101
s106 -155 112 -273c6 -125 -32 -224 -90 -293c-57 -68 -142 -121 -259 -126c-124 -6 -220 39 -283 100c-66 64 -105 152 -113 272c-8 125 35 227 89 294c41 51 100 93 175 114c26 7 57 11 85 13zM286 600c-70 -41 -123 -124 -115 -236c10 -139 82 -243 233 -238
c69 2 121 36 154 81c33 44 56 108 53 182c-3 71 -30 131 -65 170c-37 41 -96 73 -168 68c-35 -2 -66 -12 -92 -27z" />
    <glyph glyph-name="Oacute" unicode="&#xd3;" horiz-adv-x="782" 
d="M445 989c17 2 33 -14 49 -24c10 -6 38 -16 39 -32c1 -15 -21 -30 -31 -40l-71 -71c-10 -10 -26 -30 -40 -31c-12 -1 -25 10 -35 16c-11 7 -25 12 -26 25c-1 15 16 33 24 44c21 29 36 51 56 78c8 11 19 33 35 35zM367 773c125 7 221 -39 284 -101s106 -155 112 -273
c6 -125 -32 -224 -90 -293c-57 -68 -142 -121 -259 -126c-124 -6 -220 39 -283 100c-66 64 -105 152 -113 272c-8 125 35 227 89 294c41 51 100 93 175 114c26 7 57 11 85 13zM286 600c-70 -41 -123 -124 -115 -236c10 -139 82 -243 233 -238c69 2 121 36 154 81
c33 44 56 108 53 182c-3 71 -30 131 -65 170c-37 41 -96 73 -168 68c-35 -2 -66 -12 -92 -27z" />
    <glyph glyph-name="Ocircumflex" unicode="&#xd4;" horiz-adv-x="782" 
d="M386 988c19 4 37 -20 49 -30l82 -74c14 -13 35 -25 36 -42c0 -15 -14 -23 -22 -33c-9 -9 -16 -24 -30 -24c-17 0 -40 28 -55 43c-13 12 -37 43 -54 43c-12 0 -22 -11 -30 -19c-20 -18 -32 -31 -50 -48c-9 -8 -21 -19 -30 -19c-14 0 -24 16 -31 24c-8 8 -22 17 -21 33
c0 14 21 30 34 41c27 25 52 46 79 70c11 10 26 31 43 35zM367 773c125 7 221 -39 284 -101s106 -155 112 -273c6 -125 -32 -224 -90 -293c-57 -68 -142 -121 -259 -126c-124 -6 -220 39 -283 100c-66 64 -105 152 -113 272c-8 125 35 227 89 294c41 51 100 93 175 114
c26 7 57 11 85 13zM286 600c-70 -41 -123 -124 -115 -236c10 -139 82 -243 233 -238c69 2 121 36 154 81c33 44 56 108 53 182c-3 71 -30 131 -65 170c-37 41 -96 73 -168 68c-35 -2 -66 -12 -92 -27z" />
    <glyph glyph-name="Otilde" unicode="&#xd5;" horiz-adv-x="782" 
d="M297 954c35 5 69 -10 95 -20c18 -7 47 -24 70 -18c22 5 23 28 43 36c13 6 64 7 71 -7c7 -16 -9 -48 -14 -59c-19 -41 -63 -86 -128 -68c-18 5 -35 15 -51 22c-18 8 -38 17 -57 16c-27 -2 -31 -29 -50 -37c-12 -5 -59 -8 -68 5c-10 14 4 47 11 62c14 31 39 63 78 68z
M367 773c125 7 221 -39 284 -101s106 -155 112 -273c6 -125 -32 -224 -90 -293c-57 -68 -142 -121 -259 -126c-124 -6 -220 39 -283 100c-66 64 -105 152 -113 272c-8 125 35 227 89 294c41 51 100 93 175 114c26 7 57 11 85 13zM286 600c-70 -41 -123 -124 -115 -236
c10 -139 82 -243 233 -238c69 2 121 36 154 81c33 44 56 108 53 182c-3 71 -30 131 -65 170c-37 41 -96 73 -168 68c-35 -2 -66 -12 -92 -27z" />
    <glyph glyph-name="Odieresis" unicode="&#xd6;" horiz-adv-x="782" 
d="M273 973c23 3 45 -3 58 -12c11 -8 17 -13 25 -28c18 -34 7 -73 -14 -95c-48 -48 -144 -16 -136 66c3 37 31 64 67 69zM484 973c23 3 45 -3 58 -12c11 -8 17 -13 25 -28c18 -34 7 -73 -14 -95c-48 -48 -144 -16 -136 66c3 37 31 64 67 69zM367 773c125 7 221 -39 284 -101
s106 -155 112 -273c6 -125 -32 -224 -90 -293c-57 -68 -142 -121 -259 -126c-124 -6 -220 39 -283 100c-66 64 -105 152 -113 272c-8 125 35 227 89 294c41 51 100 93 175 114c26 7 57 11 85 13zM286 600c-70 -41 -123 -124 -115 -236c10 -139 82 -243 233 -238
c69 2 121 36 154 81c33 44 56 108 53 182c-3 71 -30 131 -65 170c-37 41 -96 73 -168 68c-35 -2 -66 -12 -92 -27z" />
    <glyph glyph-name="Ugrave" unicode="&#xd9;" horiz-adv-x="660" 
d="M273 972c16 1 28 -20 37 -33c20 -27 34 -50 56 -80c7 -10 26 -28 25 -43c-1 -12 -14 -19 -25 -26c-9 -6 -23 -16 -35 -16c-16 1 -29 21 -40 31c-26 24 -46 44 -72 70c-9 9 -31 25 -31 40c0 14 24 25 37 33c15 9 31 23 48 24zM75 753c12 2 39 1 62 1c20 0 45 2 54 -7
c13 -13 7 -67 7 -91v-291c0 -67 1 -129 19 -176c17 -45 48 -80 114 -80c127 1 132 129 132 257v340c0 16 -1 33 7 41c10 10 39 7 65 7c23 0 57 4 69 -7c9 -10 7 -39 7 -59v-198c0 -88 6 -177 -4 -259c-20 -157 -111 -250 -275 -252c-174 -2 -256 100 -277 250
c-11 79 -5 168 -5 258v198c0 34 -7 64 25 68z" />
    <glyph glyph-name="Uacute" unicode="&#xda;" horiz-adv-x="660" 
d="M384 972c17 2 33 -14 49 -24c10 -6 38 -16 39 -32c1 -15 -21 -30 -31 -40l-71 -71c-10 -10 -26 -30 -40 -31c-12 -1 -25 10 -35 16c-11 7 -25 12 -26 25c-1 15 16 33 24 44c21 29 36 51 56 78c8 11 19 33 35 35zM75 753c12 2 39 1 62 1c20 0 45 2 54 -7
c13 -13 7 -67 7 -91v-291c0 -67 1 -129 19 -176c17 -45 48 -80 114 -80c127 1 132 129 132 257v340c0 16 -1 33 7 41c10 10 39 7 65 7c23 0 57 4 69 -7c9 -10 7 -39 7 -59v-198c0 -88 6 -177 -4 -259c-20 -157 -111 -250 -275 -252c-174 -2 -256 100 -277 250
c-11 79 -5 168 -5 258v198c0 34 -7 64 25 68z" />
    <glyph glyph-name="Ucircumflex" unicode="&#xdb;" horiz-adv-x="660" 
d="M325 971c19 4 37 -20 49 -30l82 -74c14 -13 35 -25 36 -42c0 -15 -14 -23 -22 -33c-9 -9 -16 -24 -30 -24c-17 0 -40 28 -55 43c-13 12 -37 43 -54 43c-12 0 -22 -11 -30 -19c-20 -18 -32 -31 -50 -48c-9 -8 -21 -19 -30 -19c-14 0 -24 16 -31 24c-8 8 -22 17 -21 33
c0 14 21 30 34 41c27 25 52 46 79 70c11 10 26 31 43 35zM75 753c12 2 39 1 62 1c20 0 45 2 54 -7c13 -13 7 -67 7 -91v-291c0 -67 1 -129 19 -176c17 -45 48 -80 114 -80c127 1 132 129 132 257v340c0 16 -1 33 7 41c10 10 39 7 65 7c23 0 57 4 69 -7c9 -10 7 -39 7 -59
v-198c0 -88 6 -177 -4 -259c-20 -157 -111 -250 -275 -252c-174 -2 -256 100 -277 250c-11 79 -5 168 -5 258v198c0 34 -7 64 25 68z" />
    <glyph glyph-name="Udieresis" unicode="&#xdc;" horiz-adv-x="660" 
d="M212 956c23 3 45 -3 58 -12c11 -8 17 -13 25 -28c18 -34 7 -73 -14 -95c-48 -48 -144 -16 -136 66c3 37 31 64 67 69zM423 956c23 3 45 -3 58 -12c11 -8 17 -13 25 -28c18 -34 7 -73 -14 -95c-48 -48 -144 -16 -136 66c3 37 31 64 67 69zM75 753c12 2 39 1 62 1
c20 0 45 2 54 -7c13 -13 7 -67 7 -91v-291c0 -67 1 -129 19 -176c17 -45 48 -80 114 -80c127 1 132 129 132 257v340c0 16 -1 33 7 41c10 10 39 7 65 7c23 0 57 4 69 -7c9 -10 7 -39 7 -59v-198c0 -88 6 -177 -4 -259c-20 -157 -111 -250 -275 -252
c-174 -2 -256 100 -277 250c-11 79 -5 168 -5 258v198c0 34 -7 64 25 68z" />
    <glyph glyph-name="Yacute" unicode="&#xdd;" horiz-adv-x="514" 
d="M311 972c17 2 33 -14 49 -24c10 -6 38 -16 39 -32c1 -15 -21 -30 -31 -40l-71 -71c-10 -10 -26 -30 -40 -31c-12 -1 -25 10 -35 16c-11 7 -25 12 -26 25c-1 15 16 33 24 44c21 29 36 51 56 78c8 11 19 33 35 35zM30 752c18 2 42 1 66 1c19 0 48 2 62 -4
c14 -7 20 -30 28 -49c15 -39 26 -70 42 -111c4 -13 14 -48 26 -49c13 -1 22 39 26 49c14 40 25 70 40 111c5 15 10 41 26 49c17 8 50 4 78 4c18 0 65 6 72 -10c5 -13 -11 -40 -16 -51c-43 -93 -83 -186 -126 -281c-7 -16 -16 -32 -21 -48c-6 -25 -2 -57 -2 -89v-185
c0 -25 4 -73 -8 -84c-11 -9 -42 -5 -67 -5c-24 0 -57 -3 -66 5c-13 12 -8 65 -8 86v186c0 33 2 67 -4 88c-5 15 -13 32 -20 48c-43 94 -86 182 -130 278c-8 18 -31 55 0 61h2z" />
    <glyph glyph-name="agrave" unicode="&#xe0;" horiz-adv-x="528" 
d="M207 969c16 1 28 -20 37 -33c20 -27 34 -50 56 -80c7 -10 26 -28 25 -43c-1 -12 -14 -19 -25 -26c-9 -6 -23 -16 -35 -16c-16 1 -29 21 -40 31c-26 24 -46 44 -72 70c-9 9 -31 25 -31 40c0 14 24 25 37 33c15 9 31 23 48 24zM203 750c15 2 43 1 68 1c21 0 49 4 61 -4
c17 -11 23 -60 30 -88c48 -202 96 -402 145 -606c5 -17 10 -38 3 -47c-9 -13 -45 -8 -68 -8c-30 0 -62 -4 -76 5c-12 9 -14 36 -19 58c-4 20 -9 50 -20 59c-13 9 -44 6 -65 6c-29 0 -53 4 -70 -4c-15 -8 -18 -39 -23 -58c-5 -24 -8 -52 -20 -61c-15 -9 -45 -5 -68 -5
s-57 -3 -65 8c-7 9 0 31 4 48c51 214 102 433 150 647c7 28 6 46 33 49zM237 439c-6 -41 -12 -81 -19 -124c-3 -17 -12 -50 -4 -62s27 -9 44 -9s38 -1 44 9c8 12 -2 48 -5 65c-8 38 -17 84 -25 124c-3 20 -6 56 -18 58c-10 -13 -13 -40 -17 -61z" />
    <glyph glyph-name="aacute" unicode="&#xe1;" horiz-adv-x="528" 
d="M318 969c17 2 33 -14 49 -24c10 -6 38 -16 39 -32c1 -15 -21 -30 -31 -40l-71 -71c-10 -10 -26 -30 -40 -31c-12 -1 -25 10 -35 16c-11 7 -25 12 -26 25c-1 15 16 33 24 44c21 29 36 51 56 78c8 11 19 33 35 35zM203 750c15 2 43 1 68 1c21 0 49 4 61 -4
c17 -11 23 -60 30 -88c48 -202 96 -402 145 -606c5 -17 10 -38 3 -47c-9 -13 -45 -8 -68 -8c-30 0 -62 -4 -76 5c-12 9 -14 36 -19 58c-4 20 -9 50 -20 59c-13 9 -44 6 -65 6c-29 0 -53 4 -70 -4c-15 -8 -18 -39 -23 -58c-5 -24 -8 -52 -20 -61c-15 -9 -45 -5 -68 -5
s-57 -3 -65 8c-7 9 0 31 4 48c51 214 102 433 150 647c7 28 6 46 33 49zM237 439c-6 -41 -12 -81 -19 -124c-3 -17 -12 -50 -4 -62s27 -9 44 -9s38 -1 44 9c8 12 -2 48 -5 65c-8 38 -17 84 -25 124c-3 20 -6 56 -18 58c-10 -13 -13 -40 -17 -61z" />
    <glyph glyph-name="acircumflex" unicode="&#xe2;" horiz-adv-x="528" 
d="M259 968c19 4 37 -20 49 -30l82 -74c14 -13 35 -25 36 -42c0 -15 -14 -23 -22 -33c-9 -9 -16 -24 -30 -24c-17 0 -40 28 -55 43c-13 12 -37 43 -54 43c-12 0 -22 -11 -30 -19c-20 -18 -32 -31 -50 -48c-9 -8 -21 -19 -30 -19c-14 0 -24 16 -31 24c-8 8 -22 17 -21 33
c0 14 21 30 34 41c27 25 52 46 79 70c11 10 26 31 43 35zM203 750c15 2 43 1 68 1c21 0 49 4 61 -4c17 -11 23 -60 30 -88c48 -202 96 -402 145 -606c5 -17 10 -38 3 -47c-9 -13 -45 -8 -68 -8c-30 0 -62 -4 -76 5c-12 9 -14 36 -19 58c-4 20 -9 50 -20 59
c-13 9 -44 6 -65 6c-29 0 -53 4 -70 -4c-15 -8 -18 -39 -23 -58c-5 -24 -8 -52 -20 -61c-15 -9 -45 -5 -68 -5s-57 -3 -65 8c-7 9 0 31 4 48c51 214 102 433 150 647c7 28 6 46 33 49zM237 439c-6 -41 -12 -81 -19 -124c-3 -17 -12 -50 -4 -62s27 -9 44 -9s38 -1 44 9
c8 12 -2 48 -5 65c-8 38 -17 84 -25 124c-3 20 -6 56 -18 58c-10 -13 -13 -40 -17 -61z" />
    <glyph glyph-name="atilde" unicode="&#xe3;" horiz-adv-x="528" 
d="M170 934c35 5 69 -10 95 -20c18 -7 47 -24 70 -18c22 5 23 28 43 36c13 6 64 7 71 -7c7 -16 -9 -48 -14 -59c-19 -41 -63 -86 -128 -68c-18 5 -35 15 -51 22c-18 8 -38 17 -57 16c-27 -2 -31 -29 -50 -37c-12 -5 -59 -8 -68 5c-10 14 4 47 11 62c14 31 39 63 78 68z
M203 750c15 2 43 1 68 1c21 0 49 4 61 -4c17 -11 23 -60 30 -88c48 -202 96 -402 145 -606c5 -17 10 -38 3 -47c-9 -13 -45 -8 -68 -8c-30 0 -62 -4 -76 5c-12 9 -14 36 -19 58c-4 20 -9 50 -20 59c-13 9 -44 6 -65 6c-29 0 -53 4 -70 -4c-15 -8 -18 -39 -23 -58
c-5 -24 -8 -52 -20 -61c-15 -9 -45 -5 -68 -5s-57 -3 -65 8c-7 9 0 31 4 48c51 214 102 433 150 647c7 28 6 46 33 49zM237 439c-6 -41 -12 -81 -19 -124c-3 -17 -12 -50 -4 -62s27 -9 44 -9s38 -1 44 9c8 12 -2 48 -5 65c-8 38 -17 84 -25 124c-3 20 -6 56 -18 58
c-10 -13 -13 -40 -17 -61z" />
    <glyph glyph-name="adieresis" unicode="&#xe4;" horiz-adv-x="528" 
d="M146 953c23 3 45 -3 58 -12c11 -8 17 -13 25 -28c18 -34 7 -73 -14 -95c-48 -48 -144 -16 -136 66c3 37 31 64 67 69zM357 953c23 3 45 -3 58 -12c11 -8 17 -13 25 -28c18 -34 7 -73 -14 -95c-48 -48 -144 -16 -136 66c3 37 31 64 67 69zM203 750c15 2 43 1 68 1
c21 0 49 4 61 -4c17 -11 23 -60 30 -88c48 -202 96 -402 145 -606c5 -17 10 -38 3 -47c-9 -13 -45 -8 -68 -8c-30 0 -62 -4 -76 5c-12 9 -14 36 -19 58c-4 20 -9 50 -20 59c-13 9 -44 6 -65 6c-29 0 -53 4 -70 -4c-15 -8 -18 -39 -23 -58c-5 -24 -8 -52 -20 -61
c-15 -9 -45 -5 -68 -5s-57 -3 -65 8c-7 9 0 31 4 48c51 214 102 433 150 647c7 28 6 46 33 49zM237 439c-6 -41 -12 -81 -19 -124c-3 -17 -12 -50 -4 -62s27 -9 44 -9s38 -1 44 9c8 12 -2 48 -5 65c-8 38 -17 84 -25 124c-3 20 -6 56 -18 58c-10 -13 -13 -40 -17 -61z" />
    <glyph glyph-name="aring" unicode="&#xe5;" horiz-adv-x="528" 
d="M507 53c5 -17 10 -38 3 -47c-9 -13 -45 -8 -68 -8c-30 0 -62 -4 -76 5c-12 9 -14 36 -19 58c-4 20 -9 50 -20 59c-13 9 -44 6 -65 6c-29 0 -53 4 -70 -4c-15 -8 -18 -39 -23 -58c-5 -24 -8 -52 -20 -61c-15 -9 -45 -5 -68 -5s-57 -3 -65 8c-7 9 0 31 4 48
c51 214 102 433 150 647c4 16 5 28 10 37c-10 15 -16 34 -16 55c0 55 45 100 100 100s100 -45 100 -100c0 -23 -8 -44 -21 -61c9 -20 14 -52 19 -73c48 -202 96 -402 145 -606zM264 834c-23 0 -41 -19 -41 -41s17 -41 39 -42h3c23 1 40 19 40 42c0 22 -18 41 -41 41z
M302 253c8 12 -2 48 -5 65c-8 38 -17 84 -25 124c-3 20 -6 56 -18 58c-10 -13 -13 -40 -17 -61c-6 -41 -12 -81 -19 -124c-3 -17 -12 -50 -4 -62s27 -9 44 -9s38 -1 44 9z" />
    <glyph glyph-name="ccedilla" unicode="&#xe7;" horiz-adv-x="452" 
d="M345 760c19 1 66 -1 77 -17c8 -13 6 -40 6 -63c0 -22 4 -53 -8 -62c-8 -6 -25 -3 -41 -2c-104 7 -162 -66 -183 -149c-30 -116 5 -239 73 -295c30 -25 58 -39 107 -37c12 1 32 8 43 1c12 -6 9 -36 9 -61c0 -24 3 -56 -6 -68c-12 -16 -50 -17 -77 -15
c-90 4 -151 38 -199 82c-59 55 -106 144 -118 257c-13 123 23 224 74 296c48 69 128 131 243 133zM286 -26c13 3 31 -7 46 -15c12 -6 32 -15 34 -26c2 -15 -14 -29 -22 -38c-19 -23 -36 -42 -55 -65c-9 -10 -18 -26 -31 -28c-14 -2 -26 7 -37 13s-25 11 -26 23
c-1 11 11 28 17 37c15 23 28 41 43 64c9 14 16 29 31 35z" />
    <glyph glyph-name="egrave" unicode="&#xe8;" horiz-adv-x="392" 
d="M139 967c16 1 28 -20 37 -33c20 -27 34 -50 56 -80c7 -10 26 -28 25 -43c-1 -12 -14 -19 -25 -26c-9 -6 -23 -16 -35 -16c-16 1 -29 21 -40 31c-26 24 -46 44 -72 70c-9 9 -31 25 -31 40c0 14 24 25 37 33c15 9 31 23 48 24zM77 750c30 4 91 1 138 1h69c22 0 53 3 62 -6
c10 -11 6 -42 6 -64c0 -20 4 -52 -6 -63c-11 -11 -44 -6 -68 -6c-23 0 -61 3 -70 -8c-11 -15 -6 -45 -6 -75c0 -23 -4 -63 7 -74c17 -17 103 5 120 -14c10 -12 6 -48 6 -64c0 -20 3 -52 -7 -62c-18 -18 -98 5 -118 -12c-14 -12 -8 -56 -8 -78c0 -21 -5 -71 9 -81
c23 -15 119 9 138 -12c10 -12 5 -44 5 -65s4 -52 -6 -62s-47 -7 -69 -7h-150c-21 0 -59 -2 -69 6c-12 11 -8 59 -8 87v282v281c0 24 -5 76 5 89c5 6 13 7 20 7z" />
    <glyph glyph-name="eacute" unicode="&#xe9;" horiz-adv-x="392" 
d="M250 967c17 2 33 -14 49 -24c10 -6 38 -16 39 -32c1 -15 -21 -30 -31 -40l-71 -71c-10 -10 -26 -30 -40 -31c-12 -1 -25 10 -35 16c-11 7 -25 12 -26 25c-1 15 16 33 24 44c21 29 36 51 56 78c8 11 19 33 35 35zM77 750c30 4 91 1 138 1h69c22 0 53 3 62 -6
c10 -11 6 -42 6 -64c0 -20 4 -52 -6 -63c-11 -11 -44 -6 -68 -6c-23 0 -61 3 -70 -8c-11 -15 -6 -45 -6 -75c0 -23 -4 -63 7 -74c17 -17 103 5 120 -14c10 -12 6 -48 6 -64c0 -20 3 -52 -7 -62c-18 -18 -98 5 -118 -12c-14 -12 -8 -56 -8 -78c0 -21 -5 -71 9 -81
c23 -15 119 9 138 -12c10 -12 5 -44 5 -65s4 -52 -6 -62s-47 -7 -69 -7h-150c-21 0 -59 -2 -69 6c-12 11 -8 59 -8 87v282v281c0 24 -5 76 5 89c5 6 13 7 20 7z" />
    <glyph glyph-name="ecircumflex" unicode="&#xea;" horiz-adv-x="392" 
d="M191 966c19 4 37 -20 49 -30l82 -74c14 -13 35 -25 36 -42c0 -15 -14 -23 -22 -33c-9 -9 -16 -24 -30 -24c-17 0 -40 28 -55 43c-13 12 -37 43 -54 43c-12 0 -22 -11 -30 -19c-20 -18 -32 -31 -50 -48c-9 -8 -21 -19 -30 -19c-14 0 -24 16 -31 24c-8 8 -22 17 -21 33
c0 14 21 30 34 41c27 25 52 46 79 70c11 10 26 31 43 35zM77 750c30 4 91 1 138 1h69c22 0 53 3 62 -6c10 -11 6 -42 6 -64c0 -20 4 -52 -6 -63c-11 -11 -44 -6 -68 -6c-23 0 -61 3 -70 -8c-11 -15 -6 -45 -6 -75c0 -23 -4 -63 7 -74c17 -17 103 5 120 -14
c10 -12 6 -48 6 -64c0 -20 3 -52 -7 -62c-18 -18 -98 5 -118 -12c-14 -12 -8 -56 -8 -78c0 -21 -5 -71 9 -81c23 -15 119 9 138 -12c10 -12 5 -44 5 -65s4 -52 -6 -62s-47 -7 -69 -7h-150c-21 0 -59 -2 -69 6c-12 11 -8 59 -8 87v282v281c0 24 -5 76 5 89c5 6 13 7 20 7z
" />
    <glyph glyph-name="edieresis" unicode="&#xeb;" horiz-adv-x="392" 
d="M78 951c23 3 45 -3 58 -12c11 -8 17 -13 25 -28c18 -34 7 -73 -14 -95c-48 -48 -144 -16 -136 66c3 37 31 64 67 69zM289 951c23 3 45 -3 58 -12c11 -8 17 -13 25 -28c18 -34 7 -73 -14 -95c-48 -48 -144 -16 -136 66c3 37 31 64 67 69zM77 750c30 4 91 1 138 1h69
c22 0 53 3 62 -6c10 -11 6 -42 6 -64c0 -20 4 -52 -6 -63c-11 -11 -44 -6 -68 -6c-23 0 -61 3 -70 -8c-11 -15 -6 -45 -6 -75c0 -23 -4 -63 7 -74c17 -17 103 5 120 -14c10 -12 6 -48 6 -64c0 -20 3 -52 -7 -62c-18 -18 -98 5 -118 -12c-14 -12 -8 -56 -8 -78
c0 -21 -5 -71 9 -81c23 -15 119 9 138 -12c10 -12 5 -44 5 -65s4 -52 -6 -62s-47 -7 -69 -7h-150c-21 0 -59 -2 -69 6c-12 11 -8 59 -8 87v282v281c0 24 -5 76 5 89c5 6 13 7 20 7z" />
    <glyph glyph-name="igrave" unicode="&#xec;" horiz-adv-x="254" 
d="M70 972c16 1 28 -20 37 -33c20 -27 34 -50 56 -80c7 -10 26 -28 25 -43c-1 -12 -14 -19 -25 -26c-9 -6 -23 -16 -35 -16c-16 1 -29 21 -40 31c-26 24 -46 44 -72 70c-9 9 -31 25 -31 40c0 14 24 25 37 33c15 9 31 23 48 24zM79 753c19 2 103 7 116 -6c11 -11 7 -59 7 -88
v-564c0 -28 5 -79 -8 -90c-12 -11 -42 -6 -67 -6c-24 0 -56 -3 -66 7c-11 11 -7 59 -7 87v470v141c0 29 -1 46 25 49z" />
    <glyph glyph-name="iacute" unicode="&#xed;" horiz-adv-x="254" 
d="M181 972c17 2 33 -14 49 -24c10 -6 38 -16 39 -32c1 -15 -21 -30 -31 -40l-71 -71c-10 -10 -26 -30 -40 -31c-12 -1 -25 10 -35 16c-11 7 -25 12 -26 25c-1 15 16 33 24 44c21 29 36 51 56 78c8 11 19 33 35 35zM79 753c19 2 103 7 116 -6c11 -11 7 -59 7 -88v-564
c0 -28 5 -79 -8 -90c-12 -11 -42 -6 -67 -6c-24 0 -56 -3 -66 7c-11 11 -7 59 -7 87v470v141c0 29 -1 46 25 49z" />
    <glyph glyph-name="icircumflex" unicode="&#xee;" horiz-adv-x="254" 
d="M122 971c19 4 37 -20 49 -30l82 -74c14 -13 35 -25 36 -42c0 -15 -14 -23 -22 -33c-9 -9 -16 -24 -30 -24c-17 0 -40 28 -55 43c-13 12 -37 43 -54 43c-12 0 -22 -11 -30 -19c-20 -18 -32 -31 -50 -48c-9 -8 -21 -19 -30 -19c-14 0 -24 16 -31 24c-8 8 -22 17 -21 33
c0 14 21 30 34 41c27 25 52 46 79 70c11 10 26 31 43 35zM79 753c19 2 103 7 116 -6c11 -11 7 -59 7 -88v-564c0 -28 5 -79 -8 -90c-12 -11 -42 -6 -67 -6c-24 0 -56 -3 -66 7c-11 11 -7 59 -7 87v470v141c0 29 -1 46 25 49z" />
    <glyph glyph-name="idieresis" unicode="&#xef;" horiz-adv-x="254" 
d="M9 956c23 3 45 -3 58 -12c11 -8 17 -13 25 -28c18 -34 7 -73 -14 -95c-48 -48 -144 -16 -136 66c3 37 31 64 67 69zM220 956c23 3 45 -3 58 -12c11 -8 17 -13 25 -28c18 -34 7 -73 -14 -95c-48 -48 -144 -16 -136 66c3 37 31 64 67 69zM79 753c19 2 103 7 116 -6
c11 -11 7 -59 7 -88v-564c0 -28 5 -79 -8 -90c-12 -11 -42 -6 -67 -6c-24 0 -56 -3 -66 7c-11 11 -7 59 -7 87v470v141c0 29 -1 46 25 49z" />
    <glyph glyph-name="ntilde" unicode="&#xf1;" horiz-adv-x="573" 
d="M193 937c35 5 69 -10 95 -20c18 -7 47 -24 70 -18c22 5 23 28 43 36c13 6 64 7 71 -7c7 -16 -9 -48 -14 -59c-19 -41 -63 -86 -128 -68c-18 5 -35 15 -51 22c-18 8 -38 17 -57 16c-27 -2 -31 -29 -50 -37c-12 -5 -59 -8 -68 5c-10 14 4 47 11 62c14 31 39 63 78 68z
M365 366c8 11 6 27 6 43v245c0 26 -6 77 6 91c10 11 45 8 68 8c22 0 58 4 69 -7c12 -12 7 -62 7 -88v-565c0 -27 5 -75 -7 -87c-11 -11 -39 -6 -62 -6s-50 -4 -65 3c-13 5 -20 26 -27 44c-41 104 -81 204 -125 307c-6 16 -11 36 -27 45c-9 -11 -6 -29 -6 -45v-303
c0 -17 2 -39 -7 -46c-13 -9 -43 -5 -68 -5c-24 0 -57 -4 -68 6c-11 12 -6 60 -6 88v561c0 27 -6 75 5 89c11 15 51 9 78 9c19 0 43 2 55 -4c12 -7 18 -28 25 -45c40 -100 80 -197 121 -296c7 -16 13 -35 28 -42z" />
    <glyph glyph-name="ograve" unicode="&#xf2;" horiz-adv-x="582" 
d="M234 972c16 1 28 -20 37 -33c20 -27 34 -50 56 -80c7 -10 26 -28 25 -43c-1 -12 -14 -19 -25 -26c-9 -6 -23 -16 -35 -16c-16 1 -29 21 -40 31c-26 24 -46 44 -72 70c-9 9 -31 25 -31 40c0 14 24 25 37 33c15 9 31 23 48 24zM288 764c101 2 167 -54 207 -119
c40 -67 61 -162 61 -265c0 -111 -18 -199 -58 -269c-40 -69 -106 -119 -202 -123c-97 -4 -170 53 -208 119c-59 98 -80 269 -48 414c19 89 56 161 122 205c32 22 74 38 126 38zM221 577c-50 -89 -48 -321 4 -406c6 -11 17 -24 26 -30c20 -15 50 -16 70 -6
c43 21 59 81 68 139c16 108 9 258 -38 319c-13 18 -38 35 -67 31c-32 -3 -50 -23 -63 -47z" />
    <glyph glyph-name="oacute" unicode="&#xf3;" horiz-adv-x="582" 
d="M345 972c17 2 33 -14 49 -24c10 -6 38 -16 39 -32c1 -15 -21 -30 -31 -40l-71 -71c-10 -10 -26 -30 -40 -31c-12 -1 -25 10 -35 16c-11 7 -25 12 -26 25c-1 15 16 33 24 44c21 29 36 51 56 78c8 11 19 33 35 35zM288 764c101 2 167 -54 207 -119c40 -67 61 -162 61 -265
c0 -111 -18 -199 -58 -269c-40 -69 -106 -119 -202 -123c-97 -4 -170 53 -208 119c-59 98 -80 269 -48 414c19 89 56 161 122 205c32 22 74 38 126 38zM221 577c-50 -89 -48 -321 4 -406c6 -11 17 -24 26 -30c20 -15 50 -16 70 -6c43 21 59 81 68 139c16 108 9 258 -38 319
c-13 18 -38 35 -67 31c-32 -3 -50 -23 -63 -47z" />
    <glyph glyph-name="ocircumflex" unicode="&#xf4;" horiz-adv-x="582" 
d="M286 971c19 4 37 -20 49 -30l82 -74c14 -13 35 -25 36 -42c0 -15 -14 -23 -22 -33c-9 -9 -16 -24 -30 -24c-17 0 -40 28 -55 43c-13 12 -37 43 -54 43c-12 0 -22 -11 -30 -19c-20 -18 -32 -31 -50 -48c-9 -8 -21 -19 -30 -19c-14 0 -24 16 -31 24c-8 8 -22 17 -21 33
c0 14 21 30 34 41c27 25 52 46 79 70c11 10 26 31 43 35zM288 764c101 2 167 -54 207 -119c40 -67 61 -162 61 -265c0 -111 -18 -199 -58 -269c-40 -69 -106 -119 -202 -123c-97 -4 -170 53 -208 119c-59 98 -80 269 -48 414c19 89 56 161 122 205c32 22 74 38 126 38z
M221 577c-50 -89 -48 -321 4 -406c6 -11 17 -24 26 -30c20 -15 50 -16 70 -6c43 21 59 81 68 139c16 108 9 258 -38 319c-13 18 -38 35 -67 31c-32 -3 -50 -23 -63 -47z" />
    <glyph glyph-name="otilde" unicode="&#xf5;" horiz-adv-x="582" 
d="M197 937c35 5 69 -10 95 -20c18 -7 47 -24 70 -18c22 5 23 28 43 36c13 6 64 7 71 -7c7 -16 -9 -48 -14 -59c-19 -41 -63 -86 -128 -68c-18 5 -35 15 -51 22c-18 8 -38 17 -57 16c-27 -2 -31 -29 -50 -37c-12 -5 -59 -8 -68 5c-10 14 4 47 11 62c14 31 39 63 78 68z
M288 764c101 2 167 -54 207 -119c40 -67 61 -162 61 -265c0 -111 -18 -199 -58 -269c-40 -69 -106 -119 -202 -123c-97 -4 -170 53 -208 119c-59 98 -80 269 -48 414c19 89 56 161 122 205c32 22 74 38 126 38zM221 577c-50 -89 -48 -321 4 -406c6 -11 17 -24 26 -30
c20 -15 50 -16 70 -6c43 21 59 81 68 139c16 108 9 258 -38 319c-13 18 -38 35 -67 31c-32 -3 -50 -23 -63 -47z" />
    <glyph glyph-name="odieresis" unicode="&#xf6;" horiz-adv-x="582" 
d="M173 956c23 3 45 -3 58 -12c11 -8 17 -13 25 -28c18 -34 7 -73 -14 -95c-48 -48 -144 -16 -136 66c3 37 31 64 67 69zM384 956c23 3 45 -3 58 -12c11 -8 17 -13 25 -28c18 -34 7 -73 -14 -95c-48 -48 -144 -16 -136 66c3 37 31 64 67 69zM288 764c101 2 167 -54 207 -119
c40 -67 61 -162 61 -265c0 -111 -18 -199 -58 -269c-40 -69 -106 -119 -202 -123c-97 -4 -170 53 -208 119c-59 98 -80 269 -48 414c19 89 56 161 122 205c32 22 74 38 126 38zM221 577c-50 -89 -48 -321 4 -406c6 -11 17 -24 26 -30c20 -15 50 -16 70 -6
c43 21 59 81 68 139c16 108 9 258 -38 319c-13 18 -38 35 -67 31c-32 -3 -50 -23 -63 -47z" />
    <glyph glyph-name="ugrave" unicode="&#xf9;" horiz-adv-x="544" 
d="M215 972c16 1 28 -20 37 -33c20 -27 34 -50 56 -80c7 -10 26 -28 25 -43c-1 -12 -14 -19 -25 -26c-9 -6 -23 -16 -35 -16c-16 1 -29 21 -40 31c-26 24 -46 44 -72 70c-9 9 -31 25 -31 40c0 14 24 25 37 33c15 9 31 23 48 24zM73 752c13 1 39 1 62 1c20 0 50 2 58 -8
c9 -13 5 -49 5 -70v-376c0 -71 -6 -153 49 -171c40 -13 75 4 87 30c16 31 11 94 11 141v379c0 23 -4 57 7 68s45 7 68 7c24 0 57 4 68 -7c9 -10 7 -39 7 -56v-431c0 -92 0 -156 -41 -206c-37 -44 -100 -65 -181 -65c-124 0 -199 49 -218 152c-7 33 -6 71 -6 116v432
c0 32 -6 60 24 64z" />
    <glyph glyph-name="uacute" unicode="&#xfa;" horiz-adv-x="544" 
d="M326 972c17 2 33 -14 49 -24c10 -6 38 -16 39 -32c1 -15 -21 -30 -31 -40l-71 -71c-10 -10 -26 -30 -40 -31c-12 -1 -25 10 -35 16c-11 7 -25 12 -26 25c-1 15 16 33 24 44c21 29 36 51 56 78c8 11 19 33 35 35zM73 752c13 1 39 1 62 1c20 0 50 2 58 -8
c9 -13 5 -49 5 -70v-376c0 -71 -6 -153 49 -171c40 -13 75 4 87 30c16 31 11 94 11 141v379c0 23 -4 57 7 68s45 7 68 7c24 0 57 4 68 -7c9 -10 7 -39 7 -56v-431c0 -92 0 -156 -41 -206c-37 -44 -100 -65 -181 -65c-124 0 -199 49 -218 152c-7 33 -6 71 -6 116v432
c0 32 -6 60 24 64z" />
    <glyph glyph-name="ucircumflex" unicode="&#xfb;" horiz-adv-x="544" 
d="M267 971c19 4 37 -20 49 -30l82 -74c14 -13 35 -25 36 -42c0 -15 -14 -23 -22 -33c-9 -9 -16 -24 -30 -24c-17 0 -40 28 -55 43c-13 12 -37 43 -54 43c-12 0 -22 -11 -30 -19c-20 -18 -32 -31 -50 -48c-9 -8 -21 -19 -30 -19c-14 0 -24 16 -31 24c-8 8 -22 17 -21 33
c0 14 21 30 34 41c27 25 52 46 79 70c11 10 26 31 43 35zM73 752c13 1 39 1 62 1c20 0 50 2 58 -8c9 -13 5 -49 5 -70v-376c0 -71 -6 -153 49 -171c40 -13 75 4 87 30c16 31 11 94 11 141v379c0 23 -4 57 7 68s45 7 68 7c24 0 57 4 68 -7c9 -10 7 -39 7 -56v-431
c0 -92 0 -156 -41 -206c-37 -44 -100 -65 -181 -65c-124 0 -199 49 -218 152c-7 33 -6 71 -6 116v432c0 32 -6 60 24 64z" />
    <glyph glyph-name="udieresis" unicode="&#xfc;" horiz-adv-x="544" 
d="M154 956c23 3 45 -3 58 -12c11 -8 17 -13 25 -28c18 -34 7 -73 -14 -95c-48 -48 -144 -16 -136 66c3 37 31 64 67 69zM365 956c23 3 45 -3 58 -12c11 -8 17 -13 25 -28c18 -34 7 -73 -14 -95c-48 -48 -144 -16 -136 66c3 37 31 64 67 69zM73 752c13 1 39 1 62 1
c20 0 50 2 58 -8c9 -13 5 -49 5 -70v-376c0 -71 -6 -153 49 -171c40 -13 75 4 87 30c16 31 11 94 11 141v379c0 23 -4 57 7 68s45 7 68 7c24 0 57 4 68 -7c9 -10 7 -39 7 -56v-431c0 -92 0 -156 -41 -206c-37 -44 -100 -65 -181 -65c-124 0 -199 49 -218 152
c-7 33 -6 71 -6 116v432c0 32 -6 60 24 64z" />
    <glyph glyph-name="yacute" unicode="&#xfd;" horiz-adv-x="587" 
d="M348 970c17 2 33 -14 49 -24c10 -6 38 -16 39 -32c1 -15 -21 -30 -31 -40l-71 -71c-10 -10 -26 -30 -40 -31c-12 -1 -25 10 -35 16c-11 7 -25 12 -26 25c-1 15 16 33 24 44c21 29 36 51 56 78c8 11 19 33 35 35zM15 753c19 2 43 1 69 1c23 0 52 3 66 -4
c15 -7 27 -40 36 -58c22 -44 41 -79 63 -124c8 -15 21 -55 37 -56c12 -1 19 16 24 25c31 54 57 102 86 156c11 19 25 51 41 58c19 8 54 3 80 3c21 0 66 6 72 -10c6 -17 -16 -41 -23 -53c-58 -99 -115 -198 -172 -296c-10 -17 -23 -35 -27 -51c-5 -22 -2 -57 -2 -85v-174
c0 -22 4 -68 -7 -79c-10 -11 -40 -7 -66 -7c-25 0 -60 -4 -69 8c-8 11 -6 50 -6 77v82c0 59 4 115 0 164c-2 24 -17 46 -28 65c-56 101 -112 195 -169 294c-10 17 -42 58 -7 64h2z" />
    <glyph glyph-name="ydieresis" unicode="&#xff;" horiz-adv-x="587" 
d="M176 954c23 3 45 -3 58 -12c11 -8 17 -13 25 -28c18 -34 7 -73 -14 -95c-48 -48 -144 -16 -136 66c3 37 31 64 67 69zM387 954c23 3 45 -3 58 -12c11 -8 17 -13 25 -28c18 -34 7 -73 -14 -95c-48 -48 -144 -16 -136 66c3 37 31 64 67 69zM15 753c19 2 43 1 69 1
c23 0 52 3 66 -4c15 -7 27 -40 36 -58c22 -44 41 -79 63 -124c8 -15 21 -55 37 -56c12 -1 19 16 24 25c31 54 57 102 86 156c11 19 25 51 41 58c19 8 54 3 80 3c21 0 66 6 72 -10c6 -17 -16 -41 -23 -53c-58 -99 -115 -198 -172 -296c-10 -17 -23 -35 -27 -51
c-5 -22 -2 -57 -2 -85v-174c0 -22 4 -68 -7 -79c-10 -11 -40 -7 -66 -7c-25 0 -60 -4 -69 8c-8 11 -6 50 -6 77v82c0 59 4 115 0 164c-2 24 -17 46 -28 65c-56 101 -112 195 -169 294c-10 17 -42 58 -7 64h2z" />
    <glyph glyph-name="Aogonek" unicode="&#x104;" horiz-adv-x="687" 
d="M706 -114c12 -10 -1 -51 -8 -60c-13 -17 -47 -21 -76 -19c-46 3 -83 35 -88 75c-3 34 10 64 24 84c8 12 18 24 30 33c-21 -1 -41 -1 -50 5c-15 9 -27 55 -35 76l-15 41c-5 12 -9 29 -21 34c-13 5 -39 3 -60 3h-125c-19 0 -44 3 -59 -3c-13 -5 -18 -21 -23 -34
c-11 -28 -20 -53 -32 -82c-6 -16 -12 -32 -26 -37c-16 -6 -44 -3 -72 -3c-24 0 -58 -5 -64 10c-5 13 7 36 13 51c84 223 169 445 253 667c9 23 12 42 39 46c19 2 74 5 89 -5c11 -7 16 -25 23 -43c44 -119 77 -210 123 -333c43 -113 80 -218 123 -333c6 -15 17 -37 11 -50
c-4 -7 -13 -10 -24 -11c-12 -27 -41 -46 -28 -84c6 -14 18 -26 33 -28c18 -3 36 9 45 0zM423 287c9 15 -9 47 -14 63c-14 42 -26 79 -41 121c-4 12 -15 57 -30 53c-14 -3 -20 -43 -24 -56c-12 -39 -24 -75 -36 -116c-5 -17 -19 -47 -13 -62c7 -17 52 -11 77 -11
c22 0 73 -6 81 8z" />
    <glyph glyph-name="Iogonek" unicode="&#x12e;" horiz-adv-x="254" 
d="M207 -117c12 -10 -1 -51 -8 -60c-13 -17 -47 -21 -76 -19c-46 3 -83 35 -88 75c-3 34 10 64 24 84c9 13 20 27 34 36c-14 0 -26 1 -32 7c-11 11 -7 59 -7 87v470v141c0 29 -1 46 25 49c19 2 103 7 116 -6c11 -11 7 -59 7 -88v-564c0 -28 5 -79 -8 -90
c-7 -7 -21 -7 -36 -7c-11 -29 -43 -48 -29 -87c6 -14 18 -26 33 -28c18 -3 36 9 45 0z" />
    <glyph glyph-name="Amacron" unicode="&#x100;" horiz-adv-x="687" 
d="M177 951c0 0 0 1 1 1c57 4 111 0 179 0h134c18 0 31 -1 37 -7c11 -11 11 -63 0 -74c-13 -12 -61 -7 -89 -7h-192c-27 0 -76 -6 -88 7c-10 9 -13 58 -2 72c5 6 12 7 20 8zM311 773c19 2 74 5 89 -5c11 -7 16 -25 23 -43c44 -119 77 -210 123 -333
c43 -113 80 -218 123 -333c6 -15 17 -37 11 -50c-8 -16 -41 -10 -67 -10c-28 0 -62 -3 -75 5c-15 9 -27 55 -35 76l-15 41c-5 12 -9 29 -21 34c-13 5 -39 3 -60 3h-125c-19 0 -44 3 -59 -3c-13 -5 -18 -21 -23 -34c-11 -28 -20 -53 -32 -82c-6 -16 -12 -32 -26 -37
c-16 -6 -44 -3 -72 -3c-24 0 -58 -5 -64 10c-5 13 7 36 13 51c84 223 169 445 253 667c9 23 12 42 39 46zM314 468c-12 -39 -24 -75 -36 -116c-5 -17 -19 -47 -13 -62c7 -17 52 -11 77 -11c22 0 73 -6 81 8c9 15 -9 47 -14 63c-14 42 -26 79 -41 121c-4 12 -15 57 -30 53
c-14 -3 -20 -43 -24 -56z" />
    <glyph glyph-name="Cacute" unicode="&#x106;" horiz-adv-x="601" 
d="M355 972c17 2 33 -14 49 -24c10 -6 38 -16 39 -32c1 -15 -21 -30 -31 -40l-71 -71c-10 -10 -26 -30 -40 -31c-12 -1 -25 10 -35 16c-11 7 -25 12 -26 25c-1 15 16 33 24 44c21 29 36 51 56 78c8 11 19 33 35 35zM369 773c33 2 72 -1 107 -10c26 -7 68 -17 78 -39
c8 -17 4 -53 4 -78c0 -17 5 -68 -9 -72c-10 -3 -22 10 -29 15c-26 19 -55 33 -90 40c-55 10 -105 -3 -141 -24c-69 -40 -116 -117 -119 -228c-2 -57 13 -100 35 -139c21 -38 48 -69 83 -90c36 -21 91 -34 143 -23c34 7 63 22 89 41c8 6 19 17 29 14c14 -4 9 -54 9 -73
c0 -30 3 -62 -5 -77c-11 -20 -50 -29 -73 -36c-27 -8 -61 -15 -93 -15c-70 0 -125 19 -172 44c-90 48 -157 137 -185 248c-33 131 5 264 62 345c44 63 100 112 184 140c29 10 60 15 93 17z" />
    <glyph glyph-name="Eogonek" unicode="&#x118;" horiz-adv-x="488" 
d="M438 121c11 -11 7 -36 7 -57c0 -23 3 -51 -8 -59c-16 -12 -64 -6 -91 -6h-67c-10 -30 -44 -49 -30 -89c6 -14 18 -26 33 -28c18 -3 36 9 45 0c12 -10 -1 -51 -8 -60c-13 -17 -47 -21 -76 -19c-46 3 -83 35 -88 75c-3 34 10 64 24 84c10 14 21 28 36 37h-63
c-24 0 -79 -5 -91 7s-7 57 -7 88v564c0 34 -10 94 23 95h2c22 3 60 1 92 1h227c17 0 34 1 41 -8c9 -10 6 -37 6 -57c0 -19 3 -50 -8 -58c-10 -8 -34 -6 -55 -6h-120c-23 0 -44 2 -53 -7c-12 -12 -7 -47 -7 -74c0 -23 -5 -65 7 -77c9 -9 35 -7 52 -7h117c23 0 42 2 51 -7
c12 -11 12 -103 0 -115c-8 -8 -31 -7 -51 -7h-115c-22 0 -45 2 -54 -7c-13 -13 -7 -63 -7 -93c0 -26 -6 -83 7 -96c10 -9 33 -7 54 -7h122c21 0 45 1 53 -7z" />
    <glyph glyph-name="Emacron" unicode="&#x112;" horiz-adv-x="488" 
d="M78 928c0 0 0 1 1 1c57 4 111 0 179 0h134c18 0 31 -1 37 -7c11 -11 11 -63 0 -74c-13 -12 -61 -7 -89 -7h-192c-27 0 -76 -6 -88 7c-10 9 -13 58 -2 72c5 6 12 7 20 8zM79 753c22 3 60 1 92 1h227c17 0 34 1 41 -8c9 -10 6 -37 6 -57c0 -19 3 -50 -8 -58
c-10 -8 -34 -6 -55 -6h-120c-23 0 -44 2 -53 -7c-12 -12 -7 -47 -7 -74c0 -23 -5 -65 7 -77c9 -9 35 -7 52 -7h117c23 0 42 2 51 -7c12 -11 12 -103 0 -115c-8 -8 -31 -7 -51 -7h-115c-22 0 -45 2 -54 -7c-13 -13 -7 -63 -7 -93c0 -26 -6 -83 7 -96c10 -9 33 -7 54 -7h122
c21 0 45 1 53 -7c11 -11 7 -36 7 -57c0 -23 3 -51 -8 -59c-16 -12 -64 -6 -91 -6h-194c-24 0 -79 -5 -91 7s-7 57 -7 88v564c0 34 -10 94 23 95h2z" />
    <glyph glyph-name="Ccaron" unicode="&#x10c;" horiz-adv-x="601" 
d="M182 981c12 1 23 -10 33 -19c19 -17 34 -31 54 -48c10 -9 21 -19 31 -19c13 0 21 11 32 20l55 47c8 7 21 20 31 20c14 0 23 -14 31 -23c7 -8 22 -21 22 -32c0 -17 -27 -34 -37 -43c-31 -27 -55 -48 -86 -74c-13 -11 -31 -33 -47 -33c-18 0 -36 23 -47 33
c-28 25 -56 48 -85 74c-9 8 -37 24 -38 41c-1 12 10 21 20 32s19 23 31 24zM369 773c33 2 72 -1 107 -10c26 -7 68 -17 78 -39c8 -17 4 -53 4 -78c0 -17 5 -68 -9 -72c-10 -3 -22 10 -29 15c-26 19 -55 33 -90 40c-55 10 -105 -3 -141 -24c-69 -40 -116 -117 -119 -228
c-2 -57 13 -100 35 -139c21 -38 48 -69 83 -90c36 -21 91 -34 143 -23c34 7 63 22 89 41c8 6 19 17 29 14c14 -4 9 -54 9 -73c0 -30 3 -62 -5 -77c-11 -20 -50 -29 -73 -36c-27 -8 -61 -15 -93 -15c-70 0 -125 19 -172 44c-90 48 -157 137 -185 248c-33 131 5 264 62 345
c44 63 100 112 184 140c29 10 60 15 93 17z" />
    <glyph glyph-name="Zacute" unicode="&#x179;" horiz-adv-x="508" 
d="M308 972c17 2 33 -14 49 -24c10 -6 38 -16 39 -32c1 -15 -21 -30 -31 -40l-71 -71c-10 -10 -26 -30 -40 -31c-12 -1 -25 10 -35 16c-11 7 -25 12 -26 25c-1 15 16 33 24 44c21 29 36 51 56 78c8 11 19 33 35 35zM74 752c27 3 68 1 105 1h207c27 0 87 6 95 -9
c5 -10 -4 -28 -9 -40c-74 -174 -143 -340 -216 -514c-5 -12 -14 -28 -10 -39c4 -12 24 -10 48 -10h119c20 0 43 1 51 -7c10 -10 7 -41 7 -63c0 -26 3 -56 -8 -66c-14 -12 -81 -5 -107 -5h-281c-19 0 -42 -2 -47 8s4 28 9 40c71 174 138 340 209 513c5 12 15 27 11 40
c-5 18 -71 12 -97 12h-54c-19 0 -42 -3 -51 7c-8 10 -6 46 -6 62c0 15 -4 50 5 62c4 6 11 6 20 8z" />
    <glyph glyph-name="Edotaccent" unicode="&#x116;" horiz-adv-x="488" 
d="M232 976c40 6 71 -16 84 -42c28 -60 -18 -115 -70 -116c-43 -1 -87 36 -81 91c4 36 32 62 67 67zM79 753c22 3 60 1 92 1h227c17 0 34 1 41 -8c9 -10 6 -37 6 -57c0 -19 3 -50 -8 -58c-10 -8 -34 -6 -55 -6h-120c-23 0 -44 2 -53 -7c-12 -12 -7 -47 -7 -74
c0 -23 -5 -65 7 -77c9 -9 35 -7 52 -7h117c23 0 42 2 51 -7c12 -11 12 -103 0 -115c-8 -8 -31 -7 -51 -7h-115c-22 0 -45 2 -54 -7c-13 -13 -7 -63 -7 -93c0 -26 -6 -83 7 -96c10 -9 33 -7 54 -7h122c21 0 45 1 53 -7c11 -11 7 -36 7 -57c0 -23 3 -51 -8 -59
c-16 -12 -64 -6 -91 -6h-194c-24 0 -79 -5 -91 7s-7 57 -7 88v564c0 34 -10 94 23 95h2z" />
    <glyph glyph-name="Nacute" unicode="&#x143;" horiz-adv-x="759" 
d="M434 972c17 2 33 -14 49 -24c10 -6 38 -16 39 -32c1 -15 -21 -30 -31 -40l-71 -71c-10 -10 -26 -30 -40 -31c-12 -1 -25 10 -35 16c-11 7 -25 12 -26 25c-1 15 16 33 24 44c21 29 36 51 56 78c8 11 19 33 35 35zM80 773c11 1 58 4 75 -2c19 -6 41 -40 54 -58
c104 -140 205 -277 312 -416c14 -18 36 -43 39 -2c2 29 0 64 0 91v304c0 20 -2 48 7 57c12 11 45 7 67 7c24 0 60 4 69 -9c11 -16 5 -64 5 -91v-573c0 -28 4 -77 -6 -89c-11 -12 -73 -12 -94 -5c-22 8 -39 40 -53 59c-105 139 -205 275 -313 415c-7 10 -20 28 -30 25
c-11 -3 -9 -34 -9 -53v-371c0 -23 2 -48 -8 -57c-11 -10 -46 -6 -66 -6c-21 0 -54 -4 -66 6c-12 11 -8 59 -8 89v578c0 31 -5 76 5 91c4 6 7 8 20 10z" />
    <glyph glyph-name="Omacron" unicode="&#x14c;" horiz-adv-x="782" 
d="M225 945c0 0 0 1 1 1c57 4 111 0 179 0h134c18 0 31 -1 37 -7c11 -11 11 -63 0 -74c-13 -12 -61 -7 -89 -7h-192c-27 0 -76 -6 -88 7c-10 9 -13 58 -2 72c5 6 12 7 20 8zM367 773c125 7 221 -39 284 -101s106 -155 112 -273c6 -125 -32 -224 -90 -293
c-57 -68 -142 -121 -259 -126c-124 -6 -220 39 -283 100c-66 64 -105 152 -113 272c-8 125 35 227 89 294c41 51 100 93 175 114c26 7 57 11 85 13zM286 600c-70 -41 -123 -124 -115 -236c10 -139 82 -243 233 -238c69 2 121 36 154 81c33 44 56 108 53 182
c-3 71 -30 131 -65 170c-37 41 -96 73 -168 68c-35 -2 -66 -12 -92 -27z" />
    <glyph glyph-name="Uogonek" unicode="&#x172;" horiz-adv-x="660" 
d="M611 490c0 -88 6 -177 -4 -259c-19 -149 -102 -240 -250 -251c-13 -20 -31 -39 -20 -69c6 -14 18 -26 33 -28c18 -3 36 9 45 0c12 -10 -1 -51 -8 -60c-13 -17 -47 -21 -76 -19c-46 3 -83 35 -88 75c-3 34 10 64 24 84c4 6 9 13 15 19c-140 16 -208 112 -227 247
c-11 79 -5 168 -5 258v198c0 34 -7 64 25 68c12 2 39 1 62 1c20 0 45 2 54 -7c13 -13 7 -67 7 -91v-291c0 -67 1 -129 19 -176c17 -45 48 -80 114 -80c127 1 132 129 132 257v340c0 16 -1 33 7 41c10 10 39 7 65 7c23 0 57 4 69 -7c9 -10 7 -39 7 -59v-198z" />
    <glyph glyph-name="Sacute" unicode="&#x15a;" horiz-adv-x="526" 
d="M317 972c17 2 33 -14 49 -24c10 -6 38 -16 39 -32c1 -15 -21 -30 -31 -40l-71 -71c-10 -10 -26 -30 -40 -31c-12 -1 -25 10 -35 16c-11 7 -25 12 -26 25c-1 15 16 33 24 44c21 29 36 51 56 78c8 11 19 33 35 35zM258 773c63 4 131 -20 175 -47c14 -8 36 -20 37 -37
c2 -19 -16 -35 -26 -49c-7 -11 -18 -38 -35 -40s-29 20 -47 31c-17 10 -48 20 -80 16c-34 -5 -57 -24 -69 -48c-6 -13 -10 -38 -4 -56c15 -43 66 -60 107 -78c88 -38 168 -77 184 -185c17 -118 -31 -215 -102 -261c-39 -26 -85 -40 -144 -40c-86 0 -145 40 -189 88
c-11 12 -36 38 -35 57s23 34 36 47c6 6 14 12 22 20c6 5 13 17 25 16s20 -18 26 -28c20 -30 53 -59 93 -66c68 -13 112 36 117 92c7 82 -55 106 -110 128c-83 33 -166 72 -184 173c-13 76 12 143 45 185c17 21 36 39 64 55c26 15 56 25 94 27z" />
    <glyph glyph-name="Umacron" unicode="&#x16a;" horiz-adv-x="660" 
d="M164 928c0 0 0 1 1 1c57 4 111 0 179 0h134c18 0 31 -1 37 -7c11 -11 11 -63 0 -74c-13 -12 -61 -7 -89 -7h-192c-27 0 -76 -6 -88 7c-10 9 -13 58 -2 72c5 6 12 7 20 8zM75 753c12 2 39 1 62 1c20 0 45 2 54 -7c13 -13 7 -67 7 -91v-291c0 -67 1 -129 19 -176
c17 -45 48 -80 114 -80c127 1 132 129 132 257v340c0 16 -1 33 7 41c10 10 39 7 65 7c23 0 57 4 69 -7c9 -10 7 -39 7 -59v-198c0 -88 6 -177 -4 -259c-20 -157 -111 -250 -275 -252c-174 -2 -256 100 -277 250c-11 79 -5 168 -5 258v198c0 34 -7 64 25 68z" />
    <glyph glyph-name="Zdotaccent" unicode="&#x17b;" horiz-adv-x="508" 
d="M242 976c40 6 71 -16 84 -42c28 -60 -18 -115 -70 -116c-43 -1 -87 36 -81 91c4 36 32 62 67 67zM74 752c27 3 68 1 105 1h207c27 0 87 6 95 -9c5 -10 -4 -28 -9 -40c-74 -174 -143 -340 -216 -514c-5 -12 -14 -28 -10 -39c4 -12 24 -10 48 -10h119c20 0 43 1 51 -7
c10 -10 7 -41 7 -63c0 -26 3 -56 -8 -66c-14 -12 -81 -5 -107 -5h-281c-19 0 -42 -2 -47 8s4 28 9 40c71 174 138 340 209 513c5 12 15 27 11 40c-5 18 -71 12 -97 12h-54c-19 0 -42 -3 -51 7c-8 10 -6 46 -6 62c0 15 -4 50 5 62c4 6 11 6 20 8z" />
    <glyph glyph-name="aogonek" unicode="&#x105;" horiz-adv-x="528" 
d="M545 -117c12 -10 -1 -51 -8 -60c-13 -17 -47 -21 -76 -19c-46 3 -83 35 -88 75c-3 34 10 64 24 84c9 13 20 26 33 35c-26 -1 -52 -3 -64 5c-12 9 -14 36 -19 58c-4 20 -9 50 -20 59c-13 9 -44 6 -65 6c-29 0 -53 4 -70 -4c-15 -8 -18 -39 -23 -58c-5 -24 -8 -52 -20 -61
c-15 -9 -45 -5 -68 -5s-57 -3 -65 8c-7 9 0 31 4 48c51 214 102 433 150 647c7 28 6 46 33 49c15 2 43 1 68 1c21 0 49 4 61 -4c17 -11 23 -60 30 -88c48 -202 96 -402 145 -606c5 -17 10 -38 3 -47c-3 -4 -7 -6 -13 -7c-11 -30 -44 -49 -30 -88c6 -14 18 -26 33 -28
c18 -3 36 9 45 0zM302 253c8 12 -2 48 -5 65c-8 38 -17 84 -25 124c-3 20 -6 56 -18 58c-10 -13 -13 -40 -17 -61c-6 -41 -12 -81 -19 -124c-3 -17 -12 -50 -4 -62s27 -9 44 -9s38 -1 44 9z" />
    <glyph glyph-name="iogonek" unicode="&#x12f;" horiz-adv-x="254" 
d="M129 818c-43 -1 -87 36 -81 91c4 36 32 62 67 67c40 6 71 -16 84 -42c28 -60 -18 -115 -70 -116zM230 -115c12 -10 -1 -51 -8 -60c-13 -17 -47 -21 -76 -19c-46 3 -83 35 -88 75c-3 34 10 64 24 84c9 12 19 25 32 34c-22 -1 -45 -1 -53 7c-11 11 -7 59 -7 87v470v141
c0 29 -1 46 25 49c19 2 103 7 116 -6c11 -11 7 -59 7 -88v-564c0 -28 5 -79 -8 -90c-3 -3 -8 -5 -13 -6c-11 -28 -43 -47 -29 -86c6 -14 18 -26 33 -28c18 -3 36 9 45 0z" />
    <glyph glyph-name="amacron" unicode="&#x101;" horiz-adv-x="528" 
d="M98 925c0 0 0 1 1 1c57 4 111 0 179 0h134c18 0 31 -1 37 -7c11 -11 11 -63 0 -74c-13 -12 -61 -7 -89 -7h-192c-27 0 -76 -6 -88 7c-10 9 -13 58 -2 72c5 6 12 7 20 8zM203 750c15 2 43 1 68 1c21 0 49 4 61 -4c17 -11 23 -60 30 -88c48 -202 96 -402 145 -606
c5 -17 10 -38 3 -47c-9 -13 -45 -8 -68 -8c-30 0 -62 -4 -76 5c-12 9 -14 36 -19 58c-4 20 -9 50 -20 59c-13 9 -44 6 -65 6c-29 0 -53 4 -70 -4c-15 -8 -18 -39 -23 -58c-5 -24 -8 -52 -20 -61c-15 -9 -45 -5 -68 -5s-57 -3 -65 8c-7 9 0 31 4 48c51 214 102 433 150 647
c7 28 6 46 33 49zM237 439c-6 -41 -12 -81 -19 -124c-3 -17 -12 -50 -4 -62s27 -9 44 -9s38 -1 44 9c8 12 -2 48 -5 65c-8 38 -17 84 -25 124c-3 20 -6 56 -18 58c-10 -13 -13 -40 -17 -61z" />
    <glyph glyph-name="cacute" unicode="&#x107;" horiz-adv-x="452" 
d="M341 972c17 2 33 -14 49 -24c10 -6 38 -16 39 -32c1 -15 -21 -30 -31 -40l-71 -71c-10 -10 -26 -30 -40 -31c-12 -1 -25 10 -35 16c-11 7 -25 12 -26 25c-1 15 16 33 24 44c21 29 36 51 56 78c8 11 19 33 35 35zM345 760c19 1 66 -1 77 -17c8 -13 6 -40 6 -63
c0 -22 4 -53 -8 -62c-8 -6 -25 -3 -41 -2c-104 7 -162 -66 -183 -149c-30 -116 5 -239 73 -295c30 -25 58 -39 107 -37c12 1 32 8 43 1c12 -6 9 -36 9 -61c0 -24 3 -56 -6 -68c-12 -16 -50 -17 -77 -15c-90 4 -151 38 -199 82c-59 55 -106 144 -118 257
c-13 123 23 224 74 296c48 69 128 131 243 133z" />
    <glyph glyph-name="eogonek" unicode="&#x119;" horiz-adv-x="392" 
d="M349 132c10 -12 5 -44 5 -65s4 -52 -6 -62s-47 -7 -69 -7h-33c-10 -30 -44 -49 -30 -89c6 -14 18 -26 33 -28c18 -3 36 9 45 0c12 -10 -1 -51 -8 -60c-13 -17 -47 -21 -76 -19c-46 3 -83 35 -88 75c-3 34 10 64 24 84c10 14 21 28 36 37h-53c-21 0 -59 -2 -69 6
c-12 11 -8 59 -8 87v282v281c0 24 -5 76 5 89c5 6 13 7 20 7c30 4 91 1 138 1h69c22 0 53 3 62 -6c10 -11 6 -42 6 -64c0 -20 4 -52 -6 -63c-11 -11 -44 -6 -68 -6c-23 0 -61 3 -70 -8c-11 -15 -6 -45 -6 -75c0 -23 -4 -63 7 -74c17 -17 103 5 120 -14c10 -12 6 -48 6 -64
c0 -20 3 -52 -7 -62c-18 -18 -98 5 -118 -12c-14 -12 -8 -56 -8 -78c0 -21 -5 -71 9 -81c23 -15 119 9 138 -12z" />
    <glyph glyph-name="emacron" unicode="&#x113;" horiz-adv-x="392" 
d="M30 923c0 0 0 1 1 1c57 4 111 0 179 0h134c18 0 31 -1 37 -7c11 -11 11 -63 0 -74c-13 -12 -61 -7 -89 -7h-192c-27 0 -76 -6 -88 7c-10 9 -13 58 -2 72c5 6 12 7 20 8zM77 750c30 4 91 1 138 1h69c22 0 53 3 62 -6c10 -11 6 -42 6 -64c0 -20 4 -52 -6 -63
c-11 -11 -44 -6 -68 -6c-23 0 -61 3 -70 -8c-11 -15 -6 -45 -6 -75c0 -23 -4 -63 7 -74c17 -17 103 5 120 -14c10 -12 6 -48 6 -64c0 -20 3 -52 -7 -62c-18 -18 -98 5 -118 -12c-14 -12 -8 -56 -8 -78c0 -21 -5 -71 9 -81c23 -15 119 9 138 -12c10 -12 5 -44 5 -65
s4 -52 -6 -62s-47 -7 -69 -7h-150c-21 0 -59 -2 -69 6c-12 11 -8 59 -8 87v282v281c0 24 -5 76 5 89c5 6 13 7 20 7z" />
    <glyph glyph-name="ccaron" unicode="&#x10d;" horiz-adv-x="452" 
d="M168 981c12 1 23 -10 33 -19c19 -17 34 -31 54 -48c10 -9 21 -19 31 -19c13 0 21 11 32 20l55 47c8 7 21 20 31 20c14 0 23 -14 31 -23c7 -8 22 -21 22 -32c0 -17 -27 -34 -37 -43c-31 -27 -55 -48 -86 -74c-13 -11 -31 -33 -47 -33c-18 0 -36 23 -47 33
c-28 25 -56 48 -85 74c-9 8 -37 24 -38 41c-1 12 10 21 20 32s19 23 31 24zM345 760c19 1 66 -1 77 -17c8 -13 6 -40 6 -63c0 -22 4 -53 -8 -62c-8 -6 -25 -3 -41 -2c-104 7 -162 -66 -183 -149c-30 -116 5 -239 73 -295c30 -25 58 -39 107 -37c12 1 32 8 43 1
c12 -6 9 -36 9 -61c0 -24 3 -56 -6 -68c-12 -16 -50 -17 -77 -15c-90 4 -151 38 -199 82c-59 55 -106 144 -118 257c-13 123 23 224 74 296c48 69 128 131 243 133z" />
    <glyph glyph-name="zacute" unicode="&#x17a;" horiz-adv-x="575" 
d="M358 972c17 2 33 -14 49 -24c10 -6 38 -16 39 -32c1 -15 -21 -30 -31 -40l-71 -71c-10 -10 -26 -30 -40 -31c-12 -1 -25 10 -35 16c-11 7 -25 12 -26 25c-1 15 16 33 24 44c21 29 36 51 56 78c8 11 19 33 35 35zM17 8c-4 16 7 29 14 42c92 173 184 348 277 523
c6 12 18 30 14 41c-5 14 -40 11 -59 11h-139c-24 0 -53 -2 -62 7s-7 35 -7 55c0 36 -6 63 26 67c36 4 80 0 122 0h303c20 0 46 1 51 -9c5 -11 -8 -30 -14 -42c-94 -177 -182 -346 -277 -523c-6 -11 -17 -31 -14 -41c5 -14 41 -11 66 -11h154c24 0 62 4 73 -7
c10 -10 7 -34 7 -57c0 -22 3 -51 -8 -59s-39 -6 -62 -6h-407c-21 0 -44 -5 -58 9z" />
    <glyph glyph-name="edotaccent" unicode="&#x117;" horiz-adv-x="392" 
d="M184 971c40 6 71 -16 84 -42c28 -60 -18 -115 -70 -116c-43 -1 -87 36 -81 91c4 36 32 62 67 67zM77 750c30 4 91 1 138 1h69c22 0 53 3 62 -6c10 -11 6 -42 6 -64c0 -20 4 -52 -6 -63c-11 -11 -44 -6 -68 -6c-23 0 -61 3 -70 -8c-11 -15 -6 -45 -6 -75
c0 -23 -4 -63 7 -74c17 -17 103 5 120 -14c10 -12 6 -48 6 -64c0 -20 3 -52 -7 -62c-18 -18 -98 5 -118 -12c-14 -12 -8 -56 -8 -78c0 -21 -5 -71 9 -81c23 -15 119 9 138 -12c10 -12 5 -44 5 -65s4 -52 -6 -62s-47 -7 -69 -7h-150c-21 0 -59 -2 -69 6c-12 11 -8 59 -8 87
v282v281c0 24 -5 76 5 89c5 6 13 7 20 7z" />
    <glyph glyph-name="imacron" unicode="&#x12b;" horiz-adv-x="254" 
d="M-39 928c0 0 0 1 1 1c57 4 111 0 179 0h134c18 0 31 -1 37 -7c11 -11 11 -63 0 -74c-13 -12 -61 -7 -89 -7h-192c-27 0 -76 -6 -88 7c-10 9 -13 58 -2 72c5 6 12 7 20 8zM79 753c19 2 103 7 116 -6c11 -11 7 -59 7 -88v-564c0 -28 5 -79 -8 -90c-12 -11 -42 -6 -67 -6
c-24 0 -56 -3 -66 7c-11 11 -7 59 -7 87v470v141c0 29 -1 46 25 49z" />
    <glyph glyph-name="nacute" unicode="&#x144;" horiz-adv-x="573" 
d="M341 972c17 2 33 -14 49 -24c10 -6 38 -16 39 -32c1 -15 -21 -30 -31 -40l-71 -71c-10 -10 -26 -30 -40 -31c-12 -1 -25 10 -35 16c-11 7 -25 12 -26 25c-1 15 16 33 24 44c21 29 36 51 56 78c8 11 19 33 35 35zM365 366c8 11 6 27 6 43v245c0 26 -6 77 6 91
c10 11 45 8 68 8c22 0 58 4 69 -7c12 -12 7 -62 7 -88v-565c0 -27 5 -75 -7 -87c-11 -11 -39 -6 -62 -6s-50 -4 -65 3c-13 5 -20 26 -27 44c-41 104 -81 204 -125 307c-6 16 -11 36 -27 45c-9 -11 -6 -29 -6 -45v-303c0 -17 2 -39 -7 -46c-13 -9 -43 -5 -68 -5
c-24 0 -57 -4 -68 6c-11 12 -6 60 -6 88v561c0 27 -6 75 5 89c11 15 51 9 78 9c19 0 43 2 55 -4c12 -7 18 -28 25 -45c40 -100 80 -197 121 -296c7 -16 13 -35 28 -42z" />
    <glyph glyph-name="omacron" unicode="&#x14d;" horiz-adv-x="582" 
d="M125 928c0 0 0 1 1 1c57 4 111 0 179 0h134c18 0 31 -1 37 -7c11 -11 11 -63 0 -74c-13 -12 -61 -7 -89 -7h-192c-27 0 -76 -6 -88 7c-10 9 -13 58 -2 72c5 6 12 7 20 8zM288 764c101 2 167 -54 207 -119c40 -67 61 -162 61 -265c0 -111 -18 -199 -58 -269
c-40 -69 -106 -119 -202 -123c-97 -4 -170 53 -208 119c-59 98 -80 269 -48 414c19 89 56 161 122 205c32 22 74 38 126 38zM221 577c-50 -89 -48 -321 4 -406c6 -11 17 -24 26 -30c20 -15 50 -16 70 -6c43 21 59 81 68 139c16 108 9 258 -38 319c-13 18 -38 35 -67 31
c-32 -3 -50 -23 -63 -47z" />
    <glyph glyph-name="uogonek" unicode="&#x173;" horiz-adv-x="544" 
d="M488 746c9 -10 7 -39 7 -56v-431c0 -92 0 -156 -41 -206c-31 -37 -79 -57 -141 -63c-13 -25 -38 -44 -26 -79c6 -14 18 -26 33 -28c18 -3 36 9 45 0c12 -10 -1 -51 -8 -60c-13 -17 -47 -21 -76 -19c-46 3 -83 35 -88 75c-3 34 10 64 24 84c7 9 14 18 22 26
c-104 9 -167 58 -184 151c-7 33 -6 71 -6 116v432c0 32 -6 60 24 64c13 1 39 1 62 1c20 0 50 2 58 -8c9 -13 5 -49 5 -70v-376c0 -71 -6 -153 49 -171c40 -13 75 4 87 30c16 31 11 94 11 141v379c0 23 -4 57 7 68s45 7 68 7c24 0 57 4 68 -7z" />
    <glyph glyph-name="umacron" unicode="&#x16b;" horiz-adv-x="544" 
d="M106 928c0 0 0 1 1 1c57 4 111 0 179 0h134c18 0 31 -1 37 -7c11 -11 11 -63 0 -74c-13 -12 -61 -7 -89 -7h-192c-27 0 -76 -6 -88 7c-10 9 -13 58 -2 72c5 6 12 7 20 8zM73 752c13 1 39 1 62 1c20 0 50 2 58 -8c9 -13 5 -49 5 -70v-376c0 -71 -6 -153 49 -171
c40 -13 75 4 87 30c16 31 11 94 11 141v379c0 23 -4 57 7 68s45 7 68 7c24 0 57 4 68 -7c9 -10 7 -39 7 -56v-431c0 -92 0 -156 -41 -206c-37 -44 -100 -65 -181 -65c-124 0 -199 49 -218 152c-7 33 -6 71 -6 116v432c0 32 -6 60 24 64z" />
    <glyph glyph-name="sacute" unicode="&#x15b;" horiz-adv-x="440" 
d="M274 972c17 2 33 -14 49 -24c10 -6 38 -16 39 -32c1 -15 -21 -30 -31 -40l-71 -71c-10 -10 -26 -30 -40 -31c-12 -1 -25 10 -35 16c-11 7 -25 12 -26 25c-1 15 16 33 24 44c21 29 36 51 56 78c8 11 19 33 35 35zM231 764c19 0 51 -3 75 -10c21 -7 47 -15 54 -31
c7 -14 4 -39 4 -65c0 -17 5 -53 -8 -59c-14 -6 -38 16 -50 21c-19 7 -58 14 -83 3c-15 -6 -30 -21 -35 -34c-18 -49 14 -95 40 -118c60 -54 142 -89 170 -180c11 -36 13 -83 5 -125c-14 -76 -58 -135 -119 -161c-31 -12 -70 -21 -121 -15c-30 4 -86 15 -97 42
c-6 14 -3 40 -3 64c0 19 -4 53 9 58c12 5 34 -10 46 -14c14 -5 32 -11 53 -11c40 -1 68 17 82 44c9 20 10 53 0 74c-12 25 -36 43 -59 59c-69 47 -139 93 -155 192c-12 73 7 145 37 188c32 46 82 78 155 78z" />
    <glyph glyph-name="zdotaccent" unicode="&#x17c;" horiz-adv-x="575" 
d="M292 976c40 6 71 -16 84 -42c28 -60 -18 -115 -70 -116c-43 -1 -87 36 -81 91c4 36 32 62 67 67zM17 8c-4 16 7 29 14 42c92 173 184 348 277 523c6 12 18 30 14 41c-5 14 -40 11 -59 11h-139c-24 0 -53 -2 -62 7s-7 35 -7 55c0 36 -6 63 26 67c36 4 80 0 122 0h303
c20 0 46 1 51 -9c5 -11 -8 -30 -14 -42c-94 -177 -182 -346 -277 -523c-6 -11 -17 -31 -14 -41c5 -14 41 -11 66 -11h154c24 0 62 4 73 -7c10 -10 7 -34 7 -57c0 -22 3 -51 -8 -59s-39 -6 -62 -6h-407c-21 0 -44 -5 -58 9z" />
    <glyph glyph-name="Ebreve" unicode="&#x114;" horiz-adv-x="488" 
d="M93 959c20 3 57 3 69 -3c13 -8 16 -28 24 -38c10 -15 28 -27 55 -28c28 -1 48 14 59 30c8 13 10 31 25 37c15 7 78 6 85 -7c9 -18 -10 -49 -16 -60c-28 -50 -77 -86 -151 -86c-87 0 -144 48 -165 112c-7 21 -10 39 15 43zM79 753c22 3 60 1 92 1h227c17 0 34 1 41 -8
c9 -10 6 -37 6 -57c0 -19 3 -50 -8 -58c-10 -8 -34 -6 -55 -6h-120c-23 0 -44 2 -53 -7c-12 -12 -7 -47 -7 -74c0 -23 -5 -65 7 -77c9 -9 35 -7 52 -7h117c23 0 42 2 51 -7c12 -11 12 -103 0 -115c-8 -8 -31 -7 -51 -7h-115c-22 0 -45 2 -54 -7c-13 -13 -7 -63 -7 -93
c0 -26 -6 -83 7 -96c10 -9 33 -7 54 -7h122c21 0 45 1 53 -7c11 -11 7 -36 7 -57c0 -23 3 -51 -8 -59c-16 -12 -64 -6 -91 -6h-194c-24 0 -79 -5 -91 7s-7 57 -7 88v564c0 34 -10 94 23 95h2z" />
    <glyph glyph-name="Ecaron" unicode="&#x11a;" horiz-adv-x="488" 
d="M125 981c12 1 23 -10 33 -19c19 -17 34 -31 54 -48c10 -9 21 -19 31 -19c13 0 21 11 32 20l55 47c8 7 21 20 31 20c14 0 23 -14 31 -23c7 -8 22 -21 22 -32c0 -17 -27 -34 -37 -43c-31 -27 -55 -48 -86 -74c-13 -11 -31 -33 -47 -33c-18 0 -36 23 -47 33
c-28 25 -56 48 -85 74c-9 8 -37 24 -38 41c-1 12 10 21 20 32s19 23 31 24zM79 753c22 3 60 1 92 1h227c17 0 34 1 41 -8c9 -10 6 -37 6 -57c0 -19 3 -50 -8 -58c-10 -8 -34 -6 -55 -6h-120c-23 0 -44 2 -53 -7c-12 -12 -7 -47 -7 -74c0 -23 -5 -65 7 -77c9 -9 35 -7 52 -7
h117c23 0 42 2 51 -7c12 -11 12 -103 0 -115c-8 -8 -31 -7 -51 -7h-115c-22 0 -45 2 -54 -7c-13 -13 -7 -63 -7 -93c0 -26 -6 -83 7 -96c10 -9 33 -7 54 -7h122c21 0 45 1 53 -7c11 -11 7 -36 7 -57c0 -23 3 -51 -8 -59c-16 -12 -64 -6 -91 -6h-194c-24 0 -79 -5 -91 7
s-7 57 -7 88v564c0 34 -10 94 23 95h2z" />
    <glyph glyph-name="Ccircumflex" unicode="&#x108;" horiz-adv-x="601" 
d="M355 1051c19 4 37 -20 49 -30l82 -74c14 -13 35 -25 36 -42c0 -15 -14 -23 -22 -33c-9 -9 -16 -24 -30 -24c-17 0 -40 28 -55 43c-13 12 -37 43 -54 43c-12 0 -22 -11 -30 -19c-20 -18 -32 -31 -50 -48c-9 -8 -21 -19 -30 -19c-14 0 -24 16 -31 24c-8 8 -22 17 -21 33
c0 14 21 30 34 41c27 25 52 46 79 70c11 10 26 31 43 35zM369 773c33 2 72 -1 107 -10c26 -7 68 -17 78 -39c8 -17 4 -53 4 -78c0 -17 5 -68 -9 -72c-10 -3 -22 10 -29 15c-26 19 -55 33 -90 40c-55 10 -105 -3 -141 -24c-69 -40 -116 -117 -119 -228
c-2 -57 13 -100 35 -139c21 -38 48 -69 83 -90c36 -21 91 -34 143 -23c34 7 63 22 89 41c8 6 19 17 29 14c14 -4 9 -54 9 -73c0 -30 3 -62 -5 -77c-11 -20 -50 -29 -73 -36c-27 -8 -61 -15 -93 -15c-70 0 -125 19 -172 44c-90 48 -157 137 -185 248c-33 131 5 264 62 345
c44 63 100 112 184 140c29 10 60 15 93 17z" />
    <glyph glyph-name="Cdotaccent" unicode="&#x10a;" horiz-adv-x="601" 
d="M289 976c40 6 71 -16 84 -42c28 -60 -18 -115 -70 -116c-43 -1 -87 36 -81 91c4 36 32 62 67 67zM369 773c33 2 72 -1 107 -10c26 -7 68 -17 78 -39c8 -17 4 -53 4 -78c0 -17 5 -68 -9 -72c-10 -3 -22 10 -29 15c-26 19 -55 33 -90 40c-55 10 -105 -3 -141 -24
c-69 -40 -116 -117 -119 -228c-2 -57 13 -100 35 -139c21 -38 48 -69 83 -90c36 -21 91 -34 143 -23c34 7 63 22 89 41c8 6 19 17 29 14c14 -4 9 -54 9 -73c0 -30 3 -62 -5 -77c-11 -20 -50 -29 -73 -36c-27 -8 -61 -15 -93 -15c-70 0 -125 19 -172 44
c-90 48 -157 137 -185 248c-33 131 5 264 62 345c44 63 100 112 184 140c29 10 60 15 93 17z" />
    <glyph glyph-name="Dcaron" unicode="&#x10e;" horiz-adv-x="530" 
d="M146 981c12 1 23 -10 33 -19c19 -17 34 -31 54 -48c10 -9 21 -19 31 -19c13 0 21 11 32 20l55 47c8 7 21 20 31 20c14 0 23 -14 31 -23c7 -8 22 -21 22 -32c0 -17 -27 -34 -37 -43c-31 -27 -55 -48 -86 -74c-13 -11 -31 -33 -47 -33c-18 0 -36 23 -47 33
c-28 25 -56 48 -85 74c-9 8 -37 24 -38 41c-1 12 10 21 20 32s19 23 31 24zM168 751c137 7 217 -41 269 -115s73 -186 65 -316c-11 -178 -89 -296 -259 -318c-41 -5 -92 -4 -140 -4c-19 0 -36 -1 -44 8c-11 13 -6 61 -6 89v563c0 30 -5 75 7 87c13 13 85 5 108 6zM203 584
c-3 -76 0 -137 0 -211v-121c0 -32 -7 -102 8 -113c19 -12 56 9 67 17c86 64 96 277 41 383c-18 35 -46 68 -90 74c-3 1 -6 1 -7 0c-16 -1 -19 -12 -19 -29z" />
    <glyph glyph-name="Gbreve" unicode="&#x11e;" horiz-adv-x="563" 
d="M132 959c20 3 57 3 69 -3c13 -8 16 -28 24 -38c10 -15 28 -27 55 -28c28 -1 48 14 59 30c8 13 10 31 25 37c15 7 78 6 85 -7c9 -18 -10 -49 -16 -60c-28 -50 -77 -86 -151 -86c-87 0 -144 48 -165 112c-7 21 -10 39 15 43zM287 763c108 5 177 -57 213 -133
c5 -11 13 -26 11 -38c-4 -19 -43 -26 -60 -33l-34 -14c-9 -3 -24 -11 -36 -7c-17 4 -19 34 -27 49c-14 26 -50 50 -90 31c-16 -7 -26 -17 -37 -34c-38 -58 -46 -167 -39 -270c4 -49 12 -94 28 -128c20 -40 64 -77 115 -52c25 12 43 46 50 77c3 17 10 45 1 59
c-16 20 -63 -4 -82 15c-12 12 -7 41 -7 64s-3 53 7 63c9 9 36 7 54 7h123c20 0 45 2 53 -7c10 -9 7 -34 7 -55c0 -141 -30 -263 -107 -326c-22 -17 -52 -33 -84 -39c-122 -25 -207 37 -252 108c-31 49 -54 117 -62 186c-20 155 11 316 84 399c37 42 93 74 171 78z" />
    <glyph glyph-name="Gcircumflex" unicode="&#x11c;" horiz-adv-x="563" 
d="M276 1013c19 4 37 -20 49 -30l82 -74c14 -13 35 -25 36 -42c0 -15 -14 -23 -22 -33c-9 -9 -16 -24 -30 -24c-17 0 -40 28 -55 43c-13 12 -37 43 -54 43c-12 0 -22 -11 -30 -19c-20 -18 -32 -31 -50 -48c-9 -8 -21 -19 -30 -19c-14 0 -24 16 -31 24c-8 8 -22 17 -21 33
c0 14 21 30 34 41c27 25 52 46 79 70c11 10 26 31 43 35zM287 763c108 5 177 -57 213 -133c5 -11 13 -26 11 -38c-4 -19 -43 -26 -60 -33l-34 -14c-9 -3 -24 -11 -36 -7c-17 4 -19 34 -27 49c-14 26 -50 50 -90 31c-16 -7 -26 -17 -37 -34c-38 -58 -46 -167 -39 -270
c4 -49 12 -94 28 -128c20 -40 64 -77 115 -52c25 12 43 46 50 77c3 17 10 45 1 59c-16 20 -63 -4 -82 15c-12 12 -7 41 -7 64s-3 53 7 63c9 9 36 7 54 7h123c20 0 45 2 53 -7c10 -9 7 -34 7 -55c0 -141 -30 -263 -107 -326c-22 -17 -52 -33 -84 -39
c-122 -25 -207 37 -252 108c-31 49 -54 117 -62 186c-20 155 11 316 84 399c37 42 93 74 171 78z" />
    <glyph glyph-name="Gdotaccent" unicode="&#x120;" horiz-adv-x="563" 
d="M270 976c40 6 71 -16 84 -42c28 -60 -18 -115 -70 -116c-43 -1 -87 36 -81 91c4 36 32 62 67 67zM287 763c108 5 177 -57 213 -133c5 -11 13 -26 11 -38c-4 -19 -43 -26 -60 -33l-34 -14c-9 -3 -24 -11 -36 -7c-17 4 -19 34 -27 49c-14 26 -50 50 -90 31
c-16 -7 -26 -17 -37 -34c-38 -58 -46 -167 -39 -270c4 -49 12 -94 28 -128c20 -40 64 -77 115 -52c25 12 43 46 50 77c3 17 10 45 1 59c-16 20 -63 -4 -82 15c-12 12 -7 41 -7 64s-3 53 7 63c9 9 36 7 54 7h123c20 0 45 2 53 -7c10 -9 7 -34 7 -55
c0 -141 -30 -263 -107 -326c-22 -17 -52 -33 -84 -39c-122 -25 -207 37 -252 108c-31 49 -54 117 -62 186c-20 155 11 316 84 399c37 42 93 74 171 78z" />
    <glyph glyph-name="Ibreve" unicode="&#x12c;" horiz-adv-x="254" 
d="M-23 959c20 3 57 3 69 -3c13 -8 16 -28 24 -38c10 -15 28 -27 55 -28c28 -1 48 14 59 30c8 13 10 31 25 37c15 7 78 6 85 -7c9 -18 -10 -49 -16 -60c-28 -50 -77 -86 -151 -86c-87 0 -144 48 -165 112c-7 21 -10 39 15 43zM79 753c19 2 103 7 116 -6c11 -11 7 -59 7 -88
v-564c0 -28 5 -79 -8 -90c-12 -11 -42 -6 -67 -6c-24 0 -56 -3 -66 7c-11 11 -7 59 -7 87v470v141c0 29 -1 46 25 49z" />
    <glyph glyph-name="Idotaccent" unicode="&#x130;" horiz-adv-x="254" 
d="M115 976c40 6 71 -16 84 -42c28 -60 -18 -115 -70 -116c-43 -1 -87 36 -81 91c4 36 32 62 67 67zM79 753c19 2 103 7 116 -6c11 -11 7 -59 7 -88v-564c0 -28 5 -79 -8 -90c-12 -11 -42 -6 -67 -6c-24 0 -56 -3 -66 7c-11 11 -7 59 -7 87v470v141c0 29 -1 46 25 49z" />
    <glyph glyph-name="Itilde" unicode="&#x128;" horiz-adv-x="254" 
d="M33 937c35 5 69 -10 95 -20c18 -7 47 -24 70 -18c22 5 23 28 43 36c13 6 64 7 71 -7c7 -16 -9 -48 -14 -59c-19 -41 -63 -86 -128 -68c-18 5 -35 15 -51 22c-18 8 -38 17 -57 16c-27 -2 -31 -29 -50 -37c-12 -5 -59 -8 -68 5c-10 14 4 47 11 62c14 31 39 63 78 68z
M79 753c19 2 103 7 116 -6c11 -11 7 -59 7 -88v-564c0 -28 5 -79 -8 -90c-12 -11 -42 -6 -67 -6c-24 0 -56 -3 -66 7c-11 11 -7 59 -7 87v470v141c0 29 -1 46 25 49z" />
    <glyph glyph-name="Jcircumflex" unicode="&#x134;" horiz-adv-x="389" 
d="M258 1011c19 4 37 -20 49 -30l82 -74c14 -13 35 -25 36 -42c0 -15 -14 -23 -22 -33c-9 -9 -16 -24 -30 -24c-17 0 -40 28 -55 43c-13 12 -37 43 -54 43c-12 0 -22 -11 -30 -19c-20 -18 -32 -31 -50 -48c-9 -8 -21 -19 -30 -19c-14 0 -24 16 -31 24c-8 8 -22 17 -21 33
c0 14 21 30 34 41c27 25 52 46 79 70c11 10 26 31 43 35zM217 753c19 3 105 6 117 -7c9 -10 6 -45 6 -69v-374c0 -52 1 -101 -6 -143c-15 -83 -61 -141 -132 -167c-32 -12 -84 -18 -128 -4c-19 6 -34 13 -51 24c-11 7 -35 21 -36 38c-1 13 9 21 16 28c14 16 25 31 40 48
c6 7 16 18 26 18c11 0 21 -13 26 -17c12 -11 23 -17 42 -15c45 6 54 65 55 118c1 147 0 284 0 433c0 35 -9 88 23 89h2z" />
    <glyph glyph-name="Lacute" unicode="&#x139;" horiz-adv-x="410" 
d="M180 972c17 2 33 -14 49 -24c10 -6 38 -16 39 -32c1 -15 -21 -30 -31 -40l-71 -71c-10 -10 -26 -30 -40 -31c-12 -1 -25 10 -35 16c-11 7 -25 12 -26 25c-1 15 16 33 24 44c21 29 36 51 56 78c8 11 19 33 35 35zM79 753c11 1 37 1 62 1c19 0 45 2 54 -7
c10 -10 7 -46 7 -72v-469c0 -23 -4 -60 7 -71c14 -14 67 -7 97 -7h52c17 0 37 1 45 -7c9 -9 7 -38 7 -58c0 -23 3 -46 -7 -57c-13 -12 -58 -7 -83 -7h-179c-26 0 -70 -5 -81 8c-11 12 -6 61 -6 88v611c0 30 -1 44 25 47z" />
    <glyph glyph-name="Ncaron" unicode="&#x147;" horiz-adv-x="759" 
d="M261 981c12 1 23 -10 33 -19c19 -17 34 -31 54 -48c10 -9 21 -19 31 -19c13 0 21 11 32 20l55 47c8 7 21 20 31 20c14 0 23 -14 31 -23c7 -8 22 -21 22 -32c0 -17 -27 -34 -37 -43c-31 -27 -55 -48 -86 -74c-13 -11 -31 -33 -47 -33c-18 0 -36 23 -47 33
c-28 25 -56 48 -85 74c-9 8 -37 24 -38 41c-1 12 10 21 20 32s19 23 31 24zM80 773c11 1 58 4 75 -2c19 -6 41 -40 54 -58c104 -140 205 -277 312 -416c14 -18 36 -43 39 -2c2 29 0 64 0 91v304c0 20 -2 48 7 57c12 11 45 7 67 7c24 0 60 4 69 -9c11 -16 5 -64 5 -91v-573
c0 -28 4 -77 -6 -89c-11 -12 -73 -12 -94 -5c-22 8 -39 40 -53 59c-105 139 -205 275 -313 415c-7 10 -20 28 -30 25c-11 -3 -9 -34 -9 -53v-371c0 -23 2 -48 -8 -57c-11 -10 -46 -6 -66 -6c-21 0 -54 -4 -66 6c-12 11 -8 59 -8 89v578c0 31 -5 76 5 91c4 6 7 8 20 10z" />
    <glyph glyph-name="Obreve" unicode="&#x14e;" horiz-adv-x="782" 
d="M240 959c20 3 57 3 69 -3c13 -8 16 -28 24 -38c10 -15 28 -27 55 -28c28 -1 48 14 59 30c8 13 10 31 25 37c15 7 78 6 85 -7c9 -18 -10 -49 -16 -60c-28 -50 -77 -86 -151 -86c-87 0 -144 48 -165 112c-7 21 -10 39 15 43zM367 773c125 7 221 -39 284 -101
s106 -155 112 -273c6 -125 -32 -224 -90 -293c-57 -68 -142 -121 -259 -126c-124 -6 -220 39 -283 100c-66 64 -105 152 -113 272c-8 125 35 227 89 294c41 51 100 93 175 114c26 7 57 11 85 13zM286 600c-70 -41 -123 -124 -115 -236c10 -139 82 -243 233 -238
c69 2 121 36 154 81c33 44 56 108 53 182c-3 71 -30 131 -65 170c-37 41 -96 73 -168 68c-35 -2 -66 -12 -92 -27z" />
    <glyph glyph-name="Ohungarumlaut" unicode="&#x150;" horiz-adv-x="782" 
d="M360 999c16 1 35 -15 49 -24c11 -7 37 -16 38 -32s-22 -31 -31 -40l-71 -71c-10 -10 -25 -30 -40 -31c-12 -1 -25 10 -35 16c-12 7 -25 13 -26 25c-2 16 16 33 24 44c22 31 35 50 56 79c7 10 20 33 36 34zM549 999c16 1 35 -15 49 -24c11 -7 37 -16 38 -32
s-22 -31 -31 -40l-71 -71c-10 -10 -25 -30 -40 -31c-12 -1 -25 10 -35 16c-12 7 -25 13 -26 25c-2 16 16 33 24 44c22 31 35 50 56 79c7 10 20 33 36 34zM367 773c125 7 221 -39 284 -101s106 -155 112 -273c6 -125 -32 -224 -90 -293c-57 -68 -142 -121 -259 -126
c-124 -6 -220 39 -283 100c-66 64 -105 152 -113 272c-8 125 35 227 89 294c41 51 100 93 175 114c26 7 57 11 85 13zM286 600c-70 -41 -123 -124 -115 -236c10 -139 82 -243 233 -238c69 2 121 36 154 81c33 44 56 108 53 182c-3 71 -30 131 -65 170c-37 41 -96 73 -168 68
c-35 -2 -66 -12 -92 -27z" />
    <glyph glyph-name="Racute" unicode="&#x154;" horiz-adv-x="530" 
d="M319 972c17 2 33 -14 49 -24c10 -6 38 -16 39 -32c1 -15 -21 -30 -31 -40l-71 -71c-10 -10 -26 -30 -40 -31c-12 -1 -25 10 -35 16c-11 7 -25 12 -26 25c-1 15 16 33 24 44c21 29 36 51 56 78c8 11 19 33 35 35zM481 8c-12 -12 -42 -8 -69 -8c-26 0 -56 -4 -72 5
c-18 10 -26 48 -35 71c-24 66 -46 129 -72 194c-5 11 -11 25 -22 31c-12 -16 -9 -43 -9 -69v-154c0 -23 4 -64 -7 -73c-14 -10 -45 -5 -68 -5c-21 0 -56 -5 -67 6c-12 12 -7 59 -7 87v560c0 26 -5 73 4 89c10 17 51 11 78 11c56 0 116 1 163 -7c66 -12 112 -42 140 -87
c27 -45 38 -120 21 -187c-12 -47 -33 -79 -64 -106c-9 -8 -26 -19 -27 -29c-3 -14 7 -31 12 -44c31 -81 61 -161 92 -241c4 -13 13 -26 9 -44zM202 576v-50c0 -25 -5 -80 8 -91c15 -13 50 -3 63 4c26 12 45 45 48 82c4 66 -29 114 -94 107c-27 -3 -25 -24 -25 -52z" />
    <glyph glyph-name="Rcaron" unicode="&#x158;" horiz-adv-x="530" 
d="M146 981c12 1 23 -10 33 -19c19 -17 34 -31 54 -48c10 -9 21 -19 31 -19c13 0 21 11 32 20l55 47c8 7 21 20 31 20c14 0 23 -14 31 -23c7 -8 22 -21 22 -32c0 -17 -27 -34 -37 -43c-31 -27 -55 -48 -86 -74c-13 -11 -31 -33 -47 -33c-18 0 -36 23 -47 33
c-28 25 -56 48 -85 74c-9 8 -37 24 -38 41c-1 12 10 21 20 32s19 23 31 24zM481 8c-12 -12 -42 -8 -69 -8c-26 0 -56 -4 -72 5c-18 10 -26 48 -35 71c-24 66 -46 129 -72 194c-5 11 -11 25 -22 31c-12 -16 -9 -43 -9 -69v-154c0 -23 4 -64 -7 -73c-14 -10 -45 -5 -68 -5
c-21 0 -56 -5 -67 6c-12 12 -7 59 -7 87v560c0 26 -5 73 4 89c10 17 51 11 78 11c56 0 116 1 163 -7c66 -12 112 -42 140 -87c27 -45 38 -120 21 -187c-12 -47 -33 -79 -64 -106c-9 -8 -26 -19 -27 -29c-3 -14 7 -31 12 -44c31 -81 61 -161 92 -241c4 -13 13 -26 9 -44z
M202 576v-50c0 -25 -5 -80 8 -91c15 -13 50 -3 63 4c26 12 45 45 48 82c4 66 -29 114 -94 107c-27 -3 -25 -24 -25 -52z" />
    <glyph glyph-name="Scedilla" unicode="&#x15e;" horiz-adv-x="526" 
d="M258 773c63 4 131 -20 175 -47c14 -8 36 -20 37 -37c2 -19 -16 -35 -26 -49c-7 -11 -18 -38 -35 -40s-29 20 -47 31c-17 10 -48 20 -80 16c-34 -5 -57 -24 -69 -48c-6 -13 -10 -38 -4 -56c15 -43 66 -60 107 -78c88 -38 168 -77 184 -185c17 -118 -31 -215 -102 -261
c-39 -26 -85 -40 -144 -40c-86 0 -145 40 -189 88c-11 12 -36 38 -35 57s23 34 36 47c6 6 14 12 22 20c6 5 13 17 25 16s20 -18 26 -28c20 -30 53 -59 93 -66c68 -13 112 36 117 92c7 82 -55 106 -110 128c-83 33 -166 72 -184 173c-13 76 12 143 45 185c17 21 36 39 64 55
c26 15 56 25 94 27zM253 -26c13 3 31 -7 46 -15c12 -6 32 -15 34 -26c2 -15 -14 -29 -22 -38c-19 -23 -36 -42 -55 -65c-9 -10 -18 -26 -31 -28c-14 -2 -26 7 -37 13s-25 11 -26 23c-1 11 11 28 17 37c15 23 28 41 43 64c9 14 16 29 31 35z" />
    <glyph glyph-name="Scircumflex" unicode="&#x15c;" horiz-adv-x="526" 
d="M258 1006c19 4 37 -20 49 -30l82 -74c14 -13 35 -25 36 -42c0 -15 -14 -23 -22 -33c-9 -9 -16 -24 -30 -24c-17 0 -40 28 -55 43c-13 12 -37 43 -54 43c-12 0 -22 -11 -30 -19c-20 -18 -32 -31 -50 -48c-9 -8 -21 -19 -30 -19c-14 0 -24 16 -31 24c-8 8 -22 17 -21 33
c0 14 21 30 34 41c27 25 52 46 79 70c11 10 26 31 43 35zM258 773c63 4 131 -20 175 -47c14 -8 36 -20 37 -37c2 -19 -16 -35 -26 -49c-7 -11 -18 -38 -35 -40s-29 20 -47 31c-17 10 -48 20 -80 16c-34 -5 -57 -24 -69 -48c-6 -13 -10 -38 -4 -56c15 -43 66 -60 107 -78
c88 -38 168 -77 184 -185c17 -118 -31 -215 -102 -261c-39 -26 -85 -40 -144 -40c-86 0 -145 40 -189 88c-11 12 -36 38 -35 57s23 34 36 47c6 6 14 12 22 20c6 5 13 17 25 16s20 -18 26 -28c20 -30 53 -59 93 -66c68 -13 112 36 117 92c7 82 -55 106 -110 128
c-83 33 -166 72 -184 173c-13 76 12 143 45 185c17 21 36 39 64 55c26 15 56 25 94 27z" />
    <glyph glyph-name="Tcaron" unicode="&#x164;" horiz-adv-x="414" 
d="M88 981c12 1 23 -10 33 -19c19 -17 34 -31 54 -48c10 -9 21 -19 31 -19c13 0 21 11 32 20l55 47c8 7 21 20 31 20c14 0 23 -14 31 -23c7 -8 22 -21 22 -32c0 -17 -27 -34 -37 -43c-31 -27 -55 -48 -86 -74c-13 -11 -31 -33 -47 -33c-18 0 -36 23 -47 33
c-28 25 -56 48 -85 74c-9 8 -37 24 -38 41c-1 12 10 21 20 32s19 23 31 24zM39 752c22 3 60 1 91 1h178c25 0 76 4 85 -8s6 -38 6 -63c0 -24 3 -52 -7 -62c-20 -21 -81 6 -103 -13c-12 -10 -8 -47 -8 -70v-461c0 -28 4 -59 -7 -70s-42 -6 -68 -6c-22 0 -57 -5 -68 6
c-10 11 -6 45 -6 70v461c0 22 4 57 -7 69c-20 20 -84 -6 -103 14c-10 9 -7 37 -7 61c0 38 -7 67 24 71z" />
    <glyph glyph-name="Ubreve" unicode="&#x16c;" horiz-adv-x="660" 
d="M179 959c20 3 57 3 69 -3c13 -8 16 -28 24 -38c10 -15 28 -27 55 -28c28 -1 48 14 59 30c8 13 10 31 25 37c15 7 78 6 85 -7c9 -18 -10 -49 -16 -60c-28 -50 -77 -86 -151 -86c-87 0 -144 48 -165 112c-7 21 -10 39 15 43zM75 753c12 2 39 1 62 1c20 0 45 2 54 -7
c13 -13 7 -67 7 -91v-291c0 -67 1 -129 19 -176c17 -45 48 -80 114 -80c127 1 132 129 132 257v340c0 16 -1 33 7 41c10 10 39 7 65 7c23 0 57 4 69 -7c9 -10 7 -39 7 -59v-198c0 -88 6 -177 -4 -259c-20 -157 -111 -250 -275 -252c-174 -2 -256 100 -277 250
c-11 79 -5 168 -5 258v198c0 34 -7 64 25 68z" />
    <glyph glyph-name="Uhungarumlaut" unicode="&#x170;" horiz-adv-x="660" 
d="M299 982c16 1 35 -15 49 -24c11 -7 37 -16 38 -32s-22 -31 -31 -40l-71 -71c-10 -10 -25 -30 -40 -31c-12 -1 -25 10 -35 16c-12 7 -25 13 -26 25c-2 16 16 33 24 44c22 31 35 50 56 79c7 10 20 33 36 34zM488 982c16 1 35 -15 49 -24c11 -7 37 -16 38 -32
s-22 -31 -31 -40l-71 -71c-10 -10 -25 -30 -40 -31c-12 -1 -25 10 -35 16c-12 7 -25 13 -26 25c-2 16 16 33 24 44c22 31 35 50 56 79c7 10 20 33 36 34zM75 753c12 2 39 1 62 1c20 0 45 2 54 -7c13 -13 7 -67 7 -91v-291c0 -67 1 -129 19 -176c17 -45 48 -80 114 -80
c127 1 132 129 132 257v340c0 16 -1 33 7 41c10 10 39 7 65 7c23 0 57 4 69 -7c9 -10 7 -39 7 -59v-198c0 -88 6 -177 -4 -259c-20 -157 -111 -250 -275 -252c-174 -2 -256 100 -277 250c-11 79 -5 168 -5 258v198c0 34 -7 64 25 68z" />
    <glyph glyph-name="Uring" unicode="&#x16e;" horiz-adv-x="660" 
d="M330 896c55 0 100 -45 100 -100c0 -56 -45 -101 -100 -101s-100 45 -100 101c0 55 45 100 100 100zM330 837c-23 0 -41 -19 -41 -41c0 -23 18 -42 41 -42s41 19 41 42c0 22 -18 41 -41 41zM75 753c12 2 39 1 62 1c20 0 45 2 54 -7c13 -13 7 -67 7 -91v-291
c0 -67 1 -129 19 -176c17 -45 48 -80 114 -80c127 1 132 129 132 257v340c0 16 -1 33 7 41c10 10 39 7 65 7c23 0 57 4 69 -7c9 -10 7 -39 7 -59v-198c0 -88 6 -177 -4 -259c-20 -157 -111 -250 -275 -252c-174 -2 -256 100 -277 250c-11 79 -5 168 -5 258v198
c0 34 -7 64 25 68z" />
    <glyph glyph-name="Utilde" unicode="&#x168;" horiz-adv-x="660" 
d="M236 937c35 5 69 -10 95 -20c18 -7 47 -24 70 -18c22 5 23 28 43 36c13 6 64 7 71 -7c7 -16 -9 -48 -14 -59c-19 -41 -63 -86 -128 -68c-18 5 -35 15 -51 22c-18 8 -38 17 -57 16c-27 -2 -31 -29 -50 -37c-12 -5 -59 -8 -68 5c-10 14 4 47 11 62c14 31 39 63 78 68z
M75 753c12 2 39 1 62 1c20 0 45 2 54 -7c13 -13 7 -67 7 -91v-291c0 -67 1 -129 19 -176c17 -45 48 -80 114 -80c127 1 132 129 132 257v340c0 16 -1 33 7 41c10 10 39 7 65 7c23 0 57 4 69 -7c9 -10 7 -39 7 -59v-198c0 -88 6 -177 -4 -259c-20 -157 -111 -250 -275 -252
c-174 -2 -256 100 -277 250c-11 79 -5 168 -5 258v198c0 34 -7 64 25 68z" />
    <glyph glyph-name="Ycircumflex" unicode="&#x176;" horiz-adv-x="514" 
d="M252 971c19 4 37 -20 49 -30l82 -74c14 -13 35 -25 36 -42c0 -15 -14 -23 -22 -33c-9 -9 -16 -24 -30 -24c-17 0 -40 28 -55 43c-13 12 -37 43 -54 43c-12 0 -22 -11 -30 -19c-20 -18 -32 -31 -50 -48c-9 -8 -21 -19 -30 -19c-14 0 -24 16 -31 24c-8 8 -22 17 -21 33
c0 14 21 30 34 41c27 25 52 46 79 70c11 10 26 31 43 35zM30 752c18 2 42 1 66 1c19 0 48 2 62 -4c14 -7 20 -30 28 -49c15 -39 26 -70 42 -111c4 -13 14 -48 26 -49c13 -1 22 39 26 49c14 40 25 70 40 111c5 15 10 41 26 49c17 8 50 4 78 4c18 0 65 6 72 -10
c5 -13 -11 -40 -16 -51c-43 -93 -83 -186 -126 -281c-7 -16 -16 -32 -21 -48c-6 -25 -2 -57 -2 -89v-185c0 -25 4 -73 -8 -84c-11 -9 -42 -5 -67 -5c-24 0 -57 -3 -66 5c-13 12 -8 65 -8 86v186c0 33 2 67 -4 88c-5 15 -13 32 -20 48c-43 94 -86 182 -130 278
c-8 18 -31 55 0 61h2z" />
    <glyph glyph-name="Ygrave" unicode="&#x1ef2;" horiz-adv-x="514" 
d="M200 972c16 1 28 -20 37 -33c20 -27 34 -50 56 -80c7 -10 26 -28 25 -43c-1 -12 -14 -19 -25 -26c-9 -6 -23 -16 -35 -16c-16 1 -29 21 -40 31c-26 24 -46 44 -72 70c-9 9 -31 25 -31 40c0 14 24 25 37 33c15 9 31 23 48 24zM30 752c18 2 42 1 66 1c19 0 48 2 62 -4
c14 -7 20 -30 28 -49c15 -39 26 -70 42 -111c4 -13 14 -48 26 -49c13 -1 22 39 26 49c14 40 25 70 40 111c5 15 10 41 26 49c17 8 50 4 78 4c18 0 65 6 72 -10c5 -13 -11 -40 -16 -51c-43 -93 -83 -186 -126 -281c-7 -16 -16 -32 -21 -48c-6 -25 -2 -57 -2 -89v-185
c0 -25 4 -73 -8 -84c-11 -9 -42 -5 -67 -5c-24 0 -57 -3 -66 5c-13 12 -8 65 -8 86v186c0 33 2 67 -4 88c-5 15 -13 32 -20 48c-43 94 -86 182 -130 278c-8 18 -31 55 0 61h2z" />
    <glyph glyph-name="abreve" unicode="&#x103;" horiz-adv-x="528" 
d="M114 956c20 3 57 3 69 -3c13 -8 16 -28 24 -38c10 -15 28 -27 55 -28c28 -1 48 14 59 30c8 13 10 31 25 37c15 7 78 6 85 -7c9 -18 -10 -49 -16 -60c-28 -50 -77 -86 -151 -86c-87 0 -144 48 -165 112c-7 21 -10 39 15 43zM203 750c15 2 43 1 68 1c21 0 49 4 61 -4
c17 -11 23 -60 30 -88c48 -202 96 -402 145 -606c5 -17 10 -38 3 -47c-9 -13 -45 -8 -68 -8c-30 0 -62 -4 -76 5c-12 9 -14 36 -19 58c-4 20 -9 50 -20 59c-13 9 -44 6 -65 6c-29 0 -53 4 -70 -4c-15 -8 -18 -39 -23 -58c-5 -24 -8 -52 -20 -61c-15 -9 -45 -5 -68 -5
s-57 -3 -65 8c-7 9 0 31 4 48c51 214 102 433 150 647c7 28 6 46 33 49zM237 439c-6 -41 -12 -81 -19 -124c-3 -17 -12 -50 -4 -62s27 -9 44 -9s38 -1 44 9c8 12 -2 48 -5 65c-8 38 -17 84 -25 124c-3 20 -6 56 -18 58c-10 -13 -13 -40 -17 -61z" />
    <glyph glyph-name="aeacute" unicode="&#x1fd;" horiz-adv-x="921" 
d="M474 1012c17 2 33 -14 49 -24c10 -6 38 -16 39 -32c1 -15 -21 -30 -31 -40l-71 -71c-10 -10 -26 -30 -40 -31c-12 -1 -25 10 -35 16c-11 7 -25 12 -26 25c-1 15 16 33 24 44c21 29 36 51 56 78c8 11 19 33 35 35zM306 753c41 5 115 1 175 1h87c25 0 67 4 83 -4
c15 -8 20 -34 27 -54c3 -10 7 -20 11 -30c3 -9 9 -22 4 -32c-9 -16 -90 -9 -115 -9h-62c-18 0 -47 2 -52 -10c-6 -14 5 -33 9 -43l29 -78c5 -13 10 -27 21 -32c13 -6 36 -3 57 -3h119c21 0 43 2 55 -4c15 -8 19 -34 27 -54c3 -10 7 -19 11 -30c3 -9 8 -23 4 -32
c-6 -11 -33 -9 -52 -9h-122c-22 0 -46 2 -51 -10c-4 -9 2 -22 4 -27c15 -44 28 -76 44 -120c6 -17 13 -36 24 -41c21 -10 88 -4 117 -4h61c21 0 43 2 56 -4c17 -8 20 -32 28 -53c4 -12 23 -47 15 -62c-9 -15 -69 -9 -92 -9h-200c-30 0 -77 -5 -95 5c-20 11 -28 53 -36 75
c-5 12 -10 26 -15 40c-6 14 -11 29 -21 34c-12 6 -38 4 -59 4h-126c-21 0 -51 2 -62 -4c-18 -9 -29 -54 -36 -74c-9 -23 -18 -65 -35 -75c-13 -8 -48 -5 -72 -5s-61 -5 -68 9c-7 12 5 36 11 50c84 218 166 431 251 647c9 23 13 44 41 47zM308 455c-11 -34 -24 -71 -36 -108
c-4 -12 -18 -44 -12 -58c6 -15 54 -10 78 -10c22 0 72 -6 79 10s-10 46 -15 59l-40 112c-4 11 -15 52 -31 47c-12 -4 -19 -38 -23 -52z" />
    <glyph glyph-name="ccircumflex" unicode="&#x109;" horiz-adv-x="452" 
d="M291 1011c19 4 37 -20 49 -30l82 -74c14 -13 35 -25 36 -42c0 -15 -14 -23 -22 -33c-9 -9 -16 -24 -30 -24c-17 0 -40 28 -55 43c-13 12 -37 43 -54 43c-12 0 -22 -11 -30 -19c-20 -18 -32 -31 -50 -48c-9 -8 -21 -19 -30 -19c-14 0 -24 16 -31 24c-8 8 -22 17 -21 33
c0 14 21 30 34 41c27 25 52 46 79 70c11 10 26 31 43 35zM345 760c19 1 66 -1 77 -17c8 -13 6 -40 6 -63c0 -22 4 -53 -8 -62c-8 -6 -25 -3 -41 -2c-104 7 -162 -66 -183 -149c-30 -116 5 -239 73 -295c30 -25 58 -39 107 -37c12 1 32 8 43 1c12 -6 9 -36 9 -61
c0 -24 3 -56 -6 -68c-12 -16 -50 -17 -77 -15c-90 4 -151 38 -199 82c-59 55 -106 144 -118 257c-13 123 23 224 74 296c48 69 128 131 243 133z" />
    <glyph glyph-name="cdotaccent" unicode="&#x10b;" horiz-adv-x="452" 
d="M275 976c40 6 71 -16 84 -42c28 -60 -18 -115 -70 -116c-43 -1 -87 36 -81 91c4 36 32 62 67 67zM345 760c19 1 66 -1 77 -17c8 -13 6 -40 6 -63c0 -22 4 -53 -8 -62c-8 -6 -25 -3 -41 -2c-104 7 -162 -66 -183 -149c-30 -116 5 -239 73 -295c30 -25 58 -39 107 -37
c12 1 32 8 43 1c12 -6 9 -36 9 -61c0 -24 3 -56 -6 -68c-12 -16 -50 -17 -77 -15c-90 4 -151 38 -199 82c-59 55 -106 144 -118 257c-13 123 23 224 74 296c48 69 128 131 243 133z" />
    <glyph glyph-name="ebreve" unicode="&#x115;" horiz-adv-x="392" 
d="M46 959c20 3 57 3 69 -3c13 -8 16 -28 24 -38c10 -15 28 -27 55 -28c28 -1 48 14 59 30c8 13 10 31 25 37c15 7 78 6 85 -7c9 -18 -10 -49 -16 -60c-28 -50 -77 -86 -151 -86c-87 0 -144 48 -165 112c-7 21 -10 39 15 43zM77 750c30 4 91 1 138 1h69c22 0 53 3 62 -6
c10 -11 6 -42 6 -64c0 -20 4 -52 -6 -63c-11 -11 -44 -6 -68 -6c-23 0 -61 3 -70 -8c-11 -15 -6 -45 -6 -75c0 -23 -4 -63 7 -74c17 -17 103 5 120 -14c10 -12 6 -48 6 -64c0 -20 3 -52 -7 -62c-18 -18 -98 5 -118 -12c-14 -12 -8 -56 -8 -78c0 -21 -5 -71 9 -81
c23 -15 119 9 138 -12c10 -12 5 -44 5 -65s4 -52 -6 -62s-47 -7 -69 -7h-150c-21 0 -59 -2 -69 6c-12 11 -8 59 -8 87v282v281c0 24 -5 76 5 89c5 6 13 7 20 7z" />
    <glyph glyph-name="ecaron" unicode="&#x11b;" horiz-adv-x="392" 
d="M77 976c12 1 23 -10 33 -19c19 -17 34 -31 54 -48c10 -9 21 -19 31 -19c13 0 21 11 32 20l55 47c8 7 21 20 31 20c14 0 23 -14 31 -23c7 -8 22 -21 22 -32c0 -17 -27 -34 -37 -43c-31 -27 -55 -48 -86 -74c-13 -11 -31 -33 -47 -33c-18 0 -36 23 -47 33
c-28 25 -56 48 -85 74c-9 8 -37 24 -38 41c-1 12 10 21 20 32s19 23 31 24zM77 750c30 4 91 1 138 1h69c22 0 53 3 62 -6c10 -11 6 -42 6 -64c0 -20 4 -52 -6 -63c-11 -11 -44 -6 -68 -6c-23 0 -61 3 -70 -8c-11 -15 -6 -45 -6 -75c0 -23 -4 -63 7 -74c17 -17 103 5 120 -14
c10 -12 6 -48 6 -64c0 -20 3 -52 -7 -62c-18 -18 -98 5 -118 -12c-14 -12 -8 -56 -8 -78c0 -21 -5 -71 9 -81c23 -15 119 9 138 -12c10 -12 5 -44 5 -65s4 -52 -6 -62s-47 -7 -69 -7h-150c-21 0 -59 -2 -69 6c-12 11 -8 59 -8 87v282v281c0 24 -5 76 5 89c5 6 13 7 20 7z
" />
    <glyph glyph-name="gbreve" unicode="&#x11f;" horiz-adv-x="739" 
d="M220 959c20 3 57 3 69 -3c13 -8 16 -28 24 -38c10 -15 28 -27 55 -28c28 -1 48 14 59 30c8 13 10 31 25 37c15 7 78 6 85 -7c9 -18 -10 -49 -16 -60c-28 -50 -77 -86 -151 -86c-87 0 -144 48 -165 112c-7 21 -10 39 15 43zM364 773c136 7 234 -52 292 -132
c7 -11 20 -27 19 -41c-2 -20 -33 -29 -52 -39l-30 -16c-10 -5 -21 -14 -32 -13c-13 1 -20 14 -26 24c-30 44 -83 90 -159 87c-88 -3 -142 -59 -173 -122c-21 -43 -36 -99 -32 -162c3 -62 19 -111 45 -152c34 -53 99 -113 197 -93c52 10 88 41 114 82c9 14 33 57 20 75
c-10 13 -48 9 -73 9c-28 0 -64 -4 -74 8c-8 9 -6 32 -6 54c0 16 -3 43 7 52c11 11 50 7 74 7h162c29 0 67 3 77 -8c10 -12 5 -45 4 -63c-14 -148 -77 -260 -181 -314c-46 -24 -106 -40 -175 -36c-111 6 -184 49 -241 111c-47 51 -78 115 -94 189c-18 82 -9 178 16 247
c41 115 126 208 257 238c21 5 43 7 64 8z" />
    <glyph glyph-name="gcircumflex" unicode="&#x11d;" horiz-adv-x="739" 
d="M364 1021c19 4 37 -20 49 -30l82 -74c14 -13 35 -25 36 -42c0 -15 -14 -23 -22 -33c-9 -9 -16 -24 -30 -24c-17 0 -40 28 -55 43c-13 12 -37 43 -54 43c-12 0 -22 -11 -30 -19c-20 -18 -32 -31 -50 -48c-9 -8 -21 -19 -30 -19c-14 0 -24 16 -31 24c-8 8 -22 17 -21 33
c0 14 21 30 34 41c27 25 52 46 79 70c11 10 26 31 43 35zM364 773c136 7 234 -52 292 -132c7 -11 20 -27 19 -41c-2 -20 -33 -29 -52 -39l-30 -16c-10 -5 -21 -14 -32 -13c-13 1 -20 14 -26 24c-30 44 -83 90 -159 87c-88 -3 -142 -59 -173 -122c-21 -43 -36 -99 -32 -162
c3 -62 19 -111 45 -152c34 -53 99 -113 197 -93c52 10 88 41 114 82c9 14 33 57 20 75c-10 13 -48 9 -73 9c-28 0 -64 -4 -74 8c-8 9 -6 32 -6 54c0 16 -3 43 7 52c11 11 50 7 74 7h162c29 0 67 3 77 -8c10 -12 5 -45 4 -63c-14 -148 -77 -260 -181 -314
c-46 -24 -106 -40 -175 -36c-111 6 -184 49 -241 111c-47 51 -78 115 -94 189c-18 82 -9 178 16 247c41 115 126 208 257 238c21 5 43 7 64 8z" />
    <glyph glyph-name="itilde" unicode="&#x129;" horiz-adv-x="254" 
d="M33 937c35 5 69 -10 95 -20c18 -7 47 -24 70 -18c22 5 23 28 43 36c13 6 64 7 71 -7c7 -16 -9 -48 -14 -59c-19 -41 -63 -86 -128 -68c-18 5 -35 15 -51 22c-18 8 -38 17 -57 16c-27 -2 -31 -29 -50 -37c-12 -5 -59 -8 -68 5c-10 14 4 47 11 62c14 31 39 63 78 68z
M79 753c19 2 103 7 116 -6c11 -11 7 -59 7 -88v-564c0 -28 5 -79 -8 -90c-12 -11 -42 -6 -67 -6c-24 0 -56 -3 -66 7c-11 11 -7 59 -7 87v470v141c0 29 -1 46 25 49z" />
    <glyph glyph-name="jcircumflex" unicode="&#x135;" horiz-adv-x="352" 
d="M221 978c19 4 37 -20 49 -30l82 -74c14 -13 35 -25 36 -42c0 -15 -14 -23 -22 -33c-9 -9 -16 -24 -30 -24c-17 0 -40 28 -55 43c-13 12 -37 43 -54 43c-12 0 -22 -11 -30 -19c-20 -18 -32 -31 -50 -48c-9 -8 -21 -19 -30 -19c-14 0 -24 16 -31 24c-8 8 -22 17 -21 33
c0 14 21 30 34 41c27 25 52 46 79 70c11 10 26 31 43 35zM20 138c16 3 31 -11 43 -15c33 -11 65 0 78 21c18 29 14 89 14 140v387c0 39 -8 77 26 80c16 2 39 0 62 0c20 0 46 3 55 -6c13 -13 7 -65 7 -95v-302c0 -69 4 -138 -5 -196c-14 -99 -65 -163 -175 -165
c-21 -1 -44 2 -63 6c-18 3 -39 10 -45 23c-7 14 -4 41 -4 63c0 23 -4 46 7 59z" />
    <glyph glyph-name="ncaron" unicode="&#x148;" horiz-adv-x="573" 
d="M168 981c12 1 23 -10 33 -19c19 -17 34 -31 54 -48c10 -9 21 -19 31 -19c13 0 21 11 32 20l55 47c8 7 21 20 31 20c14 0 23 -14 31 -23c7 -8 22 -21 22 -32c0 -17 -27 -34 -37 -43c-31 -27 -55 -48 -86 -74c-13 -11 -31 -33 -47 -33c-18 0 -36 23 -47 33
c-28 25 -56 48 -85 74c-9 8 -37 24 -38 41c-1 12 10 21 20 32s19 23 31 24zM365 366c8 11 6 27 6 43v245c0 26 -6 77 6 91c10 11 45 8 68 8c22 0 58 4 69 -7c12 -12 7 -62 7 -88v-565c0 -27 5 -75 -7 -87c-11 -11 -39 -6 -62 -6s-50 -4 -65 3c-13 5 -20 26 -27 44
c-41 104 -81 204 -125 307c-6 16 -11 36 -27 45c-9 -11 -6 -29 -6 -45v-303c0 -17 2 -39 -7 -46c-13 -9 -43 -5 -68 -5c-24 0 -57 -4 -68 6c-11 12 -6 60 -6 88v561c0 27 -6 75 5 89c11 15 51 9 78 9c19 0 43 2 55 -4c12 -7 18 -28 25 -45c40 -100 80 -197 121 -296
c7 -16 13 -35 28 -42z" />
    <glyph glyph-name="obreve" unicode="&#x14f;" horiz-adv-x="582" 
d="M140 959c20 3 57 3 69 -3c13 -8 16 -28 24 -38c10 -15 28 -27 55 -28c28 -1 48 14 59 30c8 13 10 31 25 37c15 7 78 6 85 -7c9 -18 -10 -49 -16 -60c-28 -50 -77 -86 -151 -86c-87 0 -144 48 -165 112c-7 21 -10 39 15 43zM288 764c101 2 167 -54 207 -119
c40 -67 61 -162 61 -265c0 -111 -18 -199 -58 -269c-40 -69 -106 -119 -202 -123c-97 -4 -170 53 -208 119c-59 98 -80 269 -48 414c19 89 56 161 122 205c32 22 74 38 126 38zM221 577c-50 -89 -48 -321 4 -406c6 -11 17 -24 26 -30c20 -15 50 -16 70 -6
c43 21 59 81 68 139c16 108 9 258 -38 319c-13 18 -38 35 -67 31c-32 -3 -50 -23 -63 -47z" />
    <glyph glyph-name="racute" unicode="&#x155;" horiz-adv-x="558" 
d="M292 971c17 2 33 -14 49 -24c10 -6 38 -16 39 -32c1 -15 -21 -30 -31 -40l-71 -71c-10 -10 -26 -30 -40 -31c-12 -1 -25 10 -35 16c-11 7 -25 12 -26 25c-1 15 16 33 24 44c21 29 36 51 56 78c8 11 19 33 35 35zM79 753c38 5 86 1 128 1c43 0 85 0 120 -6
c105 -19 169 -83 178 -202c7 -99 -38 -177 -102 -211c-12 -6 -36 -13 -38 -25c-3 -14 13 -30 20 -41c49 -75 95 -142 147 -219c7 -11 21 -28 18 -40c-5 -17 -50 -11 -75 -11c-33 0 -68 -2 -83 4c-19 8 -37 45 -48 65l-106 176c-6 9 -17 31 -27 29c-13 -3 -9 -44 -9 -62v-142
c0 -23 2 -53 -7 -63c-12 -12 -43 -7 -67 -7c-25 0 -57 -3 -67 7c-11 11 -7 63 -7 87v282v329c0 33 0 46 25 49zM202 573v-56c0 -27 -7 -92 8 -104c13 -11 41 -4 59 -1c19 4 37 10 50 19c43 31 53 128 13 170c-19 19 -67 36 -105 31c-30 -4 -25 -29 -25 -59z" />
    <glyph glyph-name="rcaron" unicode="&#x159;" horiz-adv-x="558" 
d="M119 980c12 1 23 -10 33 -19c19 -17 34 -31 54 -48c10 -9 21 -19 31 -19c13 0 21 11 32 20l55 47c8 7 21 20 31 20c14 0 23 -14 31 -23c7 -8 22 -21 22 -32c0 -17 -27 -34 -37 -43c-31 -27 -55 -48 -86 -74c-13 -11 -31 -33 -47 -33c-18 0 -36 23 -47 33
c-28 25 -56 48 -85 74c-9 8 -37 24 -38 41c-1 12 10 21 20 32s19 23 31 24zM79 753c38 5 86 1 128 1c43 0 85 0 120 -6c105 -19 169 -83 178 -202c7 -99 -38 -177 -102 -211c-12 -6 -36 -13 -38 -25c-3 -14 13 -30 20 -41c49 -75 95 -142 147 -219c7 -11 21 -28 18 -40
c-5 -17 -50 -11 -75 -11c-33 0 -68 -2 -83 4c-19 8 -37 45 -48 65l-106 176c-6 9 -17 31 -27 29c-13 -3 -9 -44 -9 -62v-142c0 -23 2 -53 -7 -63c-12 -12 -43 -7 -67 -7c-25 0 -57 -3 -67 7c-11 11 -7 63 -7 87v282v329c0 33 0 46 25 49zM202 573v-56c0 -27 -7 -92 8 -104
c13 -11 41 -4 59 -1c19 4 37 10 50 19c43 31 53 128 13 170c-19 19 -67 36 -105 31c-30 -4 -25 -29 -25 -59z" />
    <glyph glyph-name="scedilla" unicode="&#x15f;" horiz-adv-x="440" 
d="M231 764c19 0 51 -3 75 -10c21 -7 47 -15 54 -31c7 -14 4 -39 4 -65c0 -17 5 -53 -8 -59c-14 -6 -38 16 -50 21c-19 7 -58 14 -83 3c-15 -6 -30 -21 -35 -34c-18 -49 14 -95 40 -118c60 -54 142 -89 170 -180c11 -36 13 -83 5 -125c-14 -76 -58 -135 -119 -161
c-31 -12 -70 -21 -121 -15c-30 4 -86 15 -97 42c-6 14 -3 40 -3 64c0 19 -4 53 9 58c12 5 34 -10 46 -14c14 -5 32 -11 53 -11c40 -1 68 17 82 44c9 20 10 53 0 74c-12 25 -36 43 -59 59c-69 47 -139 93 -155 192c-12 73 7 145 37 188c32 46 82 78 155 78zM185 -26
c13 3 31 -7 46 -15c12 -6 32 -15 34 -26c2 -15 -14 -29 -22 -38c-19 -23 -36 -42 -55 -65c-9 -10 -18 -26 -31 -28c-14 -2 -26 7 -37 13s-25 11 -26 23c-1 11 11 28 17 37c15 23 28 41 43 64c9 14 16 29 31 35z" />
    <glyph glyph-name="scircumflex" unicode="&#x15d;" horiz-adv-x="440" 
d="M215 993c19 4 37 -20 49 -30l82 -74c14 -13 35 -25 36 -42c0 -15 -14 -23 -22 -33c-9 -9 -16 -24 -30 -24c-17 0 -40 28 -55 43c-13 12 -37 43 -54 43c-12 0 -22 -11 -30 -19c-20 -18 -32 -31 -50 -48c-9 -8 -21 -19 -30 -19c-14 0 -24 16 -31 24c-8 8 -22 17 -21 33
c0 14 21 30 34 41c27 25 52 46 79 70c11 10 26 31 43 35zM231 764c19 0 51 -3 75 -10c21 -7 47 -15 54 -31c7 -14 4 -39 4 -65c0 -17 5 -53 -8 -59c-14 -6 -38 16 -50 21c-19 7 -58 14 -83 3c-15 -6 -30 -21 -35 -34c-18 -49 14 -95 40 -118c60 -54 142 -89 170 -180
c11 -36 13 -83 5 -125c-14 -76 -58 -135 -119 -161c-31 -12 -70 -21 -121 -15c-30 4 -86 15 -97 42c-6 14 -3 40 -3 64c0 19 -4 53 9 58c12 5 34 -10 46 -14c14 -5 32 -11 53 -11c40 -1 68 17 82 44c9 20 10 53 0 74c-12 25 -36 43 -59 59c-69 47 -139 93 -155 192
c-12 73 7 145 37 188c32 46 82 78 155 78z" />
    <glyph glyph-name="ubreve" unicode="&#x16d;" horiz-adv-x="544" 
d="M121 959c20 3 57 3 69 -3c13 -8 16 -28 24 -38c10 -15 28 -27 55 -28c28 -1 48 14 59 30c8 13 10 31 25 37c15 7 78 6 85 -7c9 -18 -10 -49 -16 -60c-28 -50 -77 -86 -151 -86c-87 0 -144 48 -165 112c-7 21 -10 39 15 43zM73 752c13 1 39 1 62 1c20 0 50 2 58 -8
c9 -13 5 -49 5 -70v-376c0 -71 -6 -153 49 -171c40 -13 75 4 87 30c16 31 11 94 11 141v379c0 23 -4 57 7 68s45 7 68 7c24 0 57 4 68 -7c9 -10 7 -39 7 -56v-431c0 -92 0 -156 -41 -206c-37 -44 -100 -65 -181 -65c-124 0 -199 49 -218 152c-7 33 -6 71 -6 116v432
c0 32 -6 60 24 64z" />
    <glyph glyph-name="uhungarumlaut" unicode="&#x171;" horiz-adv-x="544" 
d="M241 982c16 1 35 -15 49 -24c11 -7 37 -16 38 -32s-22 -31 -31 -40l-71 -71c-10 -10 -25 -30 -40 -31c-12 -1 -25 10 -35 16c-12 7 -25 13 -26 25c-2 16 16 33 24 44c22 31 35 50 56 79c7 10 20 33 36 34zM430 982c16 1 35 -15 49 -24c11 -7 37 -16 38 -32
s-22 -31 -31 -40l-71 -71c-10 -10 -25 -30 -40 -31c-12 -1 -25 10 -35 16c-12 7 -25 13 -26 25c-2 16 16 33 24 44c22 31 35 50 56 79c7 10 20 33 36 34zM73 752c13 1 39 1 62 1c20 0 50 2 58 -8c9 -13 5 -49 5 -70v-376c0 -71 -6 -153 49 -171c40 -13 75 4 87 30
c16 31 11 94 11 141v379c0 23 -4 57 7 68s45 7 68 7c24 0 57 4 68 -7c9 -10 7 -39 7 -56v-431c0 -92 0 -156 -41 -206c-37 -44 -100 -65 -181 -65c-124 0 -199 49 -218 152c-7 33 -6 71 -6 116v432c0 32 -6 60 24 64z" />
    <glyph glyph-name="uring" unicode="&#x16f;" horiz-adv-x="544" 
d="M272 956c55 0 100 -45 100 -100c0 -56 -45 -101 -100 -101s-100 45 -100 101c0 55 45 100 100 100zM272 897c-23 0 -41 -19 -41 -41c0 -23 18 -42 41 -42s41 19 41 42c0 22 -18 41 -41 41zM73 752c13 1 39 1 62 1c20 0 50 2 58 -8c9 -13 5 -49 5 -70v-376
c0 -71 -6 -153 49 -171c40 -13 75 4 87 30c16 31 11 94 11 141v379c0 23 -4 57 7 68s45 7 68 7c24 0 57 4 68 -7c9 -10 7 -39 7 -56v-431c0 -92 0 -156 -41 -206c-37 -44 -100 -65 -181 -65c-124 0 -199 49 -218 152c-7 33 -6 71 -6 116v432c0 32 -6 60 24 64z" />
    <glyph glyph-name="utilde" unicode="&#x169;" horiz-adv-x="544" 
d="M178 937c35 5 69 -10 95 -20c18 -7 47 -24 70 -18c22 5 23 28 43 36c13 6 64 7 71 -7c7 -16 -9 -48 -14 -59c-19 -41 -63 -86 -128 -68c-18 5 -35 15 -51 22c-18 8 -38 17 -57 16c-27 -2 -31 -29 -50 -37c-12 -5 -59 -8 -68 5c-10 14 4 47 11 62c14 31 39 63 78 68z
M73 752c13 1 39 1 62 1c20 0 50 2 58 -8c9 -13 5 -49 5 -70v-376c0 -71 -6 -153 49 -171c40 -13 75 4 87 30c16 31 11 94 11 141v379c0 23 -4 57 7 68s45 7 68 7c24 0 57 4 68 -7c9 -10 7 -39 7 -56v-431c0 -92 0 -156 -41 -206c-37 -44 -100 -65 -181 -65
c-124 0 -199 49 -218 152c-7 33 -6 71 -6 116v432c0 32 -6 60 24 64z" />
    <glyph glyph-name="ycircumflex" unicode="&#x177;" horiz-adv-x="587" 
d="M289 969c19 4 37 -20 49 -30l82 -74c14 -13 35 -25 36 -42c0 -15 -14 -23 -22 -33c-9 -9 -16 -24 -30 -24c-17 0 -40 28 -55 43c-13 12 -37 43 -54 43c-12 0 -22 -11 -30 -19c-20 -18 -32 -31 -50 -48c-9 -8 -21 -19 -30 -19c-14 0 -24 16 -31 24c-8 8 -22 17 -21 33
c0 14 21 30 34 41c27 25 52 46 79 70c11 10 26 31 43 35zM15 753c19 2 43 1 69 1c23 0 52 3 66 -4c15 -7 27 -40 36 -58c22 -44 41 -79 63 -124c8 -15 21 -55 37 -56c12 -1 19 16 24 25c31 54 57 102 86 156c11 19 25 51 41 58c19 8 54 3 80 3c21 0 66 6 72 -10
c6 -17 -16 -41 -23 -53c-58 -99 -115 -198 -172 -296c-10 -17 -23 -35 -27 -51c-5 -22 -2 -57 -2 -85v-174c0 -22 4 -68 -7 -79c-10 -11 -40 -7 -66 -7c-25 0 -60 -4 -69 8c-8 11 -6 50 -6 77v82c0 59 4 115 0 164c-2 24 -17 46 -28 65c-56 101 -112 195 -169 294
c-10 17 -42 58 -7 64h2z" />
    <glyph glyph-name="ygrave" unicode="&#x1ef3;" horiz-adv-x="587" 
d="M237 970c16 1 28 -20 37 -33c20 -27 34 -50 56 -80c7 -10 26 -28 25 -43c-1 -12 -14 -19 -25 -26c-9 -6 -23 -16 -35 -16c-16 1 -29 21 -40 31c-26 24 -46 44 -72 70c-9 9 -31 25 -31 40c0 14 24 25 37 33c15 9 31 23 48 24zM15 753c19 2 43 1 69 1c23 0 52 3 66 -4
c15 -7 27 -40 36 -58c22 -44 41 -79 63 -124c8 -15 21 -55 37 -56c12 -1 19 16 24 25c31 54 57 102 86 156c11 19 25 51 41 58c19 8 54 3 80 3c21 0 66 6 72 -10c6 -17 -16 -41 -23 -53c-58 -99 -115 -198 -172 -296c-10 -17 -23 -35 -27 -51c-5 -22 -2 -57 -2 -85v-174
c0 -22 4 -68 -7 -79c-10 -11 -40 -7 -66 -7c-25 0 -60 -4 -69 8c-8 11 -6 50 -6 77v82c0 59 4 115 0 164c-2 24 -17 46 -28 65c-56 101 -112 195 -169 294c-10 17 -42 58 -7 64h2z" />
    <glyph glyph-name="Hcircumflex" unicode="&#x124;" horiz-adv-x="555" 
d="M272 1011c19 4 37 -20 49 -30l82 -74c14 -13 35 -25 36 -42c0 -15 -14 -23 -22 -33c-9 -9 -16 -24 -30 -24c-17 0 -40 28 -55 43c-13 12 -37 43 -54 43c-12 0 -22 -11 -30 -19c-20 -18 -32 -31 -50 -48c-9 -8 -21 -19 -30 -19c-14 0 -24 16 -31 24c-8 8 -22 17 -21 33
c0 14 21 30 34 41c27 25 52 46 79 70c11 10 26 31 43 35zM77 750c17 3 107 6 119 -5c9 -10 6 -48 6 -67v-147c0 -20 -4 -55 7 -66c12 -12 46 -7 68 -7s59 -2 68 7c10 9 7 48 7 66v146c0 22 -3 56 6 67c10 11 39 7 67 7c26 0 61 4 71 -7c11 -13 6 -67 6 -89v-563
c0 -27 4 -75 -7 -87c-10 -10 -47 -7 -68 -7c-22 0 -57 -4 -68 7c-12 12 -7 44 -7 73v159c0 25 4 63 -7 73c-11 11 -43 7 -68 7c-26 0 -56 5 -68 -7c-10 -10 -7 -52 -7 -73v-159c0 -21 6 -60 -6 -73c-10 -10 -46 -7 -68 -7c-21 0 -57 -4 -68 7s-7 61 -7 88v608
c0 29 -2 46 24 49z" />
    <glyph glyph-name="AEacute" unicode="&#x1fc;" horiz-adv-x="921" 
d="M474 1012c17 2 33 -14 49 -24c10 -6 38 -16 39 -32c1 -15 -21 -30 -31 -40l-71 -71c-10 -10 -26 -30 -40 -31c-12 -1 -25 10 -35 16c-11 7 -25 12 -26 25c-1 15 16 33 24 44c21 29 36 51 56 78c8 11 19 33 35 35zM306 753c41 5 115 1 175 1h87c25 0 67 4 83 -4
c15 -8 20 -34 27 -54c3 -10 7 -20 11 -30c3 -9 9 -22 4 -32c-9 -16 -90 -9 -115 -9h-62c-18 0 -47 2 -52 -10c-6 -14 5 -33 9 -43l29 -78c5 -13 10 -27 21 -32c13 -6 36 -3 57 -3h119c21 0 43 2 55 -4c15 -8 19 -34 27 -54c3 -10 7 -19 11 -30c3 -9 8 -23 4 -32
c-6 -11 -33 -9 -52 -9h-122c-22 0 -46 2 -51 -10c-4 -9 2 -22 4 -27c15 -44 28 -76 44 -120c6 -17 13 -36 24 -41c21 -10 88 -4 117 -4h61c21 0 43 2 56 -4c17 -8 20 -32 28 -53c4 -12 23 -47 15 -62c-9 -15 -69 -9 -92 -9h-200c-30 0 -77 -5 -95 5c-20 11 -28 53 -36 75
c-5 12 -10 26 -15 40c-6 14 -11 29 -21 34c-12 6 -38 4 -59 4h-126c-21 0 -51 2 -62 -4c-18 -9 -29 -54 -36 -74c-9 -23 -18 -65 -35 -75c-13 -8 -48 -5 -72 -5s-61 -5 -68 9c-7 12 5 36 11 50c84 218 166 431 251 647c9 23 13 44 41 47zM308 455c-11 -34 -24 -71 -36 -108
c-4 -12 -18 -44 -12 -58c6 -15 54 -10 78 -10c22 0 72 -6 79 10s-10 46 -15 59l-40 112c-4 11 -15 52 -31 47c-12 -4 -19 -38 -23 -52z" />
    <glyph glyph-name="Abreve" unicode="&#x102;" horiz-adv-x="687" 
d="M193 982c20 3 57 3 69 -3c13 -8 16 -28 24 -38c10 -15 28 -27 55 -28c28 -1 48 14 59 30c8 13 10 31 25 37c15 7 78 6 85 -7c9 -18 -10 -49 -16 -60c-28 -50 -77 -86 -151 -86c-87 0 -144 48 -165 112c-7 21 -10 39 15 43zM311 773c19 2 74 5 89 -5c11 -7 16 -25 23 -43
c44 -119 77 -210 123 -333c43 -113 80 -218 123 -333c6 -15 17 -37 11 -50c-8 -16 -41 -10 -67 -10c-28 0 -62 -3 -75 5c-15 9 -27 55 -35 76l-15 41c-5 12 -9 29 -21 34c-13 5 -39 3 -60 3h-125c-19 0 -44 3 -59 -3c-13 -5 -18 -21 -23 -34c-11 -28 -20 -53 -32 -82
c-6 -16 -12 -32 -26 -37c-16 -6 -44 -3 -72 -3c-24 0 -58 -5 -64 10c-5 13 7 36 13 51c84 223 169 445 253 667c9 23 12 42 39 46zM314 468c-12 -39 -24 -75 -36 -116c-5 -17 -19 -47 -13 -62c7 -17 52 -11 77 -11c22 0 73 -6 81 8c9 15 -9 47 -14 63c-14 42 -26 79 -41 121
c-4 12 -15 57 -30 53c-14 -3 -20 -43 -24 -56z" />
    <glyph glyph-name="Imacron" unicode="&#x12a;" horiz-adv-x="254" 
d="M-39 928c0 0 0 1 1 1c57 4 111 0 179 0h134c18 0 31 -1 37 -7c11 -11 11 -63 0 -74c-13 -12 -61 -7 -89 -7h-192c-27 0 -76 -6 -88 7c-10 9 -13 58 -2 72c5 6 12 7 20 8zM79 753c19 2 103 7 116 -6c11 -11 7 -59 7 -88v-564c0 -28 5 -79 -8 -90c-12 -11 -42 -6 -67 -6
c-24 0 -56 -3 -66 7c-11 11 -7 59 -7 87v470v141c0 29 -1 46 25 49z" />
    <glyph glyph-name="ibreve" unicode="&#x12d;" horiz-adv-x="255" 
d="M-23 959c20 3 57 3 69 -3c13 -8 16 -28 24 -38c10 -15 28 -27 55 -28c28 -1 48 14 59 30c8 13 10 31 25 37c15 7 78 6 85 -7c9 -18 -10 -49 -16 -60c-28 -50 -77 -86 -151 -86c-87 0 -144 48 -165 112c-7 21 -10 39 15 43zM77 750c10 2 39 1 63 1c20 0 46 3 56 -6
c11 -12 6 -61 6 -88v-282v-281c0 -27 5 -76 -5 -88c-12 -13 -41 -8 -68 -8c-23 0 -59 -3 -69 7c-11 11 -7 61 -7 88v469v141c0 28 -1 44 24 47z" />
    <glyph glyph-name="Lslash" unicode="&#x141;" horiz-adv-x="410" 
d="M410 63c0 -23 3 -46 -7 -57c-13 -12 -58 -7 -83 -7h-179c-26 0 -70 -5 -81 8c-11 12 -6 61 -6 88v165c-4 -1 -8 -2 -11 -1c-14 3 -58 63 -57 81c0 9 7 13 12 18c13 13 33 27 56 42v306c0 30 -1 44 25 47c11 1 37 1 62 1c19 0 45 2 54 -7c10 -10 7 -46 7 -72v-182
c3 1 7 2 10 1c12 -3 23 -23 34 -39c10 -15 25 -33 22 -45c-3 -13 -25 -26 -42 -37l-24 -16v-151c0 -23 -4 -60 7 -71c14 -14 67 -7 97 -7h52c17 0 37 1 45 -7c9 -9 7 -38 7 -58z" />
    <glyph glyph-name="Eth" unicode="&#xd0;" horiz-adv-x="530" 
d="M437 636c52 -74 73 -186 65 -316c-11 -178 -89 -296 -259 -318c-41 -5 -92 -4 -140 -4c-19 0 -36 -1 -44 8c-11 13 -6 61 -6 89v224h-9c-21 0 -47 -1 -55 7s-7 28 -7 49c0 32 -5 54 25 58c15 2 32 3 46 2v223c0 30 -5 75 7 87c13 13 85 5 108 6c137 7 217 -41 269 -115z
M278 156c86 64 96 277 41 383c-18 35 -46 68 -90 74c-3 1 -6 1 -7 0c-16 -1 -19 -12 -19 -29c-2 -54 -1 -101 -1 -150h12c25 0 44 1 52 -7c11 -11 12 -89 0 -101c-9 -9 -34 -7 -56 -7h-7v-67c0 -32 -7 -102 8 -113c19 -12 56 9 67 17z" />
    <glyph glyph-name="scommaaccent" unicode="&#x219;" horiz-adv-x="440" 
d="M231 764c19 0 51 -3 75 -10c21 -7 47 -15 54 -31c7 -14 4 -39 4 -65c0 -17 5 -53 -8 -59c-14 -6 -38 16 -50 21c-19 7 -58 14 -83 3c-15 -6 -30 -21 -35 -34c-18 -49 14 -95 40 -118c60 -54 142 -89 170 -180c11 -36 13 -83 5 -125c-14 -76 -58 -135 -119 -161
c-31 -12 -70 -21 -121 -15c-30 4 -86 15 -97 42c-6 14 -3 40 -3 64c0 19 -4 53 9 58c12 5 34 -10 46 -14c14 -5 32 -11 53 -11c40 -1 68 17 82 44c9 20 10 53 0 74c-12 25 -36 43 -59 59c-69 47 -139 93 -155 192c-12 73 7 145 37 188c32 46 82 78 155 78zM188 -31
c16 2 95 -3 101 -19c4 -12 -7 -28 -12 -40c-35 -72 -69 -146 -105 -219c-6 -12 -12 -26 -23 -30c-17 -6 -73 2 -78 15c-4 10 3 28 8 41c22 58 47 125 68 187c8 24 14 62 41 65z" />
    <glyph glyph-name="Scommaaccent" unicode="&#x218;" horiz-adv-x="526" 
d="M258 773c63 4 131 -20 175 -47c14 -8 36 -20 37 -37c2 -19 -16 -35 -26 -49c-7 -11 -18 -38 -35 -40s-29 20 -47 31c-17 10 -48 20 -80 16c-34 -5 -57 -24 -69 -48c-6 -13 -10 -38 -4 -56c15 -43 66 -60 107 -78c88 -38 168 -77 184 -185c17 -118 -31 -215 -102 -261
c-39 -26 -85 -40 -144 -40c-86 0 -145 40 -189 88c-11 12 -36 38 -35 57s23 34 36 47c6 6 14 12 22 20c6 5 13 17 25 16s20 -18 26 -28c20 -30 53 -59 93 -66c68 -13 112 36 117 92c7 82 -55 106 -110 128c-83 33 -166 72 -184 173c-13 76 12 143 45 185c17 21 36 39 64 55
c26 15 56 25 94 27zM256 -31c16 2 95 -3 101 -19c4 -12 -7 -28 -12 -40c-35 -72 -69 -146 -105 -219c-6 -12 -12 -26 -23 -30c-17 -6 -73 2 -78 15c-4 10 3 28 8 41c22 58 47 125 68 187c8 24 14 62 41 65z" />
    <glyph glyph-name="Dcroat" unicode="&#x110;" horiz-adv-x="530" 
d="M437 636c52 -74 73 -186 65 -316c-11 -178 -89 -296 -259 -318c-41 -5 -92 -4 -140 -4c-19 0 -36 -1 -44 8c-11 13 -6 61 -6 89v224h-9c-21 0 -47 -1 -55 7s-7 28 -7 49c0 32 -5 54 25 58c15 2 32 3 46 2v223c0 30 -5 75 7 87c13 13 85 5 108 6c137 7 217 -41 269 -115z
M278 156c86 64 96 277 41 383c-18 35 -46 68 -90 74c-3 1 -6 1 -7 0c-16 -1 -19 -12 -19 -29c-2 -54 -1 -101 -1 -150h12c25 0 44 1 52 -7c11 -11 12 -89 0 -101c-9 -9 -34 -7 -56 -7h-7v-67c0 -32 -7 -102 8 -113c19 -12 56 9 67 17z" />
    <glyph glyph-name="Gcommaaccent" unicode="&#x122;" horiz-adv-x="563" 
d="M287 763c108 5 177 -57 213 -133c5 -11 13 -26 11 -38c-4 -19 -43 -26 -60 -33l-34 -14c-9 -3 -24 -11 -36 -7c-17 4 -19 34 -27 49c-14 26 -50 50 -90 31c-16 -7 -26 -17 -37 -34c-38 -58 -46 -167 -39 -270c4 -49 12 -94 28 -128c20 -40 64 -77 115 -52
c25 12 43 46 50 77c3 17 10 45 1 59c-16 20 -63 -4 -82 15c-12 12 -7 41 -7 64s-3 53 7 63c9 9 36 7 54 7h123c20 0 45 2 53 -7c10 -9 7 -34 7 -55c0 -141 -30 -263 -107 -326c-22 -17 -52 -33 -84 -39c-122 -25 -207 37 -252 108c-31 49 -54 117 -62 186
c-20 155 11 316 84 399c37 42 93 74 171 78zM290 -31c16 2 95 -3 101 -19c4 -12 -7 -28 -12 -40c-35 -72 -69 -146 -105 -219c-6 -12 -12 -26 -23 -30c-17 -6 -73 2 -78 15c-4 10 3 28 8 41c22 58 47 125 68 187c8 24 14 62 41 65z" />
    <glyph glyph-name="Hbar" unicode="&#x126;" horiz-adv-x="674" 
d="M704 647c11 -15 9 -90 -1 -100c-11 -10 -55 -7 -82 -7v-447c0 -28 6 -80 -9 -89c-12 -8 -41 -5 -66 -5c-27 0 -57 -4 -67 8s-6 54 -6 78v168c0 25 5 65 -7 76c-9 10 -40 7 -61 7h-134c-17 0 -50 3 -61 -6c-12 -11 -8 -50 -8 -77v-170c0 -24 6 -65 -7 -77
c-11 -11 -42 -7 -68 -7c-24 0 -55 -5 -67 8c-10 12 -6 64 -6 88v445c-27 -1 -69 -4 -79 8c-9 10 -12 84 -1 98c4 5 11 7 20 8c17 2 38 2 60 1v49c0 30 -1 45 25 49c18 2 38 1 62 1c18 0 45 3 54 -7c11 -11 7 -49 7 -67v-25h271v25c0 20 -3 56 7 67c11 11 43 7 67 7
c22 0 56 4 67 -7c14 -14 7 -66 7 -88v-4c25 0 74 4 83 -8zM466 464c11 10 7 45 7 68v8h-271v-8c0 -22 -3 -60 8 -69c12 -9 40 -6 61 -6h132c27 0 54 -2 63 7z" />
    <glyph glyph-name="Kcommaaccent" unicode="&#x136;" horiz-adv-x="513" 
d="M210 461c12 4 16 19 21 30c25 62 45 124 69 189c7 20 17 59 34 68c15 7 43 3 71 3c22 0 58 6 64 -9c5 -12 -6 -31 -12 -45c-34 -85 -64 -163 -99 -249c-5 -13 -13 -30 -13 -43c-1 -16 10 -37 16 -52c38 -100 73 -192 113 -293c5 -13 19 -39 13 -52
c-6 -14 -46 -10 -69 -10s-59 -4 -73 5c-10 6 -16 24 -21 38c-30 87 -58 173 -91 259c-5 13 -10 28 -22 36c-13 -20 -9 -50 -9 -78v-173c0 -24 4 -69 -7 -80c-10 -10 -42 -7 -67 -7c-26 0 -60 -3 -70 8c-11 13 -6 62 -6 89v559c0 27 -5 76 5 89c12 15 50 8 81 8
c21 0 48 3 57 -6c10 -11 7 -45 7 -68v-150c0 -23 -3 -48 8 -66zM265 -31c16 2 95 -3 101 -19c4 -12 -7 -28 -12 -40c-35 -72 -69 -146 -105 -219c-6 -12 -12 -26 -23 -30c-17 -6 -73 2 -78 15c-4 10 3 28 8 41c22 58 47 125 68 187c8 24 14 62 41 65z" />
    <glyph glyph-name="Lcaron" unicode="&#x13d;" horiz-adv-x="410" 
d="M7 981c12 1 23 -10 33 -19c19 -17 34 -31 54 -48c10 -9 21 -19 31 -19c13 0 21 11 32 20l55 47c8 7 21 20 31 20c14 0 23 -14 31 -23c7 -8 22 -21 22 -32c0 -17 -27 -34 -37 -43c-31 -27 -55 -48 -86 -74c-13 -11 -31 -33 -47 -33c-18 0 -36 23 -47 33
c-28 25 -56 48 -85 74c-9 8 -37 24 -38 41c-1 12 10 21 20 32s19 23 31 24zM79 753c11 1 37 1 62 1c19 0 45 2 54 -7c10 -10 7 -46 7 -72v-469c0 -23 -4 -60 7 -71c14 -14 67 -7 97 -7h52c17 0 37 1 45 -7c9 -9 7 -38 7 -58c0 -23 3 -46 -7 -57c-13 -12 -58 -7 -83 -7h-179
c-26 0 -70 -5 -81 8c-11 12 -6 61 -6 88v611c0 30 -1 44 25 47z" />
    <glyph glyph-name="Lcommaaccent" unicode="&#x13b;" horiz-adv-x="410" 
d="M79 753c11 1 37 1 62 1c19 0 45 2 54 -7c10 -10 7 -46 7 -72v-469c0 -23 -4 -60 7 -71c14 -14 67 -7 97 -7h52c17 0 37 1 45 -7c9 -9 7 -38 7 -58c0 -23 3 -46 -7 -57c-13 -12 -58 -7 -83 -7h-179c-26 0 -70 -5 -81 8c-11 12 -6 61 -6 88v611c0 30 -1 44 25 47zM209 -31
c16 2 95 -3 101 -19c4 -12 -7 -28 -12 -40c-35 -72 -69 -146 -105 -219c-6 -12 -12 -26 -23 -30c-17 -6 -73 2 -78 15c-4 10 3 28 8 41c22 58 47 125 68 187c8 24 14 62 41 65z" />
    <glyph glyph-name="Ldot" unicode="&#x13f;" horiz-adv-x="410" 
d="M79 753c11 1 37 1 62 1c19 0 45 2 54 -7c10 -10 7 -46 7 -72v-469c0 -23 -4 -60 7 -71c14 -14 67 -7 97 -7h52c17 0 37 1 45 -7c9 -9 7 -38 7 -58c0 -23 3 -46 -7 -57c-13 -12 -58 -7 -83 -7h-179c-26 0 -70 -5 -81 8c-11 12 -6 61 -6 88v611c0 30 -1 44 25 47zM320 472
c41 0 74 -32 74 -73s-33 -75 -74 -75s-74 34 -74 75s33 73 74 73z" />
    <glyph glyph-name="Ncommaaccent" unicode="&#x145;" horiz-adv-x="759" 
d="M80 773c11 1 58 4 75 -2c19 -6 41 -40 54 -58c104 -140 205 -277 312 -416c14 -18 36 -43 39 -2c2 29 0 64 0 91v304c0 20 -2 48 7 57c12 11 45 7 67 7c24 0 60 4 69 -9c11 -16 5 -64 5 -91v-573c0 -28 4 -77 -6 -89c-11 -12 -73 -12 -94 -5c-22 8 -39 40 -53 59
c-105 139 -205 275 -313 415c-7 10 -20 28 -30 25c-11 -3 -9 -34 -9 -53v-371c0 -23 2 -48 -8 -57c-11 -10 -46 -6 -66 -6c-21 0 -54 -4 -66 6c-12 11 -8 59 -8 89v578c0 31 -5 76 5 91c4 6 7 8 20 10zM388 -31c16 2 95 -3 101 -19c4 -12 -7 -28 -12 -40
c-35 -72 -69 -146 -105 -219c-6 -12 -12 -26 -23 -30c-17 -6 -73 2 -78 15c-4 10 3 28 8 41c22 58 47 125 68 187c8 24 14 62 41 65z" />
    <glyph glyph-name="Oslashacute" unicode="&#x1fe;" horiz-adv-x="782" 
d="M740 668c-12 -13 -36 -33 -37 -49c-1 -11 7 -21 12 -31c34 -64 57 -147 49 -247c-9 -108 -46 -185 -98 -245c-54 -61 -129 -104 -229 -114c-101 -10 -184 14 -245 52c-9 5 -19 13 -29 13c-19 -1 -33 -24 -46 -38c-9 -9 -29 -38 -46 -38c-14 0 -28 17 -38 26
c-9 9 -27 22 -27 36c-1 18 28 40 38 50c12 13 36 31 38 49c1 11 -6 23 -11 32c-35 64 -58 145 -51 248c7 108 44 184 99 245c53 59 124 104 229 115c13 1 26 2 38 2c-10 2 -21 11 -30 16c-11 7 -25 12 -26 25c-1 15 16 33 24 44c21 29 36 51 56 78c8 11 19 33 35 35
c17 2 33 -14 49 -24c10 -6 38 -16 39 -32c1 -15 -21 -30 -31 -40l-71 -71c-10 -10 -25 -28 -38 -31c81 0 146 -23 199 -55c8 -5 20 -13 30 -13c17 0 32 22 43 33c12 12 25 34 42 37s28 -12 42 -24c11 -10 29 -20 29 -35c0 -13 -11 -20 -17 -27zM205 263c14 -1 32 24 43 35
c14 14 26 28 38 40c64 69 126 133 189 201c9 10 34 29 33 45c-1 17 -34 30 -51 35c-25 8 -57 10 -79 8c-45 -3 -80 -18 -111 -41s-51 -50 -67 -83c-15 -31 -29 -72 -28 -122c0 -23 2 -45 7 -68c4 -18 11 -49 26 -50zM516 163c71 52 115 167 90 281c-5 22 -11 48 -31 43
c-16 -4 -30 -26 -41 -39c-13 -14 -27 -27 -38 -39c-53 -57 -95 -98 -149 -157c-9 -10 -24 -23 -38 -39c-11 -12 -33 -30 -32 -45c1 -18 30 -27 47 -32c17 -6 46 -10 70 -10c51 0 92 16 122 37z" />
    <glyph glyph-name="Rcommaaccent" unicode="&#x156;" horiz-adv-x="530" 
d="M481 8c-12 -12 -42 -8 -69 -8c-26 0 -56 -4 -72 5c-18 10 -26 48 -35 71c-24 66 -46 129 -72 194c-5 11 -11 25 -22 31c-12 -16 -9 -43 -9 -69v-154c0 -23 4 -64 -7 -73c-14 -10 -45 -5 -68 -5c-21 0 -56 -5 -67 6c-12 12 -7 59 -7 87v560c0 26 -5 73 4 89
c10 17 51 11 78 11c56 0 116 1 163 -7c66 -12 112 -42 140 -87c27 -45 38 -120 21 -187c-12 -47 -33 -79 -64 -106c-9 -8 -26 -19 -27 -29c-3 -14 7 -31 12 -44c31 -81 61 -161 92 -241c4 -13 13 -26 9 -44zM202 576v-50c0 -25 -5 -80 8 -91c15 -13 50 -3 63 4
c26 12 45 45 48 82c4 66 -29 114 -94 107c-27 -3 -25 -24 -25 -52zM273 -31c16 2 95 -3 101 -19c4 -12 -7 -28 -12 -40c-35 -72 -69 -146 -105 -219c-6 -12 -12 -26 -23 -30c-17 -6 -73 2 -78 15c-4 10 3 28 8 41c22 58 47 125 68 187c8 24 14 62 41 65z" />
    <glyph glyph-name="Tbar" unicode="&#x166;" horiz-adv-x="414" 
d="M393 745c9 -12 6 -38 6 -63c0 -24 3 -52 -7 -62c-20 -21 -81 6 -103 -13c-12 -10 -8 -47 -8 -70v-103h12c25 0 44 1 52 -7c11 -11 12 -89 0 -101c-9 -9 -34 -7 -56 -7h-8v-243c0 -28 4 -59 -7 -70s-42 -6 -68 -6c-22 0 -57 -5 -68 6c-10 11 -6 45 -6 70v243h-9
c-21 0 -47 -1 -55 7s-7 28 -7 49c0 32 -5 54 25 58c15 2 32 3 46 2v102c0 22 4 57 -7 69c-20 20 -84 -6 -103 14c-10 9 -7 37 -7 61c0 38 -7 67 24 71c22 3 60 1 91 1h178c25 0 76 4 85 -8z" />
    <glyph glyph-name="uni0162" unicode="&#x162;" horiz-adv-x="414" 
d="M39 752c22 3 60 1 91 1h178c25 0 76 4 85 -8s6 -38 6 -63c0 -24 3 -52 -7 -62c-20 -21 -81 6 -103 -13c-12 -10 -8 -47 -8 -70v-461c0 -28 4 -59 -7 -70s-42 -6 -68 -6c-22 0 -57 -5 -68 6c-10 11 -6 45 -6 70v461c0 22 4 57 -7 69c-20 20 -84 -6 -103 14
c-10 9 -7 37 -7 61c0 38 -7 67 24 71zM212 -26c13 3 31 -7 46 -15c12 -6 32 -15 34 -26c2 -15 -14 -29 -22 -38c-19 -23 -36 -42 -55 -65c-9 -10 -18 -26 -31 -28c-14 -2 -26 7 -37 13s-25 11 -26 23c-1 11 11 28 17 37c15 23 28 41 43 64c9 14 16 29 31 35z" />
    <glyph glyph-name="uni021A" unicode="&#x21a;" horiz-adv-x="414" 
d="M39 752c22 3 60 1 91 1h178c25 0 76 4 85 -8s6 -38 6 -63c0 -24 3 -52 -7 -62c-20 -21 -81 6 -103 -13c-12 -10 -8 -47 -8 -70v-461c0 -28 4 -59 -7 -70s-42 -6 -68 -6c-22 0 -57 -5 -68 6c-10 11 -6 45 -6 70v461c0 22 4 57 -7 69c-20 20 -84 -6 -103 14
c-10 9 -7 37 -7 61c0 38 -7 67 24 71zM215 -31c16 2 95 -3 101 -19c4 -12 -7 -28 -12 -40c-35 -72 -69 -146 -105 -219c-6 -12 -12 -26 -23 -30c-17 -6 -73 2 -78 15c-4 10 3 28 8 41c22 58 47 125 68 187c8 24 14 62 41 65z" />
    <glyph glyph-name="Wacute" unicode="&#x1e82;" horiz-adv-x="793" 
d="M451 972c17 2 33 -14 49 -24c10 -6 38 -16 39 -32c1 -15 -21 -30 -31 -40l-71 -71c-10 -10 -26 -30 -40 -31c-12 -1 -25 10 -35 16c-11 7 -25 12 -26 25c-1 15 16 33 24 44c21 29 36 51 56 78c8 11 19 33 35 35zM242 316c11 13 13 33 17 51c21 110 44 218 68 330
c4 19 7 44 18 51c11 6 33 5 53 5c21 0 41 2 52 -5c11 -8 14 -33 18 -52c22 -117 40 -231 64 -348c3 -17 5 -37 17 -50c13 12 11 34 14 53c14 115 37 229 55 343c4 22 5 45 17 54c13 9 46 5 72 5c25 0 60 5 69 -8c6 -9 0 -32 -3 -48c-41 -204 -82 -402 -126 -606
c-5 -26 -10 -78 -27 -87c-15 -9 -98 -8 -112 1c-14 8 -15 29 -20 54c-24 124 -50 241 -70 368c-3 19 -3 42 -17 56c-14 -15 -15 -37 -19 -57c-24 -123 -51 -242 -78 -368c-5 -20 -9 -46 -21 -53c-11 -8 -36 -5 -57 -5c-24 0 -44 -4 -58 5c-17 10 -22 59 -27 84
c-41 204 -80 402 -121 605c-6 28 -17 55 15 59c19 2 40 0 63 0c19 0 46 1 56 -5c10 -7 13 -31 16 -49c20 -112 42 -220 59 -332c2 -18 3 -37 13 -51z" />
    <glyph glyph-name="Wcircumflex" unicode="&#x174;" horiz-adv-x="793" 
d="M392 971c19 4 37 -20 49 -30l82 -74c14 -13 35 -25 36 -42c0 -15 -14 -23 -22 -33c-9 -9 -16 -24 -30 -24c-17 0 -40 28 -55 43c-13 12 -37 43 -54 43c-12 0 -22 -11 -30 -19c-20 -18 -32 -31 -50 -48c-9 -8 -21 -19 -30 -19c-14 0 -24 16 -31 24c-8 8 -22 17 -21 33
c0 14 21 30 34 41c27 25 52 46 79 70c11 10 26 31 43 35zM242 316c11 13 13 33 17 51c21 110 44 218 68 330c4 19 7 44 18 51c11 6 33 5 53 5c21 0 41 2 52 -5c11 -8 14 -33 18 -52c22 -117 40 -231 64 -348c3 -17 5 -37 17 -50c13 12 11 34 14 53c14 115 37 229 55 343
c4 22 5 45 17 54c13 9 46 5 72 5c25 0 60 5 69 -8c6 -9 0 -32 -3 -48c-41 -204 -82 -402 -126 -606c-5 -26 -10 -78 -27 -87c-15 -9 -98 -8 -112 1c-14 8 -15 29 -20 54c-24 124 -50 241 -70 368c-3 19 -3 42 -17 56c-14 -15 -15 -37 -19 -57c-24 -123 -51 -242 -78 -368
c-5 -20 -9 -46 -21 -53c-11 -8 -36 -5 -57 -5c-24 0 -44 -4 -58 5c-17 10 -22 59 -27 84c-41 204 -80 402 -121 605c-6 28 -17 55 15 59c19 2 40 0 63 0c19 0 46 1 56 -5c10 -7 13 -31 16 -49c20 -112 42 -220 59 -332c2 -18 3 -37 13 -51z" />
    <glyph glyph-name="Wdieresis" unicode="&#x1e84;" horiz-adv-x="793" 
d="M279 956c23 3 45 -3 58 -12c11 -8 17 -13 25 -28c18 -34 7 -73 -14 -95c-48 -48 -144 -16 -136 66c3 37 31 64 67 69zM490 956c23 3 45 -3 58 -12c11 -8 17 -13 25 -28c18 -34 7 -73 -14 -95c-48 -48 -144 -16 -136 66c3 37 31 64 67 69zM242 316c11 13 13 33 17 51
c21 110 44 218 68 330c4 19 7 44 18 51c11 6 33 5 53 5c21 0 41 2 52 -5c11 -8 14 -33 18 -52c22 -117 40 -231 64 -348c3 -17 5 -37 17 -50c13 12 11 34 14 53c14 115 37 229 55 343c4 22 5 45 17 54c13 9 46 5 72 5c25 0 60 5 69 -8c6 -9 0 -32 -3 -48
c-41 -204 -82 -402 -126 -606c-5 -26 -10 -78 -27 -87c-15 -9 -98 -8 -112 1c-14 8 -15 29 -20 54c-24 124 -50 241 -70 368c-3 19 -3 42 -17 56c-14 -15 -15 -37 -19 -57c-24 -123 -51 -242 -78 -368c-5 -20 -9 -46 -21 -53c-11 -8 -36 -5 -57 -5c-24 0 -44 -4 -58 5
c-17 10 -22 59 -27 84c-41 204 -80 402 -121 605c-6 28 -17 55 15 59c19 2 40 0 63 0c19 0 46 1 56 -5c10 -7 13 -31 16 -49c20 -112 42 -220 59 -332c2 -18 3 -37 13 -51z" />
    <glyph glyph-name="Wgrave" unicode="&#x1e80;" horiz-adv-x="793" 
d="M340 972c16 1 28 -20 37 -33c20 -27 34 -50 56 -80c7 -10 26 -28 25 -43c-1 -12 -14 -19 -25 -26c-9 -6 -23 -16 -35 -16c-16 1 -29 21 -40 31c-26 24 -46 44 -72 70c-9 9 -31 25 -31 40c0 14 24 25 37 33c15 9 31 23 48 24zM242 316c11 13 13 33 17 51
c21 110 44 218 68 330c4 19 7 44 18 51c11 6 33 5 53 5c21 0 41 2 52 -5c11 -8 14 -33 18 -52c22 -117 40 -231 64 -348c3 -17 5 -37 17 -50c13 12 11 34 14 53c14 115 37 229 55 343c4 22 5 45 17 54c13 9 46 5 72 5c25 0 60 5 69 -8c6 -9 0 -32 -3 -48
c-41 -204 -82 -402 -126 -606c-5 -26 -10 -78 -27 -87c-15 -9 -98 -8 -112 1c-14 8 -15 29 -20 54c-24 124 -50 241 -70 368c-3 19 -3 42 -17 56c-14 -15 -15 -37 -19 -57c-24 -123 -51 -242 -78 -368c-5 -20 -9 -46 -21 -53c-11 -8 -36 -5 -57 -5c-24 0 -44 -4 -58 5
c-17 10 -22 59 -27 84c-41 204 -80 402 -121 605c-6 28 -17 55 15 59c19 2 40 0 63 0c19 0 46 1 56 -5c10 -7 13 -31 16 -49c20 -112 42 -220 59 -332c2 -18 3 -37 13 -51z" />
    <glyph glyph-name="dcaron" unicode="&#x10f;" horiz-adv-x="646" 
d="M159 982c12 1 23 -10 33 -19c19 -17 34 -31 54 -48c10 -9 21 -19 31 -19c13 0 21 11 32 20l55 47c8 7 21 20 31 20c14 0 23 -14 31 -23c7 -8 22 -21 22 -32c0 -17 -27 -34 -37 -43c-31 -27 -55 -48 -86 -74c-13 -11 -31 -33 -47 -33c-18 0 -36 23 -47 33
c-28 25 -56 48 -85 74c-9 8 -37 24 -38 41c-1 12 10 21 20 32s19 23 31 24zM79 753c35 4 82 1 119 1c41 0 80 1 114 -3c71 -8 127 -33 170 -65c83 -60 154 -169 147 -323c-6 -145 -70 -246 -164 -306c-45 -29 -103 -53 -178 -57c-55 -3 -112 -1 -175 -1c-20 0 -42 -1 -51 7
c-11 11 -7 59 -7 87v608c0 29 -2 48 25 52zM202 560v-62v-248c0 -27 -7 -103 8 -116c10 -8 37 -6 55 -4c137 14 205 92 211 234c6 128 -46 211 -137 244c-28 10 -75 21 -112 16c-31 -4 -25 -30 -25 -64z" />
    <glyph glyph-name="dcroat" unicode="&#x111;" horiz-adv-x="646" 
d="M482 686c83 -60 154 -169 147 -323c-6 -145 -70 -246 -164 -306c-45 -29 -103 -53 -178 -57c-55 -3 -112 -1 -175 -1c-20 0 -42 -1 -51 7c-11 11 -7 59 -7 87v214h-1c-21 0 -47 -1 -55 7s-7 28 -7 49c0 32 -5 54 25 58c12 2 26 2 38 2v278c0 29 -2 48 25 52
c35 4 82 1 119 1c41 0 80 1 114 -3c71 -8 127 -33 170 -65zM476 364c6 128 -46 211 -137 244c-28 10 -75 21 -112 16c-31 -4 -25 -30 -25 -64v-62v-76h21c25 0 44 1 52 -7c11 -11 12 -89 0 -101c-9 -9 -34 -7 -56 -7h-17v-57c0 -27 -7 -103 8 -116c10 -8 37 -6 55 -4
c137 14 205 92 211 234z" />
    <glyph glyph-name="gcommaaccent" unicode="&#x123;" horiz-adv-x="739" 
d="M361 818c-16 -1 -95 2 -101 12c-4 8 7 18 12 26c35 45 69 91 105 137c6 8 12 17 23 19c17 4 73 -1 78 -9c4 -7 -3 -18 -8 -26c-22 -37 -47 -79 -68 -118c-8 -15 -14 -39 -41 -41zM364 773c136 7 234 -52 292 -132c7 -11 20 -27 19 -41c-2 -20 -33 -29 -52 -39l-30 -16
c-10 -5 -21 -14 -32 -13c-13 1 -20 14 -26 24c-30 44 -83 90 -159 87c-88 -3 -142 -59 -173 -122c-21 -43 -36 -99 -32 -162c3 -62 19 -111 45 -152c34 -53 99 -113 197 -93c52 10 88 41 114 82c9 14 33 57 20 75c-10 13 -48 9 -73 9c-28 0 -64 -4 -74 8c-8 9 -6 32 -6 54
c0 16 -3 43 7 52c11 11 50 7 74 7h162c29 0 67 3 77 -8c10 -12 5 -45 4 -63c-14 -148 -77 -260 -181 -314c-46 -24 -106 -40 -175 -36c-111 6 -184 49 -241 111c-47 51 -78 115 -94 189c-18 82 -9 178 16 247c41 115 126 208 257 238c21 5 43 7 64 8z" />
    <glyph glyph-name="gdotaccent" unicode="&#x121;" horiz-adv-x="739" 
d="M358 976c40 6 71 -16 84 -42c28 -60 -18 -115 -70 -116c-43 -1 -87 36 -81 91c4 36 32 62 67 67zM364 773c136 7 234 -52 292 -132c7 -11 20 -27 19 -41c-2 -20 -33 -29 -52 -39l-30 -16c-10 -5 -21 -14 -32 -13c-13 1 -20 14 -26 24c-30 44 -83 90 -159 87
c-88 -3 -142 -59 -173 -122c-21 -43 -36 -99 -32 -162c3 -62 19 -111 45 -152c34 -53 99 -113 197 -93c52 10 88 41 114 82c9 14 33 57 20 75c-10 13 -48 9 -73 9c-28 0 -64 -4 -74 8c-8 9 -6 32 -6 54c0 16 -3 43 7 52c11 11 50 7 74 7h162c29 0 67 3 77 -8
c10 -12 5 -45 4 -63c-14 -148 -77 -260 -181 -314c-46 -24 -106 -40 -175 -36c-111 6 -184 49 -241 111c-47 51 -78 115 -94 189c-18 82 -9 178 16 247c41 115 126 208 257 238c21 5 43 7 64 8z" />
    <glyph glyph-name="hbar" unicode="&#x127;" horiz-adv-x="674" 
d="M704 647c11 -15 9 -90 -1 -100c-11 -10 -55 -7 -82 -7v-447c0 -28 6 -80 -9 -89c-12 -8 -41 -5 -66 -5c-27 0 -57 -4 -67 8s-6 54 -6 78v168c0 25 5 65 -7 76c-9 10 -40 7 -61 7h-134c-17 0 -50 3 -61 -6c-12 -11 -8 -50 -8 -77v-170c0 -24 6 -65 -7 -77
c-11 -11 -42 -7 -68 -7c-24 0 -55 -5 -67 8c-10 12 -6 64 -6 88v445c-27 -1 -69 -4 -79 8c-9 10 -12 84 -1 98c4 5 11 7 20 8c17 2 38 2 60 1v49c0 30 -1 45 25 49c18 2 38 1 62 1c18 0 45 3 54 -7c11 -11 7 -49 7 -67v-25h271v25c0 20 -3 56 7 67c11 11 43 7 67 7
c22 0 56 4 67 -7c14 -14 7 -66 7 -88v-4c25 0 74 4 83 -8zM466 464c11 10 7 45 7 68v8h-271v-8c0 -22 -3 -60 8 -69c12 -9 40 -6 61 -6h132c27 0 54 -2 63 7z" />
    <glyph glyph-name="hcircumflex" unicode="&#x125;" horiz-adv-x="674" 
d="M332 953c19 4 37 -20 49 -30l82 -74c14 -13 35 -25 36 -42c0 -15 -14 -23 -22 -33c-9 -9 -16 -24 -30 -24c-17 0 -40 28 -55 43c-13 12 -37 43 -54 43c-12 0 -22 -11 -30 -19c-20 -18 -32 -31 -50 -48c-9 -8 -21 -19 -30 -19c-14 0 -24 16 -31 24c-8 8 -22 17 -21 33
c0 14 21 30 34 41c27 25 52 46 79 70c11 10 26 31 43 35zM79 753c18 2 38 1 62 1c18 0 45 3 54 -7c11 -11 7 -49 7 -67v-148c0 -22 -3 -60 8 -69c12 -9 40 -6 61 -6h132c27 0 54 -2 63 7c11 10 7 45 7 68v148c0 20 -3 56 7 67c11 11 43 7 67 7c22 0 56 4 67 -7
c14 -14 7 -66 7 -88v-566c0 -28 6 -80 -9 -89c-12 -8 -41 -5 -66 -5c-27 0 -57 -4 -67 8s-6 54 -6 78v168c0 25 5 65 -7 76c-9 10 -40 7 -61 7h-134c-17 0 -50 3 -61 -6c-12 -11 -8 -50 -8 -77v-170c0 -24 6 -65 -7 -77c-11 -11 -42 -7 -68 -7c-24 0 -55 -5 -67 8
c-10 12 -6 64 -6 88v609c0 30 -1 45 25 49z" />
    <glyph glyph-name="dotlessi" unicode="&#x131;" horiz-adv-x="254" 
d="M79 753c19 2 103 7 116 -6c11 -11 7 -59 7 -88v-564c0 -28 5 -79 -8 -90c-12 -11 -42 -6 -67 -6c-24 0 -56 -3 -66 7c-11 11 -7 59 -7 87v470v141c0 29 -1 46 25 49z" />
    <glyph glyph-name="i.loclTRK" horiz-adv-x="254" 
d="M115 976c40 6 71 -16 84 -42c28 -60 -18 -115 -70 -116c-43 -1 -87 36 -81 91c4 36 32 62 67 67zM79 753c19 2 103 7 116 -6c11 -11 7 -59 7 -88v-564c0 -28 5 -79 -8 -90c-12 -11 -42 -6 -67 -6c-24 0 -56 -3 -66 7c-11 11 -7 59 -7 87v470v141c0 29 -1 46 25 49z" />
    <glyph glyph-name="kcommaaccent" unicode="&#x137;" horiz-adv-x="620" 
d="M79 753c11 1 37 1 61 1c20 0 48 3 56 -8s6 -41 6 -69v-150c0 -21 -4 -62 9 -65c11 -3 26 21 34 31c57 76 109 148 165 225c10 14 19 29 33 33c19 5 56 3 83 3c25 0 71 5 75 -10c4 -16 -23 -38 -29 -46c-72 -86 -133 -163 -203 -247c-11 -12 -29 -31 -29 -45
c-1 -18 22 -40 32 -53c78 -106 155 -207 234 -315c6 -9 14 -18 12 -28c-5 -17 -51 -11 -79 -11c-32 0 -68 -4 -89 4c-14 5 -24 21 -34 35c-58 80 -112 159 -170 240c-9 12 -24 36 -34 34c-14 -2 -10 -50 -10 -71v-162c0 -24 4 -62 -7 -73c-13 -12 -41 -7 -67 -7
c-23 0 -56 -4 -67 7s-7 59 -7 87v564c0 26 -5 75 5 88c5 7 15 7 20 8zM318 -31c16 2 95 -3 101 -19c4 -12 -7 -28 -12 -40c-35 -72 -69 -146 -105 -219c-6 -12 -12 -26 -23 -30c-17 -6 -73 2 -78 15c-4 10 3 28 8 41c22 58 47 125 68 187c8 24 14 62 41 65z" />
    <glyph glyph-name="lacute" unicode="&#x13a;" horiz-adv-x="373" 
d="M181 970c17 2 33 -14 49 -24c10 -6 38 -16 39 -32c1 -15 -21 -30 -31 -40l-71 -71c-10 -10 -26 -30 -40 -31c-12 -1 -25 10 -35 16c-11 7 -25 12 -26 25c-1 15 16 33 24 44c21 29 36 51 56 78c8 11 19 33 35 35zM77 750c9 2 39 1 63 1c20 0 46 3 55 -6
c10 -10 7 -44 7 -70v-456c0 -28 -3 -63 7 -73s37 -7 71 -7c26 0 59 5 71 -6c10 -11 7 -41 7 -66c0 -26 3 -53 -8 -63c-12 -10 -48 -6 -70 -6h-152c-23 0 -62 -3 -71 9c-9 14 -5 62 -5 89v559c0 37 -9 95 23 95h2z" />
    <glyph glyph-name="lcaron" unicode="&#x13e;" horiz-adv-x="373" 
d="M8 979c12 1 23 -10 33 -19c19 -17 34 -31 54 -48c10 -9 21 -19 31 -19c13 0 21 11 32 20l55 47c8 7 21 20 31 20c14 0 23 -14 31 -23c7 -8 22 -21 22 -32c0 -17 -27 -34 -37 -43c-31 -27 -55 -48 -86 -74c-13 -11 -31 -33 -47 -33c-18 0 -36 23 -47 33
c-28 25 -56 48 -85 74c-9 8 -37 24 -38 41c-1 12 10 21 20 32s19 23 31 24zM77 750c9 2 39 1 63 1c20 0 46 3 55 -6c10 -10 7 -44 7 -70v-456c0 -28 -3 -63 7 -73s37 -7 71 -7c26 0 59 5 71 -6c10 -11 7 -41 7 -66c0 -26 3 -53 -8 -63c-12 -10 -48 -6 -70 -6h-152
c-23 0 -62 -3 -71 9c-9 14 -5 62 -5 89v559c0 37 -9 95 23 95h2z" />
    <glyph glyph-name="lcommaaccent" unicode="&#x13c;" horiz-adv-x="373" 
d="M77 750c9 2 39 1 63 1c20 0 46 3 55 -6c10 -10 7 -44 7 -70v-456c0 -28 -3 -63 7 -73s37 -7 71 -7c26 0 59 5 71 -6c10 -11 7 -41 7 -66c0 -26 3 -53 -8 -63c-12 -10 -48 -6 -70 -6h-152c-23 0 -62 -3 -71 9c-9 14 -5 62 -5 89v559c0 37 -9 95 23 95h2zM195 -31
c16 2 95 -3 101 -19c4 -12 -7 -28 -12 -40c-35 -72 -69 -146 -105 -219c-6 -12 -12 -26 -23 -30c-17 -6 -73 2 -78 15c-4 10 3 28 8 41c22 58 47 125 68 187c8 24 14 62 41 65z" />
    <glyph glyph-name="ldot" unicode="&#x140;" horiz-adv-x="480" 
d="M77 750c9 2 39 1 63 1c20 0 46 3 55 -6c10 -10 7 -44 7 -70v-456c0 -28 -3 -63 7 -73s37 -7 71 -7c26 0 59 5 71 -6c10 -11 7 -41 7 -66c0 -26 3 -53 -8 -63c-12 -10 -48 -6 -70 -6h-152c-23 0 -62 -3 -71 9c-9 14 -5 62 -5 89v559c0 37 -9 95 23 95h2zM381 490
c49 0 89 -39 89 -88s-40 -90 -89 -90s-89 41 -89 90s40 88 89 88z" />
    <glyph glyph-name="lslash" unicode="&#x142;" horiz-adv-x="373" 
d="M351 133c10 -11 7 -41 7 -66c0 -26 3 -53 -8 -63c-12 -10 -48 -6 -70 -6h-152c-23 0 -62 -3 -71 9c-9 14 -5 62 -5 89v170c-3 0 -6 -1 -8 0c-14 3 -58 63 -57 81c0 9 7 13 12 18c12 12 31 26 53 40v250c0 37 -9 95 23 95h2c9 2 39 1 63 1c20 0 46 3 55 -6
c10 -10 7 -44 7 -70v-175c4 1 8 2 11 1c12 -3 23 -23 34 -39c10 -15 25 -33 22 -45c-3 -13 -25 -26 -42 -37c-8 -5 -16 -11 -25 -17v-144c0 -28 -3 -63 7 -73s37 -7 71 -7c26 0 59 5 71 -6z" />
    <glyph glyph-name="ncommaaccent" unicode="&#x146;" horiz-adv-x="573" 
d="M365 366c8 11 6 27 6 43v245c0 26 -6 77 6 91c10 11 45 8 68 8c22 0 58 4 69 -7c12 -12 7 -62 7 -88v-565c0 -27 5 -75 -7 -87c-11 -11 -39 -6 -62 -6s-50 -4 -65 3c-13 5 -20 26 -27 44c-41 104 -81 204 -125 307c-6 16 -11 36 -27 45c-9 -11 -6 -29 -6 -45v-303
c0 -17 2 -39 -7 -46c-13 -9 -43 -5 -68 -5c-24 0 -57 -4 -68 6c-11 12 -6 60 -6 88v561c0 27 -6 75 5 89c11 15 51 9 78 9c19 0 43 2 55 -4c12 -7 18 -28 25 -45c40 -100 80 -197 121 -296c7 -16 13 -35 28 -42zM295 -31c16 2 95 -3 101 -19c4 -12 -7 -28 -12 -40
c-35 -72 -69 -146 -105 -219c-6 -12 -12 -26 -23 -30c-17 -6 -73 2 -78 15c-4 10 3 28 8 41c22 58 47 125 68 187c8 24 14 62 41 65z" />
    <glyph glyph-name="ohungarumlaut" unicode="&#x151;" horiz-adv-x="582" 
d="M260 982c16 1 35 -15 49 -24c11 -7 37 -16 38 -32s-22 -31 -31 -40l-71 -71c-10 -10 -25 -30 -40 -31c-12 -1 -25 10 -35 16c-12 7 -25 13 -26 25c-2 16 16 33 24 44c22 31 35 50 56 79c7 10 20 33 36 34zM449 982c16 1 35 -15 49 -24c11 -7 37 -16 38 -32
s-22 -31 -31 -40l-71 -71c-10 -10 -25 -30 -40 -31c-12 -1 -25 10 -35 16c-12 7 -25 13 -26 25c-2 16 16 33 24 44c22 31 35 50 56 79c7 10 20 33 36 34zM288 764c101 2 167 -54 207 -119c40 -67 61 -162 61 -265c0 -111 -18 -199 -58 -269c-40 -69 -106 -119 -202 -123
c-97 -4 -170 53 -208 119c-59 98 -80 269 -48 414c19 89 56 161 122 205c32 22 74 38 126 38zM221 577c-50 -89 -48 -321 4 -406c6 -11 17 -24 26 -30c20 -15 50 -16 70 -6c43 21 59 81 68 139c16 108 9 258 -38 319c-13 18 -38 35 -67 31c-32 -3 -50 -23 -63 -47z" />
    <glyph glyph-name="oslashacute" unicode="&#x1ff;" horiz-adv-x="782" 
d="M740 668c-12 -13 -36 -33 -37 -49c-1 -11 7 -21 12 -31c34 -64 57 -147 49 -247c-9 -108 -46 -185 -98 -245c-54 -61 -129 -104 -229 -114c-101 -10 -184 14 -245 52c-9 5 -19 13 -29 13c-19 -1 -33 -24 -46 -38c-9 -9 -29 -38 -46 -38c-14 0 -28 17 -38 26
c-9 9 -27 22 -27 36c-1 18 28 40 38 50c12 13 36 31 38 49c1 11 -6 23 -11 32c-35 64 -58 145 -51 248c7 108 44 184 99 245c53 59 124 104 229 115c13 1 26 2 38 2c-10 2 -21 11 -30 16c-11 7 -25 12 -26 25c-1 15 16 33 24 44c21 29 36 51 56 78c8 11 19 33 35 35
c17 2 33 -14 49 -24c10 -6 38 -16 39 -32c1 -15 -21 -30 -31 -40l-71 -71c-10 -10 -25 -28 -38 -31c81 0 146 -23 199 -55c8 -5 20 -13 30 -13c17 0 32 22 43 33c12 12 25 34 42 37s28 -12 42 -24c11 -10 29 -20 29 -35c0 -13 -11 -20 -17 -27zM205 263c14 -1 32 24 43 35
c14 14 26 28 38 40c64 69 126 133 189 201c9 10 34 29 33 45c-1 17 -34 30 -51 35c-25 8 -57 10 -79 8c-45 -3 -80 -18 -111 -41s-51 -50 -67 -83c-15 -31 -29 -72 -28 -122c0 -23 2 -45 7 -68c4 -18 11 -49 26 -50zM516 163c71 52 115 167 90 281c-5 22 -11 48 -31 43
c-16 -4 -30 -26 -41 -39c-13 -14 -27 -27 -38 -39c-53 -57 -95 -98 -149 -157c-9 -10 -24 -23 -38 -39c-11 -12 -33 -30 -32 -45c1 -18 30 -27 47 -32c17 -6 46 -10 70 -10c51 0 92 16 122 37z" />
    </font>
</defs>
</svg>
