<svg width="1148" height="820" viewBox="0 0 1148 820" fill="none" xmlns="http://www.w3.org/2000/svg">
<rect width="1148" height="820" fill="white"/>
<path d="M813.953 466.5C812.573 466.526 811.475 467.666 811.5 469.047L811.92 491.543C811.945 492.923 813.085 494.021 814.466 493.996C815.846 493.97 816.944 492.83 816.919 491.45L816.546 471.453L836.543 471.08C837.923 471.055 839.021 469.915 838.996 468.534C838.97 467.154 837.83 466.056 836.45 466.081L813.953 466.5ZM854.92 504.952L815.735 467.2L812.265 470.8L851.451 508.552L854.92 504.952Z" fill="black"/>
<text fill="black" xml:space="preserve" style="white-space: pre" font-family="Atlas Grotesk" font-style="Regular" font-size="48" letter-spacing="0em"><tspan x="857" y="545.976">Dashboard</tspan></text>
<path d="M326.564 273.572C327.934 273.747 329.186 272.779 329.361 271.409L332.211 249.09C332.385 247.721 331.417 246.469 330.047 246.294C328.678 246.119 327.426 247.087 327.251 248.457L324.718 268.296L304.879 265.763C303.509 265.588 302.257 266.556 302.082 267.926C301.907 269.296 302.876 270.548 304.246 270.722L326.564 273.572ZM290.023 227.53L324.904 272.622L328.858 269.563L293.977 224.47L290.023 227.53Z" fill="black"/>
<text fill="black" xml:space="preserve" style="white-space: pre" font-family="Atlas Grotesk" font-style="Regular" font-size="48" letter-spacing="0em"><tspan x="42" y="216.976">Juice Wrld</tspan></text>
<text fill="black" xml:space="preserve" style="white-space: pre" font-family="Atlas Grotesk" font-style="Bold" font-size="36" font-weight="bold" letter-spacing="0em"><tspan x="487.193" y="53.232">Most Emo</tspan></text>
<path d="M586.406 76H561.406V726H586.406V76Z" fill="#E5E5E5"/>
<path d="M873.672 144.04H596.406V163.04H873.672V144.04Z" fill="#28115A" fill-opacity="0.26"/>
<path d="M870.359 267.849H596.406V286.849H870.359V267.849Z" fill="#28115A" fill-opacity="0.26"/>
<path d="M884.531 309.119H596.406V328.119H884.531V309.119Z" fill="#28115A" fill-opacity="0.26"/>
<path d="M766.781 329.754H596.406V348.754H766.781V329.754Z" fill="#28115A" fill-opacity="0.26"/>
<path d="M773.609 371.024H596.406V390.024H773.609V371.024Z" fill="#28115A" fill-opacity="0.26"/>
<path d="M943.172 371.024H777.609V390.024H943.172V371.024Z" fill="#28115A" fill-opacity="0.26"/>
<path d="M851.188 412.294H596.406V431.294H851.188V412.294Z" fill="#28115A" fill-opacity="0.26"/>
<path d="M856.609 432.929H596.406V451.929H856.609V432.929Z" fill="#28115A" fill-opacity="0.7"/>
<path d="M969.797 432.929H860.609V451.929H969.797V432.929Z" fill="#28115A" fill-opacity="0.26"/>
<path d="M813.656 515.468H596.406V534.468H813.656V515.468Z" fill="#28115A" fill-opacity="0.26"/>
<path d="M551.406 205.944H370.703V224.944H551.406V205.944Z" fill="#18604F" fill-opacity="0.2"/>
<path d="M551.406 288.484H307.281V307.484H551.406V288.484Z" fill="#18604F" fill-opacity="0.7"/>
<path d="M303.281 288.484H181.75V307.484H303.281V288.484Z" fill="#18604F" fill-opacity="0.2"/>
<path d="M551.406 329.754H395.578V348.754H551.406V329.754Z" fill="#18604F" fill-opacity="0.2"/>
<path d="M391.578 329.754H323.422V348.754H391.578V329.754Z" fill="#18604F" fill-opacity="0.2"/>
<path d="M551.406 391.659H335.188V410.659H551.406V391.659Z" fill="#18604F" fill-opacity="0.2"/>
<path d="M551.406 412.294H315.984V431.294H551.406V412.294Z" fill="#18604F" fill-opacity="0.2"/>
<path d="M551.406 432.928H467.734V451.928H551.406V432.928Z" fill="#18604F" fill-opacity="0.2"/>
<path d="M551.406 494.833H408.672V513.833H551.406V494.833Z" fill="#18604F" fill-opacity="0.2"/>
<path d="M551.406 515.468H384.281V534.468H551.406V515.468Z" fill="#18604F" fill-opacity="0.2"/>
<path d="M380.281 515.468H243.531V534.468H380.281V515.468Z" fill="#18604F" fill-opacity="0.2"/>
<path d="M239.531 515.468H115.516V534.468H239.531V515.468Z" fill="#18604F" fill-opacity="0.2"/>
<path d="M551.406 536.103H387.594V555.103H551.406V536.103Z" fill="#18604F" fill-opacity="0.2"/>
<path d="M383.594 536.103H148.406V555.103H383.594V536.103Z" fill="#18604F" fill-opacity="0.2"/>
<path d="M144.406 536.103H43.7656V555.103H144.406V536.103Z" fill="#18604F" fill-opacity="0.2"/>
<path d="M551.406 556.738H310.891V575.738H551.406V556.738Z" fill="#18604F" fill-opacity="0.2"/>
<path d="M306.891 556.738H106.844V575.738H306.891V556.738Z" fill="#18604F" fill-opacity="0.2"/>
<path d="M102.844 556.738H22V575.738H102.844V556.738Z" fill="#18604F" fill-opacity="0.2"/>
<path d="M551.406 577.373H452.922V596.373H551.406V577.373Z" fill="#18604F" fill-opacity="0.2"/>
<path d="M448.922 577.373H244.297V596.373H448.922V577.373Z" fill="#18604F" fill-opacity="0.2"/>
<path d="M551.406 618.643H398.719V637.643H551.406V618.643Z" fill="#18604F" fill-opacity="0.2"/>
<path d="M551.406 659.913H435.969V678.913H551.406V659.913Z" fill="#18604F" fill-opacity="0.2"/>
<text fill="black" xml:space="preserve" style="white-space: pre" font-family="Atlas Grotesk" font-style="Bold" font-size="36" font-weight="bold" letter-spacing="0em"><tspan x="477.59" y="776.232">Least Emo</tspan></text>
</svg>
